solid OpenSCAD_Model
  facet normal -1 0 0
    outer loop
      vertex -53 28.5 10
      vertex -53 32 0
      vertex -53 28.5 1
    endloop
  endfacet
  facet normal -1 0 0
    outer loop
      vertex -53 14 7
      vertex -53 -32 21
      vertex -53 32 21
    endloop
  endfacet
  facet normal -1 0 0
    outer loop
      vertex -53 -32 0
      vertex -53 -32 21
      vertex -53 -11.5 9
    endloop
  endfacet
  facet normal -1 0 0
    outer loop
      vertex -53 -32 0
      vertex -53 -11.5 9
      vertex -53 -11.5 1
    endloop
  endfacet
  facet normal -1 0 0
    outer loop
      vertex -53 -32 0
      vertex -53 -11.5 1
      vertex -53 32 0
    endloop
  endfacet
  facet normal -1 0 0
    outer loop
      vertex -53 -11.5 1
      vertex -53 5 1
      vertex -53 32 0
    endloop
  endfacet
  facet normal -1 0 0
    outer loop
      vertex -53 5 1
      vertex -53 14 1
      vertex -53 32 0
    endloop
  endfacet
  facet normal -1 0 0
    outer loop
      vertex -53 5.5 9
      vertex -53 -32 21
      vertex -53 14 7
    endloop
  endfacet
  facet normal -1 0 0
    outer loop
      vertex -53 19.5 10
      vertex -53 14 7
      vertex -53 32 21
    endloop
  endfacet
  facet normal -1 0 0
    outer loop
      vertex -53 14 7
      vertex -53 19.5 1
      vertex -53 14 1
    endloop
  endfacet
  facet normal -1 0 0
    outer loop
      vertex -53 5.5 7
      vertex -53 5.5 9
      vertex -53 14 7
    endloop
  endfacet
  facet normal -1 0 0
    outer loop
      vertex -53 28.5 10
      vertex -53 19.5 10
      vertex -53 32 21
    endloop
  endfacet
  facet normal -1 0 0
    outer loop
      vertex -53 14 1
      vertex -53 19.5 1
      vertex -53 32 0
    endloop
  endfacet
  facet normal -1 0 0
    outer loop
      vertex -53 28.5 1
      vertex -53 32 0
      vertex -53 19.5 1
    endloop
  endfacet
  facet normal -1 0 0
    outer loop
      vertex -53 32 0
      vertex -53 28.5 10
      vertex -53 32 21
    endloop
  endfacet
  facet normal -1 0 0
    outer loop
      vertex -53 -11.5 9
      vertex -53 -32 21
      vertex -53 5.5 9
    endloop
  endfacet
  facet normal -1 0 0
    outer loop
      vertex -53 19.5 1
      vertex -53 14 7
      vertex -53 19.5 10
    endloop
  endfacet
  facet normal 0 -1 0
    outer loop
      vertex -47 -32 1
      vertex -53 -32 0
      vertex 53 -32 0
    endloop
  endfacet
  facet normal 0 -1 0
    outer loop
      vertex -30 -32 1
      vertex -47 -32 1
      vertex 53 -32 0
    endloop
  endfacet
  facet normal 0 -1 0
    outer loop
      vertex -53 -32 21
      vertex -53 -32 0
      vertex -47 -32 1
    endloop
  endfacet
  facet normal 0 -1 0
    outer loop
      vertex -23 -32 1
      vertex -23 -32 19.5
      vertex -30 -32 7
    endloop
  endfacet
  facet normal 0 -1 0
    outer loop
      vertex -53 -32 21
      vertex -47 -32 1
      vertex -47 -32 7
    endloop
  endfacet
  facet normal 0 -1 0
    outer loop
      vertex -7 -32 19.5
      vertex -7 -32 1
      vertex 53 -32 0
    endloop
  endfacet
  facet normal 0 -1 0
    outer loop
      vertex -53 -32 21
      vertex -47 -32 7
      vertex -30 -32 7
    endloop
  endfacet
  facet normal 0 -1 0
    outer loop
      vertex -23 -32 1
      vertex -30 -32 1
      vertex 53 -32 0
    endloop
  endfacet
  facet normal 0 -1 0
    outer loop
      vertex -7 -32 1
      vertex -23 -32 1
      vertex 53 -32 0
    endloop
  endfacet
  facet normal 0 -1 0
    outer loop
      vertex 53 -32 21
      vertex -53 -32 21
      vertex -23 -32 19.5
    endloop
  endfacet
  facet normal 0 -1 0
    outer loop
      vertex 53 -32 21
      vertex -7 -32 19.5
      vertex 53 -32 0
    endloop
  endfacet
  facet normal 0 -1 0
    outer loop
      vertex 53 -32 21
      vertex -23 -32 19.5
      vertex -7 -32 19.5
    endloop
  endfacet
  facet normal 0 -1 0
    outer loop
      vertex -30 -32 7
      vertex -23 -32 19.5
      vertex -53 -32 21
    endloop
  endfacet
  facet normal 0 -1 0
    outer loop
      vertex -30 -32 7
      vertex -30 -32 1
      vertex -23 -32 1
    endloop
  endfacet
  facet normal 0 0 -1
    outer loop
      vertex -6.5 24 0
      vertex -53 32 0
      vertex -6.5 30 0
    endloop
  endfacet
  facet normal 0 0 -1
    outer loop
      vertex -6.5 30 0
      vertex -53 32 0
      vertex 53 32 0
    endloop
  endfacet
  facet normal 0 0 -1
    outer loop
      vertex -28.7135 25.1183 0
      vertex -53 32 0
      vertex -28.7135 26.8817 0
    endloop
  endfacet
  facet normal 0 0 -1
    outer loop
      vertex -26 26 0
      vertex 34.5 7.5 0
      vertex -27.0365 24.5734 0
    endloop
  endfacet
  facet normal 0 0 -1
    outer loop
      vertex 53 -5 0
      vertex 53 -32 0
      vertex 45 -5 0
    endloop
  endfacet
  facet normal 0 0 -1
    outer loop
      vertex -53 -32 0
      vertex -53 32 0
      vertex -28.7135 -26.1183 0
    endloop
  endfacet
  facet normal 0 0 -1
    outer loop
      vertex -6.5 -24 0
      vertex -53 32 0
      vertex -28.7135 25.1183 0
    endloop
  endfacet
  facet normal 0 0 -1
    outer loop
      vertex -53 -32 0
      vertex -28.7135 -26.1183 0
      vertex -28.7135 -27.8817 0
    endloop
  endfacet
  facet normal 0 0 -1
    outer loop
      vertex -53 -32 0
      vertex -28.7135 -27.8817 0
      vertex -27.0365 -28.4266 0
    endloop
  endfacet
  facet normal 0 0 -1
    outer loop
      vertex 43.5 -30 0
      vertex 53 -32 0
      vertex -6.5 -30 0
    endloop
  endfacet
  facet normal 0 0 -1
    outer loop
      vertex 45.0865 25.1183 0
      vertex 43.5 24 0
      vertex 45.0865 26.8817 0
    endloop
  endfacet
  facet normal 0 0 -1
    outer loop
      vertex -28.7135 -26.1183 0
      vertex -53 32 0
      vertex -27.0365 -25.5734 0
    endloop
  endfacet
  facet normal 0 0 -1
    outer loop
      vertex -28.7135 26.8817 0
      vertex -53 32 0
      vertex -27.0365 27.4266 0
    endloop
  endfacet
  facet normal 0 0 -1
    outer loop
      vertex -6.5 -24 0
      vertex -28.7135 25.1183 0
      vertex -27.0365 24.5734 0
    endloop
  endfacet
  facet normal 0 0 -1
    outer loop
      vertex -27.0365 27.4266 0
      vertex 34.5 7.5 0
      vertex -26 26 0
    endloop
  endfacet
  facet normal 0 0 -1
    outer loop
      vertex 43.5 -24 0
      vertex -27.0365 24.5734 0
      vertex 34.5 7.5 0
    endloop
  endfacet
  facet normal 0 0 -1
    outer loop
      vertex -6.5 -24 0
      vertex -27.0365 24.5734 0
      vertex 43.5 -24 0
    endloop
  endfacet
  facet normal 0 0 -1
    outer loop
      vertex -27.0365 27.4266 0
      vertex 34.5 16.5 0
      vertex 34.5 7.5 0
    endloop
  endfacet
  facet normal 0 0 -1
    outer loop
      vertex 43.5 24 0
      vertex 53 16.5 0
      vertex -6.5 24 0
    endloop
  endfacet
  facet normal 0 0 -1
    outer loop
      vertex -27.0365 -25.5734 0
      vertex -53 32 0
      vertex -6.5 -24 0
    endloop
  endfacet
  facet normal 0 0 -1
    outer loop
      vertex -53 -32 0
      vertex -27.0365 -28.4266 0
      vertex -6.5 -30 0
    endloop
  endfacet
  facet normal 0 0 -1
    outer loop
      vertex -53 -32 0
      vertex -6.5 -30 0
      vertex 53 -32 0
    endloop
  endfacet
  facet normal 0 0 -1
    outer loop
      vertex -6.5 -30 0
      vertex -27.0365 -28.4266 0
      vertex -26 -27 0
    endloop
  endfacet
  facet normal 0 0 -1
    outer loop
      vertex -6.5 24 0
      vertex -27.0365 27.4266 0
      vertex -53 32 0
    endloop
  endfacet
  facet normal 0 0 -1
    outer loop
      vertex 46.7635 -25.5734 0
      vertex 43.5 -24 0
      vertex 34.5 7.5 0
    endloop
  endfacet
  facet normal 0 0 -1
    outer loop
      vertex 43.5 30 0
      vertex -6.5 30 0
      vertex 53 32 0
    endloop
  endfacet
  facet normal 0 0 -1
    outer loop
      vertex 34.5 16.5 0
      vertex -27.0365 27.4266 0
      vertex -6.5 24 0
    endloop
  endfacet
  facet normal 0 0 -1
    outer loop
      vertex 34.5 16.5 0
      vertex -6.5 24 0
      vertex 53 16.5 0
    endloop
  endfacet
  facet normal 0 0 -1
    outer loop
      vertex 45.0865 -26.1183 0
      vertex 43.5 -24 0
      vertex 46.7635 -25.5734 0
    endloop
  endfacet
  facet normal 0 0 -1
    outer loop
      vertex 46.7635 27.4266 0
      vertex 53 32 0
      vertex 47.8 26 0
    endloop
  endfacet
  facet normal 0 0 -1
    outer loop
      vertex 45.0865 26.8817 0
      vertex 43.5 30 0
      vertex 53 32 0
    endloop
  endfacet
  facet normal 0 0 -1
    outer loop
      vertex 45.0865 -27.8817 0
      vertex 43.5 -24 0
      vertex 45.0865 -26.1183 0
    endloop
  endfacet
  facet normal 0 0 -1
    outer loop
      vertex -6.5 -30 0
      vertex -26 -27 0
      vertex -27.0365 -25.5734 0
    endloop
  endfacet
  facet normal 0 0 -1
    outer loop
      vertex 43.5 -30 0
      vertex 45.0865 -27.8817 0
      vertex 53 -32 0
    endloop
  endfacet
  facet normal 0 0 -1
    outer loop
      vertex -6.5 -30 0
      vertex -27.0365 -25.5734 0
      vertex -6.5 -24 0
    endloop
  endfacet
  facet normal 0 0 -1
    outer loop
      vertex 45.0865 -27.8817 0
      vertex 46.7635 -28.4266 0
      vertex 53 -32 0
    endloop
  endfacet
  facet normal 0 0 -1
    outer loop
      vertex 53 -32 0
      vertex 47.8 -27 0
      vertex 34.5 7.5 0
    endloop
  endfacet
  facet normal 0 0 -1
    outer loop
      vertex 47.8 -27 0
      vertex 46.7635 -25.5734 0
      vertex 34.5 7.5 0
    endloop
  endfacet
  facet normal 0 0 -1
    outer loop
      vertex 43.5 24 0
      vertex 43.5 30 0
      vertex 45.0865 26.8817 0
    endloop
  endfacet
  facet normal 0 0 -1
    outer loop
      vertex 46.7635 27.4266 0
      vertex 45.0865 26.8817 0
      vertex 53 32 0
    endloop
  endfacet
  facet normal 0 0 -1
    outer loop
      vertex 53 16.5 0
      vertex 43.5 24 0
      vertex 45.0865 25.1183 0
    endloop
  endfacet
  facet normal 0 0 -1
    outer loop
      vertex 53 16.5 0
      vertex 45.0865 25.1183 0
      vertex 46.7635 24.5734 0
    endloop
  endfacet
  facet normal 0 0 -1
    outer loop
      vertex 53 16.5 0
      vertex 46.7635 24.5734 0
      vertex 53 32 0
    endloop
  endfacet
  facet normal 0 0 -1
    outer loop
      vertex 46.7635 24.5734 0
      vertex 47.8 26 0
      vertex 53 32 0
    endloop
  endfacet
  facet normal 0 0 -1
    outer loop
      vertex 53 7.5 0
      vertex 53 4.5 0
      vertex 45 4.5 0
    endloop
  endfacet
  facet normal 0 0 -1
    outer loop
      vertex 45 -5 0
      vertex 53 -32 0
      vertex 34.5 7.5 0
    endloop
  endfacet
  facet normal 0 0 -1
    outer loop
      vertex 45 4.5 0
      vertex 45 -5 0
      vertex 34.5 7.5 0
    endloop
  endfacet
  facet normal 0 0 -1
    outer loop
      vertex 53 7.5 0
      vertex 45 4.5 0
      vertex 34.5 7.5 0
    endloop
  endfacet
  facet normal 0 0 -1
    outer loop
      vertex 47.8 -27 0
      vertex 53 -32 0
      vertex 46.7635 -28.4266 0
    endloop
  endfacet
  facet normal 0 0 -1
    outer loop
      vertex 43.5 -24 0
      vertex 45.0865 -27.8817 0
      vertex 43.5 -30 0
    endloop
  endfacet
  facet normal 0 1 0
    outer loop
      vertex -31 32 14.5
      vertex -53 32 21
      vertex 53 32 0
    endloop
  endfacet
  facet normal 0 1 0
    outer loop
      vertex 53 32 0
      vertex -53 32 21
      vertex 53 32 21
    endloop
  endfacet
  facet normal 0 1 0
    outer loop
      vertex -53 32 0
      vertex -53 32 21
      vertex -38 32 14.5
    endloop
  endfacet
  facet normal 0 1 0
    outer loop
      vertex -53 32 0
      vertex -38 32 14.5
      vertex -38 32 1
    endloop
  endfacet
  facet normal 0 1 0
    outer loop
      vertex -53 32 0
      vertex -38 32 1
      vertex 53 32 0
    endloop
  endfacet
  facet normal 0 1 0
    outer loop
      vertex -38 32 1
      vertex -31 32 1
      vertex 53 32 0
    endloop
  endfacet
  facet normal 0 1 0
    outer loop
      vertex -38 32 14.5
      vertex -53 32 21
      vertex -31 32 14.5
    endloop
  endfacet
  facet normal 0 1 0
    outer loop
      vertex -31 32 14.5
      vertex 53 32 0
      vertex -31 32 1
    endloop
  endfacet
  facet normal 0 0 1
    outer loop
      vertex -52 -31 21
      vertex -53 -32 21
      vertex 53 -32 21
    endloop
  endfacet
  facet normal 0 0 1
    outer loop
      vertex -53 32 21
      vertex -53 -32 21
      vertex -52 -31 21
    endloop
  endfacet
  facet normal 0 0 1
    outer loop
      vertex -52 31 21
      vertex 52 31 21
      vertex -53 32 21
    endloop
  endfacet
  facet normal 0 0 1
    outer loop
      vertex -53 32 21
      vertex -52 -31 21
      vertex -52 31 21
    endloop
  endfacet
  facet normal 0 0 1
    outer loop
      vertex 53 32 21
      vertex 52 31 21
      vertex 53 -32 21
    endloop
  endfacet
  facet normal 0 0 1
    outer loop
      vertex 53 32 21
      vertex -53 32 21
      vertex 52 31 21
    endloop
  endfacet
  facet normal 0 0 1
    outer loop
      vertex 52 31 21
      vertex 52 -31 21
      vertex 53 -32 21
    endloop
  endfacet
  facet normal 0 0 1
    outer loop
      vertex 52 -31 21
      vertex -52 -31 21
      vertex 53 -32 21
    endloop
  endfacet
  facet normal 0 1 0
    outer loop
      vertex -52 -11.5 9
      vertex -52 -11.5 1
      vertex -53 -11.5 9
    endloop
  endfacet
  facet normal 0 1 0
    outer loop
      vertex -53 -11.5 9
      vertex -52 -11.5 1
      vertex -53 -11.5 1
    endloop
  endfacet
  facet normal 0 0 -1
    outer loop
      vertex -52 5.5 9
      vertex -52 -11.5 9
      vertex -53 5.5 9
    endloop
  endfacet
  facet normal 0 0 -1
    outer loop
      vertex -53 5.5 9
      vertex -52 -11.5 9
      vertex -53 -11.5 9
    endloop
  endfacet
  facet normal 0 -1 0
    outer loop
      vertex -52 5.5 7
      vertex -52 5.5 9
      vertex -53 5.5 9
    endloop
  endfacet
  facet normal 0 -1 0
    outer loop
      vertex -53 5.5 7
      vertex -52 5.5 7
      vertex -53 5.5 9
    endloop
  endfacet
  facet normal 0 0 -1
    outer loop
      vertex -52 14 7
      vertex -52 5.5 7
      vertex -53 14 7
    endloop
  endfacet
  facet normal 0 0 -1
    outer loop
      vertex -53 14 7
      vertex -52 5.5 7
      vertex -53 5.5 7
    endloop
  endfacet
  facet normal 0 -1 0
    outer loop
      vertex -52 14 1
      vertex -52 14 7
      vertex -53 14 7
    endloop
  endfacet
  facet normal 0 -1 0
    outer loop
      vertex -53 14 1
      vertex -52 14 1
      vertex -53 14 7
    endloop
  endfacet
  facet normal 0 0 1
    outer loop
      vertex -47 5 1
      vertex -47 14.5 1
      vertex -52 14.5 1
    endloop
  endfacet
  facet normal 0 0 1
    outer loop
      vertex -53 14 1
      vertex -47 5 1
      vertex -52 14 1
    endloop
  endfacet
  facet normal 0 0 1
    outer loop
      vertex -52 14 1
      vertex -47 5 1
      vertex -52 14.5 1
    endloop
  endfacet
  facet normal 0 0 1
    outer loop
      vertex -53 5 1
      vertex -47 5 1
      vertex -53 14 1
    endloop
  endfacet
  facet normal 0 0 1
    outer loop
      vertex -27.0365 -25.5734 1
      vertex -26 -27 1
      vertex -7 -32 1
    endloop
  endfacet
  facet normal 0 0 1
    outer loop
      vertex -52 -11.5 1
      vertex -52 -31 1
      vertex -47 -31 1
    endloop
  endfacet
  facet normal 0 0 1
    outer loop
      vertex -30 -32 1
      vertex -52 -11.5 1
      vertex -47 -31 1
    endloop
  endfacet
  facet normal 0 0 1
    outer loop
      vertex -47 -32 1
      vertex -30 -32 1
      vertex -47 -31 1
    endloop
  endfacet
  facet normal 0 0 1
    outer loop
      vertex -30 -32 1
      vertex -30 -31 1
      vertex -52 -11.5 1
    endloop
  endfacet
  facet normal 0 0 1
    outer loop
      vertex -27.0365 -25.5734 1
      vertex -7 -32 1
      vertex -52 -11.5 1
    endloop
  endfacet
  facet normal 0 0 1
    outer loop
      vertex -23 -32 1
      vertex -7 -32 1
      vertex -23 -31 1
    endloop
  endfacet
  facet normal 0 0 1
    outer loop
      vertex -7 -32 1
      vertex -7 -31 1
      vertex -52 -11.5 1
    endloop
  endfacet
  facet normal 0 0 1
    outer loop
      vertex 45 -5 1
      vertex 45 4.5 1
      vertex -52 -11.5 1
    endloop
  endfacet
  facet normal 0 0 1
    outer loop
      vertex 43.5 -24 1
      vertex 52 -5 1
      vertex -52 -11.5 1
    endloop
  endfacet
  facet normal 0 0 1
    outer loop
      vertex 52 -5 1
      vertex 45 -5 1
      vertex -52 -11.5 1
    endloop
  endfacet
  facet normal 0 0 1
    outer loop
      vertex 45 4.5 1
      vertex 52 7.5 1
      vertex -52 -11.5 1
    endloop
  endfacet
  facet normal 0 0 1
    outer loop
      vertex 34.5 7.5 1
      vertex 34.5 16.5 1
      vertex -52 -11.5 1
    endloop
  endfacet
  facet normal 0 0 1
    outer loop
      vertex 52 4.5 1
      vertex 52 7.5 1
      vertex 45 4.5 1
    endloop
  endfacet
  facet normal 0 0 1
    outer loop
      vertex 52 7.5 1
      vertex 34.5 7.5 1
      vertex -52 -11.5 1
    endloop
  endfacet
  facet normal 0 0 1
    outer loop
      vertex 43.5 24 1
      vertex -6.5 24 1
      vertex -52 -11.5 1
    endloop
  endfacet
  facet normal 0 0 1
    outer loop
      vertex -31 31 1
      vertex -31 32 1
      vertex -52 -11.5 1
    endloop
  endfacet
  facet normal 0 0 1
    outer loop
      vertex -28.7135 26.8817 1
      vertex -31 31 1
      vertex -52 -11.5 1
    endloop
  endfacet
  facet normal 0 0 1
    outer loop
      vertex -31 32 1
      vertex -38 31 1
      vertex -52 -11.5 1
    endloop
  endfacet
  facet normal 0 0 1
    outer loop
      vertex -31 32 1
      vertex -38 32 1
      vertex -38 31 1
    endloop
  endfacet
  facet normal 0 0 1
    outer loop
      vertex -38 31 1
      vertex -47 5 1
      vertex -52 -11.5 1
    endloop
  endfacet
  facet normal 0 0 1
    outer loop
      vertex -53 19.5 1
      vertex -52 19.5 1
      vertex -53 28.5 1
    endloop
  endfacet
  facet normal 0 0 1
    outer loop
      vertex -52 28.5 1
      vertex -53 28.5 1
      vertex -52 19.5 1
    endloop
  endfacet
  facet normal 0 0 1
    outer loop
      vertex -28.7135 -27.8817 1
      vertex -28.7135 -26.1183 1
      vertex -52 -11.5 1
    endloop
  endfacet
  facet normal 0 0 1
    outer loop
      vertex -6.5 24 1
      vertex -27.0365 27.4266 1
      vertex -26 26 1
    endloop
  endfacet
  facet normal 0 0 1
    outer loop
      vertex -47 5 1
      vertex -53 5 1
      vertex -52 -11.5 1
    endloop
  endfacet
  facet normal 0 0 1
    outer loop
      vertex -6.5 -24 1
      vertex 43.5 -24 1
      vertex -52 -11.5 1
    endloop
  endfacet
  facet normal 0 0 1
    outer loop
      vertex -38 31 1
      vertex -47 14.5 1
      vertex -47 5 1
    endloop
  endfacet
  facet normal 0 0 1
    outer loop
      vertex -38 31 1
      vertex -52 14.5 1
      vertex -47 14.5 1
    endloop
  endfacet
  facet normal 0 0 1
    outer loop
      vertex -28.7135 -26.1183 1
      vertex -27.0365 -25.5734 1
      vertex -52 -11.5 1
    endloop
  endfacet
  facet normal 0 0 1
    outer loop
      vertex -26 -27 1
      vertex -27.0365 -28.4266 1
      vertex -23 -31 1
    endloop
  endfacet
  facet normal 0 0 1
    outer loop
      vertex 43.5 30 1
      vertex 45.0865 26.8817 1
      vertex 52 31 1
    endloop
  endfacet
  facet normal 0 0 1
    outer loop
      vertex -23 -31 1
      vertex -7 -32 1
      vertex -26 -27 1
    endloop
  endfacet
  facet normal 0 0 1
    outer loop
      vertex -30 -31 1
      vertex -23 -31 1
      vertex -27.0365 -28.4266 1
    endloop
  endfacet
  facet normal 0 0 1
    outer loop
      vertex -30 -31 1
      vertex -28.7135 -27.8817 1
      vertex -52 -11.5 1
    endloop
  endfacet
  facet normal 0 0 1
    outer loop
      vertex -30 -31 1
      vertex -27.0365 -28.4266 1
      vertex -28.7135 -27.8817 1
    endloop
  endfacet
  facet normal 0 0 1
    outer loop
      vertex -28.7135 25.1183 1
      vertex -28.7135 26.8817 1
      vertex -52 -11.5 1
    endloop
  endfacet
  facet normal 0 0 1
    outer loop
      vertex -27.0365 27.4266 1
      vertex -31 31 1
      vertex -28.7135 26.8817 1
    endloop
  endfacet
  facet normal 0 0 1
    outer loop
      vertex 45.0865 -27.8817 1
      vertex 52 -31 1
      vertex 46.7635 -28.4266 1
    endloop
  endfacet
  facet normal 0 0 1
    outer loop
      vertex -6.5 30 1
      vertex -31 31 1
      vertex -27.0365 27.4266 1
    endloop
  endfacet
  facet normal 0 0 1
    outer loop
      vertex -6.5 24 1
      vertex -26 26 1
      vertex -52 -11.5 1
    endloop
  endfacet
  facet normal 0 0 1
    outer loop
      vertex 43.5 -24 1
      vertex 45.0865 -27.8817 1
      vertex 45.0865 -26.1183 1
    endloop
  endfacet
  facet normal 0 0 1
    outer loop
      vertex -26 26 1
      vertex -27.0365 24.5734 1
      vertex -52 -11.5 1
    endloop
  endfacet
  facet normal 0 0 1
    outer loop
      vertex -27.0365 24.5734 1
      vertex -28.7135 25.1183 1
      vertex -52 -11.5 1
    endloop
  endfacet
  facet normal 0 0 1
    outer loop
      vertex -7 -31 1
      vertex -6.5 -24 1
      vertex -52 -11.5 1
    endloop
  endfacet
  facet normal 0 0 1
    outer loop
      vertex -6.5 30 1
      vertex 43.5 30 1
      vertex 52 31 1
    endloop
  endfacet
  facet normal 0 0 1
    outer loop
      vertex 46.7635 -25.5734 1
      vertex 52 -5 1
      vertex 43.5 -24 1
    endloop
  endfacet
  facet normal 0 0 1
    outer loop
      vertex -7 -31 1
      vertex 52 -31 1
      vertex 43.5 -30 1
    endloop
  endfacet
  facet normal 0 0 1
    outer loop
      vertex -7 -31 1
      vertex -6.5 -30 1
      vertex -6.5 -24 1
    endloop
  endfacet
  facet normal 0 0 1
    outer loop
      vertex -7 -31 1
      vertex 43.5 -30 1
      vertex -6.5 -30 1
    endloop
  endfacet
  facet normal 0 0 1
    outer loop
      vertex 52 31 1
      vertex -31 31 1
      vertex -6.5 30 1
    endloop
  endfacet
  facet normal 0 0 1
    outer loop
      vertex 45.0865 -26.1183 1
      vertex 46.7635 -25.5734 1
      vertex 43.5 -24 1
    endloop
  endfacet
  facet normal 0 0 1
    outer loop
      vertex 43.5 30 1
      vertex 43.5 24 1
      vertex 45.0865 26.8817 1
    endloop
  endfacet
  facet normal 0 0 1
    outer loop
      vertex 34.5 16.5 1
      vertex 43.5 24 1
      vertex -52 -11.5 1
    endloop
  endfacet
  facet normal 0 0 1
    outer loop
      vertex 45.0865 25.1183 1
      vertex 45.0865 26.8817 1
      vertex 43.5 24 1
    endloop
  endfacet
  facet normal 0 0 1
    outer loop
      vertex 45.0865 -27.8817 1
      vertex 43.5 -30 1
      vertex 52 -31 1
    endloop
  endfacet
  facet normal 0 0 1
    outer loop
      vertex 45.0865 25.1183 1
      vertex 43.5 24 1
      vertex 34.5 16.5 1
    endloop
  endfacet
  facet normal 0 0 1
    outer loop
      vertex 52 -31 1
      vertex 52 -5 1
      vertex 46.7635 -25.5734 1
    endloop
  endfacet
  facet normal 0 0 1
    outer loop
      vertex 47.8 -27 1
      vertex 46.7635 -28.4266 1
      vertex 52 -31 1
    endloop
  endfacet
  facet normal 0 0 1
    outer loop
      vertex 52 -31 1
      vertex 46.7635 -25.5734 1
      vertex 47.8 -27 1
    endloop
  endfacet
  facet normal 0 0 1
    outer loop
      vertex -6.5 24 1
      vertex -6.5 30 1
      vertex -27.0365 27.4266 1
    endloop
  endfacet
  facet normal 0 0 1
    outer loop
      vertex 46.7635 24.5734 1
      vertex 45.0865 25.1183 1
      vertex 34.5 16.5 1
    endloop
  endfacet
  facet normal 0 0 1
    outer loop
      vertex 43.5 -24 1
      vertex 43.5 -30 1
      vertex 45.0865 -27.8817 1
    endloop
  endfacet
  facet normal 0 0 1
    outer loop
      vertex 46.7635 27.4266 1
      vertex 52 31 1
      vertex 45.0865 26.8817 1
    endloop
  endfacet
  facet normal 0 0 1
    outer loop
      vertex 46.7635 27.4266 1
      vertex 47.8 26 1
      vertex 52 31 1
    endloop
  endfacet
  facet normal 0 0 1
    outer loop
      vertex 52 16.5 1
      vertex 52 31 1
      vertex 47.8 26 1
    endloop
  endfacet
  facet normal 0 0 1
    outer loop
      vertex 52 16.5 1
      vertex 46.7635 24.5734 1
      vertex 34.5 16.5 1
    endloop
  endfacet
  facet normal 0 0 1
    outer loop
      vertex 52 16.5 1
      vertex 47.8 26 1
      vertex 46.7635 24.5734 1
    endloop
  endfacet
  facet normal 0 0 1
    outer loop
      vertex -53 -11.5 1
      vertex -52 -11.5 1
      vertex -53 5 1
    endloop
  endfacet
  facet normal 0 0 1
    outer loop
      vertex -38 31 1
      vertex -52 19.5 1
      vertex -52 14.5 1
    endloop
  endfacet
  facet normal 0 0 1
    outer loop
      vertex -38 31 1
      vertex -52 28.5 1
      vertex -52 19.5 1
    endloop
  endfacet
  facet normal 0 0 1
    outer loop
      vertex -38 31 1
      vertex -52 31 1
      vertex -52 28.5 1
    endloop
  endfacet
  facet normal 0 1 0
    outer loop
      vertex -52 19.5 10
      vertex -52 19.5 1
      vertex -53 19.5 10
    endloop
  endfacet
  facet normal 0 1 0
    outer loop
      vertex -53 19.5 10
      vertex -52 19.5 1
      vertex -53 19.5 1
    endloop
  endfacet
  facet normal 0 0 -1
    outer loop
      vertex -52 28.5 10
      vertex -52 19.5 10
      vertex -53 28.5 10
    endloop
  endfacet
  facet normal 0 0 -1
    outer loop
      vertex -53 28.5 10
      vertex -52 19.5 10
      vertex -53 19.5 10
    endloop
  endfacet
  facet normal 0 -1 0
    outer loop
      vertex -52 28.5 1
      vertex -52 28.5 10
      vertex -53 28.5 10
    endloop
  endfacet
  facet normal 0 -1 0
    outer loop
      vertex -53 28.5 1
      vertex -52 28.5 1
      vertex -53 28.5 10
    endloop
  endfacet
  facet normal 1 0 0
    outer loop
      vertex 53 -23.5 2.5
      vertex 53 -32 0
      vertex 53 -5 0
    endloop
  endfacet
  facet normal 1 0 0
    outer loop
      vertex 53 -23.5 2.5
      vertex 53 -23.5 17.5
      vertex 53 -32 21
    endloop
  endfacet
  facet normal 1 0 0
    outer loop
      vertex 53 -32 21
      vertex 53 -32 0
      vertex 53 -23.5 2.5
    endloop
  endfacet
  facet normal 1 0 0
    outer loop
      vertex 53 4.5 7.5
      vertex 53 -5 17.5
      vertex 53 -5 7.5
    endloop
  endfacet
  facet normal 1 0 0
    outer loop
      vertex 53 -5 17.5
      vertex 53 -32 21
      vertex 53 -23.5 17.5
    endloop
  endfacet
  facet normal 1 0 0
    outer loop
      vertex 53 32 21
      vertex 53 -32 21
      vertex 53 -5 17.5
    endloop
  endfacet
  facet normal 1 0 0
    outer loop
      vertex 53 7.5 10
      vertex 53 -5 17.5
      vertex 53 4.5 7.5
    endloop
  endfacet
  facet normal 1 0 0
    outer loop
      vertex 53 7.5 0
      vertex 53 4.5 7.5
      vertex 53 4.5 0
    endloop
  endfacet
  facet normal 1 0 0
    outer loop
      vertex 53 7.5 10
      vertex 53 4.5 7.5
      vertex 53 7.5 0
    endloop
  endfacet
  facet normal 1 0 0
    outer loop
      vertex 53 16.5 10
      vertex 53 -5 17.5
      vertex 53 7.5 10
    endloop
  endfacet
  facet normal 1 0 0
    outer loop
      vertex 53 32 21
      vertex 53 -5 17.5
      vertex 53 16.5 10
    endloop
  endfacet
  facet normal 1 0 0
    outer loop
      vertex 53 32 0
      vertex 53 16.5 10
      vertex 53 16.5 0
    endloop
  endfacet
  facet normal 1 0 0
    outer loop
      vertex 53 32 21
      vertex 53 16.5 10
      vertex 53 32 0
    endloop
  endfacet
  facet normal 1 0 0
    outer loop
      vertex 53 -5 2.5
      vertex 53 -23.5 2.5
      vertex 53 -5 0
    endloop
  endfacet
  facet normal 1 0 0
    outer loop
      vertex -47 -31 1
      vertex -47 -31 7
      vertex -47 -32 7
    endloop
  endfacet
  facet normal 1 0 0
    outer loop
      vertex -47 -32 1
      vertex -47 -31 1
      vertex -47 -32 7
    endloop
  endfacet
  facet normal -1 0 0
    outer loop
      vertex -30 -31 7
      vertex -30 -31 1
      vertex -30 -32 7
    endloop
  endfacet
  facet normal -1 0 0
    outer loop
      vertex -30 -32 7
      vertex -30 -31 1
      vertex -30 -32 1
    endloop
  endfacet
  facet normal 0 0 -1
    outer loop
      vertex -30 -31 7
      vertex -30 -32 7
      vertex -47 -31 7
    endloop
  endfacet
  facet normal 0 0 -1
    outer loop
      vertex -47 -31 7
      vertex -30 -32 7
      vertex -47 -32 7
    endloop
  endfacet
  facet normal 1 0 0
    outer loop
      vertex -23 -31 1
      vertex -23 -31 19.5
      vertex -23 -32 19.5
    endloop
  endfacet
  facet normal 1 0 0
    outer loop
      vertex -23 -32 1
      vertex -23 -31 1
      vertex -23 -32 19.5
    endloop
  endfacet
  facet normal -1 0 0
    outer loop
      vertex -7 -31 19.5
      vertex -7 -31 1
      vertex -7 -32 19.5
    endloop
  endfacet
  facet normal -1 0 0
    outer loop
      vertex -7 -32 19.5
      vertex -7 -31 1
      vertex -7 -32 1
    endloop
  endfacet
  facet normal 0 0 -1
    outer loop
      vertex -7 -31 19.5
      vertex -7 -32 19.5
      vertex -23 -31 19.5
    endloop
  endfacet
  facet normal 0 0 -1
    outer loop
      vertex -23 -31 19.5
      vertex -7 -32 19.5
      vertex -23 -32 19.5
    endloop
  endfacet
  facet normal 0 1 0
    outer loop
      vertex 52 -5 1
      vertex 52 -5 2.5
      vertex 53 -5 2.5
    endloop
  endfacet
  facet normal 0 1 0
    outer loop
      vertex 52 -5 1
      vertex 53 -5 2.5
      vertex 53 -5 0
    endloop
  endfacet
  facet normal 0 1 0
    outer loop
      vertex 52 -5 1
      vertex 53 -5 0
      vertex 45 -5 1
    endloop
  endfacet
  facet normal 0 1 0
    outer loop
      vertex 53 -5 0
      vertex 45 -5 0
      vertex 45 -5 1
    endloop
  endfacet
  facet normal 1 0 0
    outer loop
      vertex 45 4.5 0
      vertex 45 4.5 1
      vertex 45 -5 1
    endloop
  endfacet
  facet normal 1 0 0
    outer loop
      vertex 45 -5 0
      vertex 45 4.5 0
      vertex 45 -5 1
    endloop
  endfacet
  facet normal 0 -1 0
    outer loop
      vertex 53 4.5 0
      vertex 53 4.5 7.5
      vertex 52 4.5 7.5
    endloop
  endfacet
  facet normal 0 -1 0
    outer loop
      vertex 45 4.5 1
      vertex 53 4.5 0
      vertex 52 4.5 1
    endloop
  endfacet
  facet normal 0 -1 0
    outer loop
      vertex 52 4.5 1
      vertex 53 4.5 0
      vertex 52 4.5 7.5
    endloop
  endfacet
  facet normal 0 -1 0
    outer loop
      vertex 45 4.5 0
      vertex 53 4.5 0
      vertex 45 4.5 1
    endloop
  endfacet
  facet normal 0 1 0
    outer loop
      vertex 52 7.5 1
      vertex 52 7.5 10
      vertex 53 7.5 10
    endloop
  endfacet
  facet normal 0 1 0
    outer loop
      vertex 52 7.5 1
      vertex 53 7.5 10
      vertex 53 7.5 0
    endloop
  endfacet
  facet normal 0 1 0
    outer loop
      vertex 52 7.5 1
      vertex 53 7.5 0
      vertex 34.5 7.5 1
    endloop
  endfacet
  facet normal 0 1 0
    outer loop
      vertex 53 7.5 0
      vertex 34.5 7.5 0
      vertex 34.5 7.5 1
    endloop
  endfacet
  facet normal 1 0 0
    outer loop
      vertex 34.5 16.5 0
      vertex 34.5 16.5 1
      vertex 34.5 7.5 1
    endloop
  endfacet
  facet normal 1 0 0
    outer loop
      vertex 34.5 7.5 0
      vertex 34.5 16.5 0
      vertex 34.5 7.5 1
    endloop
  endfacet
  facet normal 0 -1 0
    outer loop
      vertex 53 16.5 0
      vertex 53 16.5 10
      vertex 52 16.5 10
    endloop
  endfacet
  facet normal 0 -1 0
    outer loop
      vertex 34.5 16.5 1
      vertex 53 16.5 0
      vertex 52 16.5 1
    endloop
  endfacet
  facet normal 0 -1 0
    outer loop
      vertex 52 16.5 1
      vertex 53 16.5 0
      vertex 52 16.5 10
    endloop
  endfacet
  facet normal 0 -1 0
    outer loop
      vertex 34.5 16.5 0
      vertex 53 16.5 0
      vertex 34.5 16.5 1
    endloop
  endfacet
  facet normal 0.309017 -0.951056 0
    outer loop
      vertex -27.0365 -25.5734 0
      vertex -27.0365 -25.5734 1
      vertex -28.7135 -26.1183 1
    endloop
  endfacet
  facet normal 0.309017 -0.951056 0
    outer loop
      vertex -28.7135 -26.1183 0
      vertex -27.0365 -25.5734 0
      vertex -28.7135 -26.1183 1
    endloop
  endfacet
  facet normal 1 0 0
    outer loop
      vertex -28.7135 -26.1183 0
      vertex -28.7135 -26.1183 1
      vertex -28.7135 -27.8817 1
    endloop
  endfacet
  facet normal 1 0 0
    outer loop
      vertex -28.7135 -27.8817 0
      vertex -28.7135 -26.1183 0
      vertex -28.7135 -27.8817 1
    endloop
  endfacet
  facet normal -0.809017 -0.587785 0
    outer loop
      vertex -26 -27 1
      vertex -27.0365 -25.5734 1
      vertex -26 -27 0
    endloop
  endfacet
  facet normal -0.809017 -0.587785 0
    outer loop
      vertex -26 -27 0
      vertex -27.0365 -25.5734 1
      vertex -27.0365 -25.5734 0
    endloop
  endfacet
  facet normal -0.809017 0.587785 0
    outer loop
      vertex -26 -27 1
      vertex -26 -27 0
      vertex -27.0365 -28.4266 1
    endloop
  endfacet
  facet normal -0.809017 0.587785 0
    outer loop
      vertex -27.0365 -28.4266 1
      vertex -26 -27 0
      vertex -27.0365 -28.4266 0
    endloop
  endfacet
  facet normal 0.309017 0.951056 0
    outer loop
      vertex -27.0365 -28.4266 1
      vertex -27.0365 -28.4266 0
      vertex -28.7135 -27.8817 1
    endloop
  endfacet
  facet normal 0.309017 0.951056 0
    outer loop
      vertex -28.7135 -27.8817 1
      vertex -27.0365 -28.4266 0
      vertex -28.7135 -27.8817 0
    endloop
  endfacet
  facet normal 1 0 0
    outer loop
      vertex -28.7135 26.8817 0
      vertex -28.7135 26.8817 1
      vertex -28.7135 25.1183 1
    endloop
  endfacet
  facet normal 1 0 0
    outer loop
      vertex -28.7135 25.1183 0
      vertex -28.7135 26.8817 0
      vertex -28.7135 25.1183 1
    endloop
  endfacet
  facet normal 0.309017 -0.951056 0
    outer loop
      vertex -27.0365 27.4266 0
      vertex -27.0365 27.4266 1
      vertex -28.7135 26.8817 1
    endloop
  endfacet
  facet normal 0.309017 -0.951056 0
    outer loop
      vertex -28.7135 26.8817 0
      vertex -27.0365 27.4266 0
      vertex -28.7135 26.8817 1
    endloop
  endfacet
  facet normal -0.809017 -0.587785 0
    outer loop
      vertex -26 26 1
      vertex -27.0365 27.4266 1
      vertex -26 26 0
    endloop
  endfacet
  facet normal -0.809017 -0.587785 0
    outer loop
      vertex -26 26 0
      vertex -27.0365 27.4266 1
      vertex -27.0365 27.4266 0
    endloop
  endfacet
  facet normal -0.809017 0.587785 0
    outer loop
      vertex -26 26 1
      vertex -26 26 0
      vertex -27.0365 24.5734 1
    endloop
  endfacet
  facet normal -0.809017 0.587785 0
    outer loop
      vertex -27.0365 24.5734 1
      vertex -26 26 0
      vertex -27.0365 24.5734 0
    endloop
  endfacet
  facet normal 0.309017 0.951056 0
    outer loop
      vertex -27.0365 24.5734 1
      vertex -27.0365 24.5734 0
      vertex -28.7135 25.1183 1
    endloop
  endfacet
  facet normal 0.309017 0.951056 0
    outer loop
      vertex -28.7135 25.1183 1
      vertex -27.0365 24.5734 0
      vertex -28.7135 25.1183 0
    endloop
  endfacet
  facet normal 1 0 0
    outer loop
      vertex -6.5 -24 0
      vertex -6.5 -24 1
      vertex -6.5 -30 1
    endloop
  endfacet
  facet normal 1 0 0
    outer loop
      vertex -6.5 -30 0
      vertex -6.5 -24 0
      vertex -6.5 -30 1
    endloop
  endfacet
  facet normal 0 -1 0
    outer loop
      vertex 43.5 -24 0
      vertex 43.5 -24 1
      vertex -6.5 -24 1
    endloop
  endfacet
  facet normal 0 -1 0
    outer loop
      vertex -6.5 -24 0
      vertex 43.5 -24 0
      vertex -6.5 -24 1
    endloop
  endfacet
  facet normal -1 0 0
    outer loop
      vertex 43.5 -24 1
      vertex 43.5 -24 0
      vertex 43.5 -30 1
    endloop
  endfacet
  facet normal -1 0 0
    outer loop
      vertex 43.5 -30 1
      vertex 43.5 -24 0
      vertex 43.5 -30 0
    endloop
  endfacet
  facet normal 0 1 0
    outer loop
      vertex 43.5 -30 1
      vertex 43.5 -30 0
      vertex -6.5 -30 1
    endloop
  endfacet
  facet normal 0 1 0
    outer loop
      vertex -6.5 -30 1
      vertex 43.5 -30 0
      vertex -6.5 -30 0
    endloop
  endfacet
  facet normal 1 0 0
    outer loop
      vertex -6.5 30 0
      vertex -6.5 30 1
      vertex -6.5 24 1
    endloop
  endfacet
  facet normal 1 0 0
    outer loop
      vertex -6.5 24 0
      vertex -6.5 30 0
      vertex -6.5 24 1
    endloop
  endfacet
  facet normal 0 -1 0
    outer loop
      vertex 43.5 30 0
      vertex 43.5 30 1
      vertex -6.5 30 1
    endloop
  endfacet
  facet normal 0 -1 0
    outer loop
      vertex -6.5 30 0
      vertex 43.5 30 0
      vertex -6.5 30 1
    endloop
  endfacet
  facet normal -1 0 0
    outer loop
      vertex 43.5 30 1
      vertex 43.5 30 0
      vertex 43.5 24 1
    endloop
  endfacet
  facet normal -1 0 0
    outer loop
      vertex 43.5 24 1
      vertex 43.5 30 0
      vertex 43.5 24 0
    endloop
  endfacet
  facet normal 0 1 0
    outer loop
      vertex 43.5 24 1
      vertex 43.5 24 0
      vertex -6.5 24 1
    endloop
  endfacet
  facet normal 0 1 0
    outer loop
      vertex -6.5 24 1
      vertex 43.5 24 0
      vertex -6.5 24 0
    endloop
  endfacet
  facet normal 1 0 0
    outer loop
      vertex 45.0865 -26.1183 0
      vertex 45.0865 -26.1183 1
      vertex 45.0865 -27.8817 1
    endloop
  endfacet
  facet normal 1 0 0
    outer loop
      vertex 45.0865 -27.8817 0
      vertex 45.0865 -26.1183 0
      vertex 45.0865 -27.8817 1
    endloop
  endfacet
  facet normal 0.309017 -0.951056 0
    outer loop
      vertex 46.7635 -25.5734 0
      vertex 46.7635 -25.5734 1
      vertex 45.0865 -26.1183 1
    endloop
  endfacet
  facet normal 0.309017 -0.951056 0
    outer loop
      vertex 45.0865 -26.1183 0
      vertex 46.7635 -25.5734 0
      vertex 45.0865 -26.1183 1
    endloop
  endfacet
  facet normal -0.809017 -0.587785 0
    outer loop
      vertex 47.8 -27 1
      vertex 46.7635 -25.5734 1
      vertex 47.8 -27 0
    endloop
  endfacet
  facet normal -0.809017 -0.587785 0
    outer loop
      vertex 47.8 -27 0
      vertex 46.7635 -25.5734 1
      vertex 46.7635 -25.5734 0
    endloop
  endfacet
  facet normal -0.809017 0.587785 0
    outer loop
      vertex 47.8 -27 1
      vertex 47.8 -27 0
      vertex 46.7635 -28.4266 1
    endloop
  endfacet
  facet normal -0.809017 0.587785 0
    outer loop
      vertex 46.7635 -28.4266 1
      vertex 47.8 -27 0
      vertex 46.7635 -28.4266 0
    endloop
  endfacet
  facet normal 0.309017 0.951056 0
    outer loop
      vertex 46.7635 -28.4266 1
      vertex 46.7635 -28.4266 0
      vertex 45.0865 -27.8817 1
    endloop
  endfacet
  facet normal 0.309017 0.951056 0
    outer loop
      vertex 45.0865 -27.8817 1
      vertex 46.7635 -28.4266 0
      vertex 45.0865 -27.8817 0
    endloop
  endfacet
  facet normal 1 0 0
    outer loop
      vertex 45.0865 26.8817 0
      vertex 45.0865 26.8817 1
      vertex 45.0865 25.1183 1
    endloop
  endfacet
  facet normal 1 0 0
    outer loop
      vertex 45.0865 25.1183 0
      vertex 45.0865 26.8817 0
      vertex 45.0865 25.1183 1
    endloop
  endfacet
  facet normal 0.309017 -0.951056 0
    outer loop
      vertex 46.7635 27.4266 0
      vertex 46.7635 27.4266 1
      vertex 45.0865 26.8817 1
    endloop
  endfacet
  facet normal 0.309017 -0.951056 0
    outer loop
      vertex 45.0865 26.8817 0
      vertex 46.7635 27.4266 0
      vertex 45.0865 26.8817 1
    endloop
  endfacet
  facet normal -0.809017 -0.587785 0
    outer loop
      vertex 47.8 26 1
      vertex 46.7635 27.4266 1
      vertex 47.8 26 0
    endloop
  endfacet
  facet normal -0.809017 -0.587785 0
    outer loop
      vertex 47.8 26 0
      vertex 46.7635 27.4266 1
      vertex 46.7635 27.4266 0
    endloop
  endfacet
  facet normal -0.809017 0.587785 0
    outer loop
      vertex 47.8 26 1
      vertex 47.8 26 0
      vertex 46.7635 24.5734 1
    endloop
  endfacet
  facet normal -0.809017 0.587785 0
    outer loop
      vertex 46.7635 24.5734 1
      vertex 47.8 26 0
      vertex 46.7635 24.5734 0
    endloop
  endfacet
  facet normal 0.309017 0.951056 0
    outer loop
      vertex 46.7635 24.5734 1
      vertex 46.7635 24.5734 0
      vertex 45.0865 25.1183 1
    endloop
  endfacet
  facet normal 0.309017 0.951056 0
    outer loop
      vertex 45.0865 25.1183 1
      vertex 46.7635 24.5734 0
      vertex 45.0865 25.1183 0
    endloop
  endfacet
  facet normal 1 0 0
    outer loop
      vertex -38 32 1
      vertex -38 32 14.5
      vertex -38 31 14.5
    endloop
  endfacet
  facet normal 1 0 0
    outer loop
      vertex -38 31 1
      vertex -38 32 1
      vertex -38 31 14.5
    endloop
  endfacet
  facet normal 0 0 -1
    outer loop
      vertex -31 32 14.5
      vertex -31 31 14.5
      vertex -38 32 14.5
    endloop
  endfacet
  facet normal 0 0 -1
    outer loop
      vertex -38 32 14.5
      vertex -31 31 14.5
      vertex -38 31 14.5
    endloop
  endfacet
  facet normal -1 0 0
    outer loop
      vertex -31 32 14.5
      vertex -31 32 1
      vertex -31 31 14.5
    endloop
  endfacet
  facet normal -1 0 0
    outer loop
      vertex -31 31 14.5
      vertex -31 32 1
      vertex -31 31 1
    endloop
  endfacet
  facet normal 1 0 0
    outer loop
      vertex -52 -31 21
      vertex -52 -31 1
      vertex -52 -11.5 1
    endloop
  endfacet
  facet normal 1 0 0
    outer loop
      vertex -52 5.5 9
      vertex -52 -31 21
      vertex -52 -11.5 9
    endloop
  endfacet
  facet normal 1 0 0
    outer loop
      vertex -52 -11.5 9
      vertex -52 -31 21
      vertex -52 -11.5 1
    endloop
  endfacet
  facet normal 1 0 0
    outer loop
      vertex -52 14 7
      vertex -52 -31 21
      vertex -52 5.5 9
    endloop
  endfacet
  facet normal 1 0 0
    outer loop
      vertex -52 14 7
      vertex -52 5.5 9
      vertex -52 5.5 7
    endloop
  endfacet
  facet normal 1 0 0
    outer loop
      vertex -52 19.5 10
      vertex -52 -31 21
      vertex -52 14 7
    endloop
  endfacet
  facet normal 1 0 0
    outer loop
      vertex -52 14.5 1
      vertex -52 14 7
      vertex -52 14 1
    endloop
  endfacet
  facet normal 1 0 0
    outer loop
      vertex -52 19.5 1
      vertex -52 14 7
      vertex -52 14.5 1
    endloop
  endfacet
  facet normal 1 0 0
    outer loop
      vertex -52 19.5 10
      vertex -52 14 7
      vertex -52 19.5 1
    endloop
  endfacet
  facet normal 1 0 0
    outer loop
      vertex -52 28.5 10
      vertex -52 -31 21
      vertex -52 19.5 10
    endloop
  endfacet
  facet normal 1 0 0
    outer loop
      vertex -52 31 21
      vertex -52 -31 21
      vertex -52 28.5 10
    endloop
  endfacet
  facet normal 1 0 0
    outer loop
      vertex -52 31 1
      vertex -52 28.5 10
      vertex -52 28.5 1
    endloop
  endfacet
  facet normal 1 0 0
    outer loop
      vertex -52 31 21
      vertex -52 28.5 10
      vertex -52 31 1
    endloop
  endfacet
  facet normal 0 1 0
    outer loop
      vertex -52 -31 1
      vertex -52 -31 21
      vertex -47 -31 1
    endloop
  endfacet
  facet normal 0 1 0
    outer loop
      vertex -7 -31 19.5
      vertex -52 -31 21
      vertex 52 -31 21
    endloop
  endfacet
  facet normal 0 1 0
    outer loop
      vertex -7 -31 1
      vertex 52 -31 21
      vertex 52 -31 1
    endloop
  endfacet
  facet normal 0 1 0
    outer loop
      vertex -23 -31 19.5
      vertex -52 -31 21
      vertex -7 -31 19.5
    endloop
  endfacet
  facet normal 0 1 0
    outer loop
      vertex -47 -31 7
      vertex -52 -31 21
      vertex -23 -31 19.5
    endloop
  endfacet
  facet normal 0 1 0
    outer loop
      vertex -23 -31 1
      vertex -30 -31 7
      vertex -23 -31 19.5
    endloop
  endfacet
  facet normal 0 1 0
    outer loop
      vertex -47 -31 1
      vertex -52 -31 21
      vertex -47 -31 7
    endloop
  endfacet
  facet normal 0 1 0
    outer loop
      vertex -7 -31 19.5
      vertex 52 -31 21
      vertex -7 -31 1
    endloop
  endfacet
  facet normal 0 1 0
    outer loop
      vertex -23 -31 1
      vertex -30 -31 1
      vertex -30 -31 7
    endloop
  endfacet
  facet normal 0 1 0
    outer loop
      vertex -47 -31 7
      vertex -23 -31 19.5
      vertex -30 -31 7
    endloop
  endfacet
  facet normal -1 0 0
    outer loop
      vertex 52 -5 2.5
      vertex 52 -5 1
      vertex 52 -23.5 2.5
    endloop
  endfacet
  facet normal -1 0 0
    outer loop
      vertex 52 -5 17.5
      vertex 52 -31 21
      vertex 52 31 21
    endloop
  endfacet
  facet normal -1 0 0
    outer loop
      vertex 52 16.5 1
      vertex 52 31 21
      vertex 52 31 1
    endloop
  endfacet
  facet normal -1 0 0
    outer loop
      vertex 52 16.5 10
      vertex 52 31 21
      vertex 52 16.5 1
    endloop
  endfacet
  facet normal -1 0 0
    outer loop
      vertex 52 7.5 1
      vertex 52 4.5 7.5
      vertex 52 7.5 10
    endloop
  endfacet
  facet normal -1 0 0
    outer loop
      vertex 52 -5 7.5
      vertex 52 7.5 10
      vertex 52 4.5 7.5
    endloop
  endfacet
  facet normal -1 0 0
    outer loop
      vertex 52 7.5 1
      vertex 52 4.5 1
      vertex 52 4.5 7.5
    endloop
  endfacet
  facet normal -1 0 0
    outer loop
      vertex 52 -5 17.5
      vertex 52 7.5 10
      vertex 52 -5 7.5
    endloop
  endfacet
  facet normal -1 0 0
    outer loop
      vertex 52 -23.5 2.5
      vertex 52 -31 21
      vertex 52 -23.5 17.5
    endloop
  endfacet
  facet normal -1 0 0
    outer loop
      vertex 52 7.5 10
      vertex 52 -5 17.5
      vertex 52 31 21
    endloop
  endfacet
  facet normal -1 0 0
    outer loop
      vertex 52 -31 1
      vertex 52 -31 21
      vertex 52 -23.5 2.5
    endloop
  endfacet
  facet normal -1 0 0
    outer loop
      vertex 52 -31 1
      vertex 52 -23.5 2.5
      vertex 52 -5 1
    endloop
  endfacet
  facet normal -1 0 0
    outer loop
      vertex 52 -23.5 17.5
      vertex 52 -31 21
      vertex 52 -5 17.5
    endloop
  endfacet
  facet normal -1 0 0
    outer loop
      vertex 52 7.5 10
      vertex 52 31 21
      vertex 52 16.5 10
    endloop
  endfacet
  facet normal 0 -1 0
    outer loop
      vertex -52 31 21
      vertex -52 31 1
      vertex -38 31 1
    endloop
  endfacet
  facet normal 0 -1 0
    outer loop
      vertex -31 31 14.5
      vertex -52 31 21
      vertex -38 31 14.5
    endloop
  endfacet
  facet normal 0 -1 0
    outer loop
      vertex -38 31 14.5
      vertex -52 31 21
      vertex -38 31 1
    endloop
  endfacet
  facet normal 0 -1 0
    outer loop
      vertex 52 31 1
      vertex -52 31 21
      vertex -31 31 14.5
    endloop
  endfacet
  facet normal 0 -1 0
    outer loop
      vertex 52 31 1
      vertex -31 31 14.5
      vertex -31 31 1
    endloop
  endfacet
  facet normal 0 -1 0
    outer loop
      vertex 52 31 21
      vertex -52 31 21
      vertex 52 31 1
    endloop
  endfacet
  facet normal 0 0 -1
    outer loop
      vertex 53 16.5 10
      vertex 53 7.5 10
      vertex 52 16.5 10
    endloop
  endfacet
  facet normal 0 0 -1
    outer loop
      vertex 52 16.5 10
      vertex 53 7.5 10
      vertex 52 7.5 10
    endloop
  endfacet
  facet normal 0 0 -1
    outer loop
      vertex 53 4.5 7.5
      vertex 53 -5 7.5
      vertex 52 4.5 7.5
    endloop
  endfacet
  facet normal 0 0 -1
    outer loop
      vertex 52 4.5 7.5
      vertex 53 -5 7.5
      vertex 52 -5 7.5
    endloop
  endfacet
  facet normal 0 -1 0
    outer loop
      vertex 52 -5 17.5
      vertex 52 -5 7.5
      vertex 53 -5 7.5
    endloop
  endfacet
  facet normal 0 -1 0
    outer loop
      vertex 53 -5 17.5
      vertex 52 -5 17.5
      vertex 53 -5 7.5
    endloop
  endfacet
  facet normal 0 0 -1
    outer loop
      vertex 53 -5 17.5
      vertex 53 -23.5 17.5
      vertex 52 -5 17.5
    endloop
  endfacet
  facet normal 0 0 -1
    outer loop
      vertex 52 -5 17.5
      vertex 53 -23.5 17.5
      vertex 52 -23.5 17.5
    endloop
  endfacet
  facet normal 0 1 0
    outer loop
      vertex 53 -23.5 17.5
      vertex 53 -23.5 2.5
      vertex 52 -23.5 17.5
    endloop
  endfacet
  facet normal 0 1 0
    outer loop
      vertex 52 -23.5 17.5
      vertex 53 -23.5 2.5
      vertex 52 -23.5 2.5
    endloop
  endfacet
  facet normal 0 0 1
    outer loop
      vertex 53 -23.5 2.5
      vertex 53 -5 2.5
      vertex 52 -5 2.5
    endloop
  endfacet
  facet normal 0 0 1
    outer loop
      vertex 52 -23.5 2.5
      vertex 53 -23.5 2.5
      vertex 52 -5 2.5
    endloop
  endfacet
  facet normal -1 0 0
    outer loop
      vertex -53 37 0
      vertex -53 37 1
      vertex -53 101 0
    endloop
  endfacet
  facet normal -1 0 0
    outer loop
      vertex -53 101 0
      vertex -53 37 1
      vertex -53 101 1
    endloop
  endfacet
  facet normal 0 -1 0
    outer loop
      vertex -53 37 1
      vertex -53 37 0
      vertex 53 37 0
    endloop
  endfacet
  facet normal 0 -1 0
    outer loop
      vertex 53 37 1
      vertex -53 37 1
      vertex 53 37 0
    endloop
  endfacet
  facet normal 0 0 -1
    outer loop
      vertex -25 99 0
      vertex -53 101 0
      vertex 53 101 0
    endloop
  endfacet
  facet normal 0 0 -1
    outer loop
      vertex 45.0865 42.8817 0
      vertex -7 92.5 0
      vertex 46.7635 43.4266 0
    endloop
  endfacet
  facet normal 0 0 -1
    outer loop
      vertex -53 37 0
      vertex -53 101 0
      vertex -34 84.5 0
    endloop
  endfacet
  facet normal 0 0 -1
    outer loop
      vertex 47.8 42 0
      vertex 53 37 0
      vertex 46.7635 40.5734 0
    endloop
  endfacet
  facet normal 0 0 -1
    outer loop
      vertex -25 92.5 0
      vertex -26 95 0
      vertex -25 99 0
    endloop
  endfacet
  facet normal 0 0 -1
    outer loop
      vertex -26 42 0
      vertex 53 37 0
      vertex -27.0365 40.5734 0
    endloop
  endfacet
  facet normal 0 0 -1
    outer loop
      vertex -7 99 0
      vertex 53 101 0
      vertex -7 92.5 0
    endloop
  endfacet
  facet normal 0 0 -1
    outer loop
      vertex -53 37 0
      vertex -34 84.5 0
      vertex -28.7135 42.8817 0
    endloop
  endfacet
  facet normal 0 0 -1
    outer loop
      vertex -53 37 0
      vertex -28.7135 42.8817 0
      vertex -28.7135 41.1183 0
    endloop
  endfacet
  facet normal 0 0 -1
    outer loop
      vertex -53 37 0
      vertex -28.7135 41.1183 0
      vertex -27.0365 40.5734 0
    endloop
  endfacet
  facet normal 0 0 -1
    outer loop
      vertex -53 37 0
      vertex -27.0365 40.5734 0
      vertex 53 37 0
    endloop
  endfacet
  facet normal 0 0 -1
    outer loop
      vertex -27.0365 43.4266 0
      vertex 53 37 0
      vertex -26 42 0
    endloop
  endfacet
  facet normal 0 0 -1
    outer loop
      vertex -28.7135 42.8817 0
      vertex -34 84.5 0
      vertex -27.0365 43.4266 0
    endloop
  endfacet
  facet normal 0 0 -1
    outer loop
      vertex -7 92.5 0
      vertex -34 91 0
      vertex -25 92.5 0
    endloop
  endfacet
  facet normal 0 0 -1
    outer loop
      vertex -34 91 0
      vertex -53 101 0
      vertex -28.7135 95.8817 0
    endloop
  endfacet
  facet normal 0 0 -1
    outer loop
      vertex -26 95 0
      vertex -27.0365 96.4266 0
      vertex -25 99 0
    endloop
  endfacet
  facet normal 0 0 -1
    outer loop
      vertex -34 91 0
      vertex -28.7135 95.8817 0
      vertex -28.7135 94.1183 0
    endloop
  endfacet
  facet normal 0 0 -1
    outer loop
      vertex -34 91 0
      vertex -28.7135 94.1183 0
      vertex -27.0365 93.5734 0
    endloop
  endfacet
  facet normal 0 0 -1
    outer loop
      vertex -7 92.5 0
      vertex -25 91 0
      vertex -34 91 0
    endloop
  endfacet
  facet normal 0 0 -1
    outer loop
      vertex 46.7635 93.5734 0
      vertex 46.7635 43.4266 0
      vertex 45.0865 94.1183 0
    endloop
  endfacet
  facet normal 0 0 -1
    outer loop
      vertex -28.7135 95.8817 0
      vertex -53 101 0
      vertex -27.0365 96.4266 0
    endloop
  endfacet
  facet normal 0 0 -1
    outer loop
      vertex -25 92.5 0
      vertex -27.0365 93.5734 0
      vertex -26 95 0
    endloop
  endfacet
  facet normal 0 0 -1
    outer loop
      vertex -27.0365 96.4266 0
      vertex -53 101 0
      vertex -25 99 0
    endloop
  endfacet
  facet normal 0 0 -1
    outer loop
      vertex -7 99 0
      vertex -25 99 0
      vertex 53 101 0
    endloop
  endfacet
  facet normal 0 0 -1
    outer loop
      vertex -34 91 0
      vertex -27.0365 93.5734 0
      vertex -25 92.5 0
    endloop
  endfacet
  facet normal 0 0 -1
    outer loop
      vertex 45.0865 42.8817 0
      vertex -25 91 0
      vertex -7 92.5 0
    endloop
  endfacet
  facet normal 0 0 -1
    outer loop
      vertex 45.0865 95.8817 0
      vertex -7 92.5 0
      vertex 53 101 0
    endloop
  endfacet
  facet normal 0 0 -1
    outer loop
      vertex 46.7635 40.5734 0
      vertex 53 37 0
      vertex 45.0865 41.1183 0
    endloop
  endfacet
  facet normal 0 0 -1
    outer loop
      vertex 45.0865 41.1183 0
      vertex -34 84.5 0
      vertex -25 84.5 0
    endloop
  endfacet
  facet normal 0 0 -1
    outer loop
      vertex -27.0365 43.4266 0
      vertex -34 84.5 0
      vertex 45.0865 41.1183 0
    endloop
  endfacet
  facet normal 0 0 -1
    outer loop
      vertex -27.0365 43.4266 0
      vertex 45.0865 41.1183 0
      vertex 53 37 0
    endloop
  endfacet
  facet normal 0 0 -1
    outer loop
      vertex 45.0865 41.1183 0
      vertex -25 84.5 0
      vertex -25 91 0
    endloop
  endfacet
  facet normal 0 0 -1
    outer loop
      vertex 53 37 0
      vertex 47.8 42 0
      vertex 53 101 0
    endloop
  endfacet
  facet normal 0 0 -1
    outer loop
      vertex 45.0865 41.1183 0
      vertex -25 91 0
      vertex 45.0865 42.8817 0
    endloop
  endfacet
  facet normal 0 0 -1
    outer loop
      vertex 47.8 42 0
      vertex 46.7635 43.4266 0
      vertex 53 101 0
    endloop
  endfacet
  facet normal 0 0 -1
    outer loop
      vertex 45.0865 94.1183 0
      vertex -7 92.5 0
      vertex 45.0865 95.8817 0
    endloop
  endfacet
  facet normal 0 0 -1
    outer loop
      vertex 46.7635 96.4266 0
      vertex 45.0865 95.8817 0
      vertex 53 101 0
    endloop
  endfacet
  facet normal 0 0 -1
    outer loop
      vertex 46.7635 43.4266 0
      vertex -7 92.5 0
      vertex 45.0865 94.1183 0
    endloop
  endfacet
  facet normal 0 0 -1
    outer loop
      vertex 46.7635 43.4266 0
      vertex 46.7635 93.5734 0
      vertex 53 101 0
    endloop
  endfacet
  facet normal 0 0 -1
    outer loop
      vertex 46.7635 93.5734 0
      vertex 47.8 95 0
      vertex 53 101 0
    endloop
  endfacet
  facet normal 0 0 -1
    outer loop
      vertex 47.8 95 0
      vertex 46.7635 96.4266 0
      vertex 53 101 0
    endloop
  endfacet
  facet normal 0 0 -1
    outer loop
      vertex -34 84.5 0
      vertex -53 101 0
      vertex -34 91 0
    endloop
  endfacet
  facet normal 0 1 0
    outer loop
      vertex -53 101 0
      vertex -53 101 1
      vertex 53 101 0
    endloop
  endfacet
  facet normal 0 1 0
    outer loop
      vertex 53 101 0
      vertex -53 101 1
      vertex 53 101 1
    endloop
  endfacet
  facet normal 0 0 1
    outer loop
      vertex -27.0365 40.5734 1
      vertex -53 37 1
      vertex 53 37 1
    endloop
  endfacet
  facet normal 0 0 1
    outer loop
      vertex -7 92.5 1
      vertex -25 92.5 1
      vertex -34 91 1
    endloop
  endfacet
  facet normal 0 0 1
    outer loop
      vertex -53 101 1
      vertex -53 37 1
      vertex -34 84.5 1
    endloop
  endfacet
  facet normal 0 0 1
    outer loop
      vertex -27.0365 43.4266 1
      vertex -26 42 1
      vertex 53 37 1
    endloop
  endfacet
  facet normal 0 0 1
    outer loop
      vertex -28.7135 94.1183 1
      vertex -53 101 1
      vertex -34 91 1
    endloop
  endfacet
  facet normal 0 0 1
    outer loop
      vertex 46.7635 96.4266 1
      vertex 47.8 95 1
      vertex 53 101 1
    endloop
  endfacet
  facet normal 0 0 1
    outer loop
      vertex 45.0865 41.1183 1
      vertex -25 84.5 1
      vertex -34 84.5 1
    endloop
  endfacet
  facet normal 0 0 1
    outer loop
      vertex -34 84.5 1
      vertex -53 37 1
      vertex -28.7135 41.1183 1
    endloop
  endfacet
  facet normal 0 0 1
    outer loop
      vertex -26 42 1
      vertex -27.0365 40.5734 1
      vertex 53 37 1
    endloop
  endfacet
  facet normal 0 0 1
    outer loop
      vertex -34 84.5 1
      vertex -28.7135 41.1183 1
      vertex -28.7135 42.8817 1
    endloop
  endfacet
  facet normal 0 0 1
    outer loop
      vertex 45.0865 41.1183 1
      vertex -27.0365 43.4266 1
      vertex 53 37 1
    endloop
  endfacet
  facet normal 0 0 1
    outer loop
      vertex -34 84.5 1
      vertex -28.7135 42.8817 1
      vertex -27.0365 43.4266 1
    endloop
  endfacet
  facet normal 0 0 1
    outer loop
      vertex -28.7135 41.1183 1
      vertex -53 37 1
      vertex -27.0365 40.5734 1
    endloop
  endfacet
  facet normal 0 0 1
    outer loop
      vertex -27.0365 93.5734 1
      vertex -28.7135 94.1183 1
      vertex -34 91 1
    endloop
  endfacet
  facet normal 0 0 1
    outer loop
      vertex -28.7135 95.8817 1
      vertex -53 101 1
      vertex -28.7135 94.1183 1
    endloop
  endfacet
  facet normal 0 0 1
    outer loop
      vertex -27.0365 96.4266 1
      vertex -53 101 1
      vertex -28.7135 95.8817 1
    endloop
  endfacet
  facet normal 0 0 1
    outer loop
      vertex 45.0865 41.1183 1
      vertex -25 91 1
      vertex -25 84.5 1
    endloop
  endfacet
  facet normal 0 0 1
    outer loop
      vertex -25 99 1
      vertex -53 101 1
      vertex -27.0365 96.4266 1
    endloop
  endfacet
  facet normal 0 0 1
    outer loop
      vertex -7 92.5 1
      vertex -34 91 1
      vertex -25 91 1
    endloop
  endfacet
  facet normal 0 0 1
    outer loop
      vertex -25 92.5 1
      vertex -27.0365 93.5734 1
      vertex -34 91 1
    endloop
  endfacet
  facet normal 0 0 1
    outer loop
      vertex 46.7635 40.5734 1
      vertex 45.0865 41.1183 1
      vertex 53 37 1
    endloop
  endfacet
  facet normal 0 0 1
    outer loop
      vertex 45.0865 41.1183 1
      vertex 45.0865 42.8817 1
      vertex -25 91 1
    endloop
  endfacet
  facet normal 0 0 1
    outer loop
      vertex 53 101 1
      vertex -53 101 1
      vertex -25 99 1
    endloop
  endfacet
  facet normal 0 0 1
    outer loop
      vertex -7 99 1
      vertex -7 92.5 1
      vertex 53 101 1
    endloop
  endfacet
  facet normal 0 0 1
    outer loop
      vertex 53 101 1
      vertex -25 99 1
      vertex -7 99 1
    endloop
  endfacet
  facet normal 0 0 1
    outer loop
      vertex 47.8 42 1
      vertex 46.7635 40.5734 1
      vertex 53 37 1
    endloop
  endfacet
  facet normal 0 0 1
    outer loop
      vertex -25 92.5 1
      vertex -26 95 1
      vertex -27.0365 93.5734 1
    endloop
  endfacet
  facet normal 0 0 1
    outer loop
      vertex -34 84.5 1
      vertex -27.0365 43.4266 1
      vertex 45.0865 41.1183 1
    endloop
  endfacet
  facet normal 0 0 1
    outer loop
      vertex -7 92.5 1
      vertex -25 91 1
      vertex 45.0865 42.8817 1
    endloop
  endfacet
  facet normal 0 0 1
    outer loop
      vertex 53 101 1
      vertex 46.7635 43.4266 1
      vertex 53 37 1
    endloop
  endfacet
  facet normal 0 0 1
    outer loop
      vertex 45.0865 94.1183 1
      vertex -7 92.5 1
      vertex 46.7635 43.4266 1
    endloop
  endfacet
  facet normal 0 0 1
    outer loop
      vertex 46.7635 43.4266 1
      vertex 47.8 42 1
      vertex 53 37 1
    endloop
  endfacet
  facet normal 0 0 1
    outer loop
      vertex -34 84.5 1
      vertex -34 91 1
      vertex -53 101 1
    endloop
  endfacet
  facet normal 0 0 1
    outer loop
      vertex 46.7635 93.5734 1
      vertex 45.0865 94.1183 1
      vertex 46.7635 43.4266 1
    endloop
  endfacet
  facet normal 0 0 1
    outer loop
      vertex 45.0865 95.8817 1
      vertex -7 92.5 1
      vertex 45.0865 94.1183 1
    endloop
  endfacet
  facet normal 0 0 1
    outer loop
      vertex 53 101 1
      vertex -7 92.5 1
      vertex 45.0865 95.8817 1
    endloop
  endfacet
  facet normal 0 0 1
    outer loop
      vertex 53 101 1
      vertex 45.0865 95.8817 1
      vertex 46.7635 96.4266 1
    endloop
  endfacet
  facet normal 0 0 1
    outer loop
      vertex 53 101 1
      vertex 47.8 95 1
      vertex 46.7635 43.4266 1
    endloop
  endfacet
  facet normal 0 0 1
    outer loop
      vertex 47.8 95 1
      vertex 46.7635 93.5734 1
      vertex 46.7635 43.4266 1
    endloop
  endfacet
  facet normal 0 0 1
    outer loop
      vertex 45.0865 42.8817 1
      vertex 46.7635 43.4266 1
      vertex -7 92.5 1
    endloop
  endfacet
  facet normal 0 0 1
    outer loop
      vertex -26 95 1
      vertex -25 99 1
      vertex -27.0365 96.4266 1
    endloop
  endfacet
  facet normal 0 0 1
    outer loop
      vertex -25 92.5 1
      vertex -25 99 1
      vertex -26 95 1
    endloop
  endfacet
  facet normal 1 0 0
    outer loop
      vertex 53 37 1
      vertex 53 37 0
      vertex 53 101 0
    endloop
  endfacet
  facet normal 1 0 0
    outer loop
      vertex 53 101 1
      vertex 53 37 1
      vertex 53 101 0
    endloop
  endfacet
  facet normal 1 0 0
    outer loop
      vertex -34 91 0
      vertex -34 91 1
      vertex -34 84.5 1
    endloop
  endfacet
  facet normal 1 0 0
    outer loop
      vertex -34 84.5 0
      vertex -34 91 0
      vertex -34 84.5 1
    endloop
  endfacet
  facet normal 0 -1 0
    outer loop
      vertex -25 91 0
      vertex -25 91 1
      vertex -34 91 1
    endloop
  endfacet
  facet normal 0 -1 0
    outer loop
      vertex -34 91 0
      vertex -25 91 0
      vertex -34 91 1
    endloop
  endfacet
  facet normal -1 0 0
    outer loop
      vertex -25 91 1
      vertex -25 91 0
      vertex -25 84.5 1
    endloop
  endfacet
  facet normal -1 0 0
    outer loop
      vertex -25 84.5 1
      vertex -25 91 0
      vertex -25 84.5 0
    endloop
  endfacet
  facet normal 0 1 0
    outer loop
      vertex -25 84.5 1
      vertex -25 84.5 0
      vertex -34 84.5 1
    endloop
  endfacet
  facet normal 0 1 0
    outer loop
      vertex -34 84.5 1
      vertex -25 84.5 0
      vertex -34 84.5 0
    endloop
  endfacet
  facet normal 0.309017 -0.951056 0
    outer loop
      vertex -27.0365 43.4266 0
      vertex -27.0365 43.4266 1
      vertex -28.7135 42.8817 1
    endloop
  endfacet
  facet normal 0.309017 -0.951056 0
    outer loop
      vertex -28.7135 42.8817 0
      vertex -27.0365 43.4266 0
      vertex -28.7135 42.8817 1
    endloop
  endfacet
  facet normal 1 0 0
    outer loop
      vertex -28.7135 42.8817 0
      vertex -28.7135 42.8817 1
      vertex -28.7135 41.1183 1
    endloop
  endfacet
  facet normal 1 0 0
    outer loop
      vertex -28.7135 41.1183 0
      vertex -28.7135 42.8817 0
      vertex -28.7135 41.1183 1
    endloop
  endfacet
  facet normal -0.809017 -0.587785 0
    outer loop
      vertex -26 42 1
      vertex -27.0365 43.4266 1
      vertex -26 42 0
    endloop
  endfacet
  facet normal -0.809017 -0.587785 0
    outer loop
      vertex -26 42 0
      vertex -27.0365 43.4266 1
      vertex -27.0365 43.4266 0
    endloop
  endfacet
  facet normal -0.809017 0.587785 0
    outer loop
      vertex -26 42 1
      vertex -26 42 0
      vertex -27.0365 40.5734 1
    endloop
  endfacet
  facet normal -0.809017 0.587785 0
    outer loop
      vertex -27.0365 40.5734 1
      vertex -26 42 0
      vertex -27.0365 40.5734 0
    endloop
  endfacet
  facet normal 0.309017 0.951056 0
    outer loop
      vertex -27.0365 40.5734 1
      vertex -27.0365 40.5734 0
      vertex -28.7135 41.1183 1
    endloop
  endfacet
  facet normal 0.309017 0.951056 0
    outer loop
      vertex -28.7135 41.1183 1
      vertex -27.0365 40.5734 0
      vertex -28.7135 41.1183 0
    endloop
  endfacet
  facet normal 0.309017 -0.951056 0
    outer loop
      vertex -27.0365 96.4266 0
      vertex -27.0365 96.4266 1
      vertex -28.7135 95.8817 1
    endloop
  endfacet
  facet normal 0.309017 -0.951056 0
    outer loop
      vertex -28.7135 95.8817 0
      vertex -27.0365 96.4266 0
      vertex -28.7135 95.8817 1
    endloop
  endfacet
  facet normal 1 0 0
    outer loop
      vertex -28.7135 95.8817 0
      vertex -28.7135 95.8817 1
      vertex -28.7135 94.1183 1
    endloop
  endfacet
  facet normal 1 0 0
    outer loop
      vertex -28.7135 94.1183 0
      vertex -28.7135 95.8817 0
      vertex -28.7135 94.1183 1
    endloop
  endfacet
  facet normal -0.809017 -0.587785 0
    outer loop
      vertex -26 95 1
      vertex -27.0365 96.4266 1
      vertex -26 95 0
    endloop
  endfacet
  facet normal -0.809017 -0.587785 0
    outer loop
      vertex -26 95 0
      vertex -27.0365 96.4266 1
      vertex -27.0365 96.4266 0
    endloop
  endfacet
  facet normal -0.809017 0.587785 0
    outer loop
      vertex -26 95 1
      vertex -26 95 0
      vertex -27.0365 93.5734 1
    endloop
  endfacet
  facet normal -0.809017 0.587785 0
    outer loop
      vertex -27.0365 93.5734 1
      vertex -26 95 0
      vertex -27.0365 93.5734 0
    endloop
  endfacet
  facet normal 0.309017 0.951056 0
    outer loop
      vertex -27.0365 93.5734 1
      vertex -27.0365 93.5734 0
      vertex -28.7135 94.1183 1
    endloop
  endfacet
  facet normal 0.309017 0.951056 0
    outer loop
      vertex -28.7135 94.1183 1
      vertex -27.0365 93.5734 0
      vertex -28.7135 94.1183 0
    endloop
  endfacet
  facet normal 1 0 0
    outer loop
      vertex -25 99 0
      vertex -25 99 1
      vertex -25 92.5 1
    endloop
  endfacet
  facet normal 1 0 0
    outer loop
      vertex -25 92.5 0
      vertex -25 99 0
      vertex -25 92.5 1
    endloop
  endfacet
  facet normal 0 -1 0
    outer loop
      vertex -7 99 0
      vertex -7 99 1
      vertex -25 99 1
    endloop
  endfacet
  facet normal 0 -1 0
    outer loop
      vertex -25 99 0
      vertex -7 99 0
      vertex -25 99 1
    endloop
  endfacet
  facet normal -1 0 0
    outer loop
      vertex -7 99 1
      vertex -7 99 0
      vertex -7 92.5 1
    endloop
  endfacet
  facet normal -1 0 0
    outer loop
      vertex -7 92.5 1
      vertex -7 99 0
      vertex -7 92.5 0
    endloop
  endfacet
  facet normal 0 1 0
    outer loop
      vertex -7 92.5 1
      vertex -7 92.5 0
      vertex -25 92.5 1
    endloop
  endfacet
  facet normal 0 1 0
    outer loop
      vertex -25 92.5 1
      vertex -7 92.5 0
      vertex -25 92.5 0
    endloop
  endfacet
  facet normal 1 0 0
    outer loop
      vertex 45.0865 42.8817 0
      vertex 45.0865 42.8817 1
      vertex 45.0865 41.1183 1
    endloop
  endfacet
  facet normal 1 0 0
    outer loop
      vertex 45.0865 41.1183 0
      vertex 45.0865 42.8817 0
      vertex 45.0865 41.1183 1
    endloop
  endfacet
  facet normal 0.309017 -0.951056 0
    outer loop
      vertex 46.7635 43.4266 0
      vertex 46.7635 43.4266 1
      vertex 45.0865 42.8817 1
    endloop
  endfacet
  facet normal 0.309017 -0.951056 0
    outer loop
      vertex 45.0865 42.8817 0
      vertex 46.7635 43.4266 0
      vertex 45.0865 42.8817 1
    endloop
  endfacet
  facet normal -0.809017 -0.587785 0
    outer loop
      vertex 47.8 42 1
      vertex 46.7635 43.4266 1
      vertex 47.8 42 0
    endloop
  endfacet
  facet normal -0.809017 -0.587785 0
    outer loop
      vertex 47.8 42 0
      vertex 46.7635 43.4266 1
      vertex 46.7635 43.4266 0
    endloop
  endfacet
  facet normal -0.809017 0.587785 0
    outer loop
      vertex 47.8 42 1
      vertex 47.8 42 0
      vertex 46.7635 40.5734 1
    endloop
  endfacet
  facet normal -0.809017 0.587785 0
    outer loop
      vertex 46.7635 40.5734 1
      vertex 47.8 42 0
      vertex 46.7635 40.5734 0
    endloop
  endfacet
  facet normal 0.309017 0.951056 0
    outer loop
      vertex 46.7635 40.5734 1
      vertex 46.7635 40.5734 0
      vertex 45.0865 41.1183 1
    endloop
  endfacet
  facet normal 0.309017 0.951056 0
    outer loop
      vertex 45.0865 41.1183 1
      vertex 46.7635 40.5734 0
      vertex 45.0865 41.1183 0
    endloop
  endfacet
  facet normal 1 0 0
    outer loop
      vertex 45.0865 95.8817 0
      vertex 45.0865 95.8817 1
      vertex 45.0865 94.1183 1
    endloop
  endfacet
  facet normal 1 0 0
    outer loop
      vertex 45.0865 94.1183 0
      vertex 45.0865 95.8817 0
      vertex 45.0865 94.1183 1
    endloop
  endfacet
  facet normal 0.309017 -0.951056 0
    outer loop
      vertex 46.7635 96.4266 0
      vertex 46.7635 96.4266 1
      vertex 45.0865 95.8817 1
    endloop
  endfacet
  facet normal 0.309017 -0.951056 0
    outer loop
      vertex 45.0865 95.8817 0
      vertex 46.7635 96.4266 0
      vertex 45.0865 95.8817 1
    endloop
  endfacet
  facet normal -0.809017 -0.587785 0
    outer loop
      vertex 47.8 95 1
      vertex 46.7635 96.4266 1
      vertex 47.8 95 0
    endloop
  endfacet
  facet normal -0.809017 -0.587785 0
    outer loop
      vertex 47.8 95 0
      vertex 46.7635 96.4266 1
      vertex 46.7635 96.4266 0
    endloop
  endfacet
  facet normal -0.809017 0.587785 0
    outer loop
      vertex 47.8 95 1
      vertex 47.8 95 0
      vertex 46.7635 93.5734 1
    endloop
  endfacet
  facet normal -0.809017 0.587785 0
    outer loop
      vertex 46.7635 93.5734 1
      vertex 47.8 95 0
      vertex 46.7635 93.5734 0
    endloop
  endfacet
  facet normal 0.309017 0.951056 0
    outer loop
      vertex 46.7635 93.5734 1
      vertex 46.7635 93.5734 0
      vertex 45.0865 94.1183 1
    endloop
  endfacet
  facet normal 0.309017 0.951056 0
    outer loop
      vertex 45.0865 94.1183 1
      vertex 46.7635 93.5734 0
      vertex 45.0865 94.1183 0
    endloop
  endfacet
endsolid OpenSCAD_Model
