solid OpenSCAD_Model
  facet normal -1 -1.77321e-016 6.10881e-032
    outer loop
      vertex -70 43.597 -5.33892e-015
      vertex -70 26.403 -3.23333e-015
      vertex -70 43.0902 0.877853
    endloop
  endfacet
  facet normal -1 -1.77321e-016 6.10881e-032
    outer loop
      vertex -70 43.0902 0.877853
      vertex -70 26.403 -3.23333e-015
      vertex -70 26.9098 0.877853
    endloop
  endfacet
  facet normal -1 -1.77321e-016 6.10881e-032
    outer loop
      vertex -70 43.0902 0.877853
      vertex -70 26.9098 0.877853
      vertex -70 28.3087 2.43145
    endloop
  endfacet
  facet normal -1 -1.77321e-016 6.10881e-032
    outer loop
      vertex -70 43.0902 0.877853
      vertex -70 28.3087 2.43145
      vertex -70 30 3.66025
    endloop
  endfacet
  facet normal -1 -1.77321e-016 6.10881e-032
    outer loop
      vertex -70 43.0902 0.877853
      vertex -70 30 3.66025
      vertex -70 31.9098 4.51056
    endloop
  endfacet
  facet normal -1 -1.77321e-016 6.10881e-032
    outer loop
      vertex -70 43.0902 0.877853
      vertex -70 31.9098 4.51056
      vertex -70 33.9547 4.94522
    endloop
  endfacet
  facet normal -1 -1.77321e-016 6.10881e-032
    outer loop
      vertex -70 43.0902 0.877853
      vertex -70 33.9547 4.94522
      vertex -70 36.0453 4.94522
    endloop
  endfacet
  facet normal -1 -1.77321e-016 6.10881e-032
    outer loop
      vertex -70 43.0902 0.877853
      vertex -70 36.0453 4.94522
      vertex -70 38.0902 4.51056
    endloop
  endfacet
  facet normal -1 -1.77321e-016 6.10881e-032
    outer loop
      vertex -70 43.0902 0.877853
      vertex -70 38.0902 4.51056
      vertex -70 40 3.66025
    endloop
  endfacet
  facet normal -1 -1.77321e-016 6.10881e-032
    outer loop
      vertex -70 43.0902 0.877853
      vertex -70 40 3.66025
      vertex -70 41.6913 2.43145
    endloop
  endfacet
  facet normal 0 -1.22461e-016 -1
    outer loop
      vertex -59.6013 44.8309 -5.49002e-015
      vertex -24 47.4197 -5.80705e-015
      vertex -66.0759 44.2092 -5.41389e-015
    endloop
  endfacet
  facet normal 0 -1.22461e-016 -1
    outer loop
      vertex -66.0759 44.2092 -5.41389e-015
      vertex -24 47.4197 -5.80705e-015
      vertex -22.012 47.4197 -5.80705e-015
    endloop
  endfacet
  facet normal 0 -1.22461e-016 -1
    outer loop
      vertex -66.0759 44.2092 -5.41389e-015
      vertex -22.012 47.4197 -5.80705e-015
      vertex -21.7476 45.4462 -5.56536e-015
    endloop
  endfacet
  facet normal 0 -1.22461e-016 -1
    outer loop
      vertex -66.0759 44.2092 -5.41389e-015
      vertex -21.7476 45.4462 -5.56536e-015
      vertex -20.375 42.701 -5.22919e-015
    endloop
  endfacet
  facet normal 0 -1.22461e-016 -1
    outer loop
      vertex -20.375 42.701 -5.22919e-015
      vertex -18.5 41.6962 -5.10614e-015
      vertex -66.0759 44.2092 -5.41389e-015
    endloop
  endfacet
  facet normal 0 -1.22461e-016 -1
    outer loop
      vertex -66.0759 44.2092 -5.41389e-015
      vertex -18.5 41.6962 -5.10614e-015
      vertex -18.5 39.9585 -4.89335e-015
    endloop
  endfacet
  facet normal 0 -1.22461e-016 -1
    outer loop
      vertex -18.5 39.9585 -4.89335e-015
      vertex -14.75 39.9585 -4.89335e-015
      vertex -14.75 31.6447 -3.87523e-015
    endloop
  endfacet
  facet normal 0 -1.22461e-016 -1
    outer loop
      vertex -18.5 39.9585 -4.89335e-015
      vertex -14.75 31.6447 -3.87523e-015
      vertex -66.0759 44.2092 -5.41389e-015
    endloop
  endfacet
  facet normal 0 -1.22461e-016 -1
    outer loop
      vertex 14.75 31.6447 -3.87523e-015
      vertex 14.75 39.9585 -4.89335e-015
      vertex 18.5 39.9585 -4.89335e-015
    endloop
  endfacet
  facet normal 0 -1.22461e-016 -1
    outer loop
      vertex 18.5 39.9585 -4.89335e-015
      vertex 18.5 41.6962 -5.10614e-015
      vertex 20.375 42.701 -5.22919e-015
    endloop
  endfacet
  facet normal 0 -1.22461e-016 -1
    outer loop
      vertex 18.5 39.9585 -4.89335e-015
      vertex 20.375 42.701 -5.22919e-015
      vertex 14.75 31.6447 -3.87523e-015
    endloop
  endfacet
  facet normal 0 -1.22461e-016 -1
    outer loop
      vertex 20.375 42.701 -5.22919e-015
      vertex 24 47.4197 -5.80705e-015
      vertex 14.75 31.6447 -3.87523e-015
    endloop
  endfacet
  facet normal 0 -1.22461e-016 -1
    outer loop
      vertex 21.7476 45.4462 -5.56536e-015
      vertex 22.012 47.4197 -5.80705e-015
      vertex 24 47.4197 -5.80705e-015
    endloop
  endfacet
  facet normal 0 -1.22461e-016 -1
    outer loop
      vertex 21.7476 45.4462 -5.56536e-015
      vertex 24 47.4197 -5.80705e-015
      vertex 20.375 42.701 -5.22919e-015
    endloop
  endfacet
  facet normal 0 -1.22461e-016 -1
    outer loop
      vertex 14.75 31.6447 -3.87523e-015
      vertex 24 47.4197 -5.80705e-015
      vertex 59.6013 44.8309 -5.49002e-015
    endloop
  endfacet
  facet normal 0 -1.22461e-016 -1
    outer loop
      vertex 14.75 31.6447 -3.87523e-015
      vertex 59.6013 44.8309 -5.49002e-015
      vertex 66.0759 44.2092 -5.41389e-015
    endloop
  endfacet
  facet normal 0 -1.22461e-016 -1
    outer loop
      vertex 14.75 31.6447 -3.87523e-015
      vertex 66.0759 44.2092 -5.41389e-015
      vertex 70 43.597 -5.33892e-015
    endloop
  endfacet
  facet normal 0 -1.22461e-016 -1
    outer loop
      vertex 14.75 31.6447 -3.87523e-015
      vertex 70 43.597 -5.33892e-015
      vertex 70 26.403 -3.23333e-015
    endloop
  endfacet
  facet normal 0 -1.22461e-016 -1
    outer loop
      vertex 14.75 31.6447 -3.87523e-015
      vertex 70 26.403 -3.23333e-015
      vertex -14.75 31.6447 -3.87523e-015
    endloop
  endfacet
  facet normal 0 -1.22461e-016 -1
    outer loop
      vertex -14.75 31.6447 -3.87523e-015
      vertex 70 26.403 -3.23333e-015
      vertex 58.4147 25.507 -3.1236e-015
    endloop
  endfacet
  facet normal 0 -1.22461e-016 -1
    outer loop
      vertex -14.75 31.6447 -3.87523e-015
      vertex 58.4147 25.507 -3.1236e-015
      vertex 47.8044 24.9461 -3.05491e-015
    endloop
  endfacet
  facet normal 0 -1.22461e-016 -1
    outer loop
      vertex -14.75 31.6447 -3.87523e-015
      vertex 47.8044 24.9461 -3.05491e-015
      vertex 24 24.1651 -2.95928e-015
    endloop
  endfacet
  facet normal 0 -1.22461e-016 -1
    outer loop
      vertex -14.75 31.6447 -3.87523e-015
      vertex 24 24.1651 -2.95928e-015
      vertex 15 24.1651 -2.95928e-015
    endloop
  endfacet
  facet normal 0 -1.22461e-016 -1
    outer loop
      vertex -14.75 31.6447 -3.87523e-015
      vertex 15 24.1651 -2.95928e-015
      vertex -66.0759 44.2092 -5.41389e-015
    endloop
  endfacet
  facet normal 0 -1.22461e-016 -1
    outer loop
      vertex -15 24.1651 -2.95928e-015
      vertex 15 24.1651 -2.95928e-015
      vertex 15 0 0
    endloop
  endfacet
  facet normal 0 -1.22461e-016 -1
    outer loop
      vertex 15 0 0
      vertex 15 -50 6.12303e-015
      vertex -15 0 0
    endloop
  endfacet
  facet normal 0 -1.22461e-016 -1
    outer loop
      vertex -66.0759 44.2092 -5.41389e-015
      vertex 15 24.1651 -2.95928e-015
      vertex -15 24.1651 -2.95928e-015
    endloop
  endfacet
  facet normal 0 -1.22461e-016 -1
    outer loop
      vertex -47.8044 24.9461 -3.05491e-015
      vertex -66.0759 44.2092 -5.41389e-015
      vertex -24 24.1651 -2.95928e-015
    endloop
  endfacet
  facet normal 0 -1.22461e-016 -1
    outer loop
      vertex -66.0759 44.2092 -5.41389e-015
      vertex -15 24.1651 -2.95928e-015
      vertex -24 24.1651 -2.95928e-015
    endloop
  endfacet
  facet normal 0 -1.22461e-016 -1
    outer loop
      vertex -15 24.1651 -2.95928e-015
      vertex 15 0 0
      vertex -15 0 0
    endloop
  endfacet
  facet normal 0 -1.22461e-016 -1
    outer loop
      vertex -58.4147 25.507 -3.1236e-015
      vertex -66.0759 44.2092 -5.41389e-015
      vertex -47.8044 24.9461 -3.05491e-015
    endloop
  endfacet
  facet normal 0 -1.22461e-016 -1
    outer loop
      vertex -66.0759 44.2092 -5.41389e-015
      vertex -58.4147 25.507 -3.1236e-015
      vertex -70 26.403 -3.23333e-015
    endloop
  endfacet
  facet normal 0 -1.22461e-016 -1
    outer loop
      vertex -66.0759 44.2092 -5.41389e-015
      vertex -70 26.403 -3.23333e-015
      vertex -70 43.597 -5.33892e-015
    endloop
  endfacet
  facet normal 0 -1.22461e-016 -1
    outer loop
      vertex -15 0 0
      vertex 15 -50 6.12303e-015
      vertex -15 -50 6.12303e-015
    endloop
  endfacet
  facet normal -0.133893 0.858228 0.495498
    outer loop
      vertex -70 43.597 -5.33892e-015
      vertex -70 43.0902 0.877853
      vertex -66.0759 44.2092 -5.41389e-015
    endloop
  endfacet
  facet normal -0.133893 0.858228 0.495498
    outer loop
      vertex -66.0759 44.2092 -5.41389e-015
      vertex -70 43.0902 0.877853
      vertex -24 45 10
    endloop
  endfacet
  facet normal -0.161403 0.733401 0.660358
    outer loop
      vertex -24 45 10
      vertex -70 43.0902 0.877853
      vertex -70 41.6913 2.43145
    endloop
  endfacet
  facet normal -0.172752 0.578948 0.796854
    outer loop
      vertex -24 45 10
      vertex -70 41.6913 2.43145
      vertex -70 40 3.66025
    endloop
  endfacet
  facet normal -0.167706 0.400976 0.900607
    outer loop
      vertex -24 45 10
      vertex -70 40 3.66025
      vertex -70 38.0902 4.51056
    endloop
  endfacet
  facet normal -0.146366 0.205673 0.967613
    outer loop
      vertex -24 45 10
      vertex -70 38.0902 4.51056
      vertex -70 36.0453 4.94522
    endloop
  endfacet
  facet normal -0.109229 3.42444e-016 0.994017
    outer loop
      vertex -24 45 10
      vertex -70 36.0453 4.94522
      vertex -24 35 10
    endloop
  endfacet
  facet normal -0.109229 3.23075e-016 0.994017
    outer loop
      vertex -24 35 10
      vertex -70 36.0453 4.94522
      vertex -70 33.9547 4.94522
    endloop
  endfacet
  facet normal -0.102222 -0.206823 0.973024
    outer loop
      vertex -24 35 10
      vertex -70 33.9547 4.94522
      vertex -70 31.9098 4.51056
    endloop
  endfacet
  facet normal -0.0814236 -0.405386 0.910512
    outer loop
      vertex -24 35 10
      vertex -70 31.9098 4.51056
      vertex -70 30 3.66025
    endloop
  endfacet
  facet normal -0.0475556 -0.58712 0.808102
    outer loop
      vertex -24 35 10
      vertex -70 30 3.66025
      vertex -70 28.3087 2.43145
    endloop
  endfacet
  facet normal -0.022245 -0.678061 0.734669
    outer loop
      vertex -24 35 10
      vertex -70 28.3087 2.43145
      vertex -47.8044 24.9461 -3.05491e-015
    endloop
  endfacet
  facet normal -0.022245 -0.678061 0.734669
    outer loop
      vertex -24 24.1651 -2.95928e-015
      vertex -24 35 10
      vertex -47.8044 24.9461 -3.05491e-015
    endloop
  endfacet
  facet normal -0.0392543 -0.742572 0.668615
    outer loop
      vertex -47.8044 24.9461 -3.05491e-015
      vertex -70 28.3087 2.43145
      vertex -70 26.9098 0.877853
    endloop
  endfacet
  facet normal -0.0392543 -0.742572 0.668615
    outer loop
      vertex -58.4147 25.507 -3.1236e-015
      vertex -47.8044 24.9461 -3.05491e-015
      vertex -70 26.9098 0.877853
    endloop
  endfacet
  facet normal -0.0668298 -0.864089 0.498882
    outer loop
      vertex -58.4147 25.507 -3.1236e-015
      vertex -70 26.9098 0.877853
      vertex -70 26.403 -3.23333e-015
    endloop
  endfacet
  facet normal -0.090939 0.947116 0.307736
    outer loop
      vertex -59.6013 44.8309 -5.49002e-015
      vertex -66.0759 44.2092 -5.41389e-015
      vertex -24 45 10
    endloop
  endfacet
  facet normal 0 -0.678229 0.734851
    outer loop
      vertex -11.0699 35 10
      vertex -24 35 10
      vertex -24 24.1651 -2.95928e-015
    endloop
  endfacet
  facet normal 0 -0.678229 0.734851
    outer loop
      vertex -12.1353 33.718 8.81678
      vertex -11.0699 35 10
      vertex -24 24.1651 -2.95928e-015
    endloop
  endfacet
  facet normal 0 -0.678229 0.734851
    outer loop
      vertex -15 24.1651 -2.95928e-015
      vertex -14.6722 27.5442 3.11867
      vertex -24 24.1651 -2.95928e-015
    endloop
  endfacet
  facet normal 0 -0.678229 0.734851
    outer loop
      vertex -14.6722 27.5442 3.11867
      vertex -13.7032 30.7755 6.10105
      vertex -24 24.1651 -2.95928e-015
    endloop
  endfacet
  facet normal 0 -0.678229 0.734851
    outer loop
      vertex -13.7032 30.7755 6.10105
      vertex -12.1353 33.718 8.81678
      vertex -24 24.1651 -2.95928e-015
    endloop
  endfacet
  facet normal -0.994522 3.60106e-017 0.104528
    outer loop
      vertex -15 0 0
      vertex -15 -50 1.72253e-014
      vertex -15 24.1651 -2.95928e-015
    endloop
  endfacet
  facet normal -0.994522 3.60106e-017 0.104528
    outer loop
      vertex -15 24.1651 -2.95928e-015
      vertex -15 -50 1.72253e-014
      vertex -14.6722 -50 3.11868
    endloop
  endfacet
  facet normal -0.994522 3.60106e-017 0.104528
    outer loop
      vertex -15 24.1651 -2.95928e-015
      vertex -14.6722 -50 3.11868
      vertex -14.6722 27.5442 3.11867
    endloop
  endfacet
  facet normal -0.994522 -3.60106e-017 -0.104528
    outer loop
      vertex -15 -50 1.72253e-014
      vertex -15 0 0
      vertex -15 -50 6.12303e-015
    endloop
  endfacet
  facet normal 0 -1 3.44505e-016
    outer loop
      vertex -14.6722 -50 3.11868
      vertex -15 -50 1.72253e-014
      vertex -15 -50 6.12303e-015
    endloop
  endfacet
  facet normal 0 -1 3.44505e-016
    outer loop
      vertex 15 -50 1.72253e-014
      vertex -14.6722 -50 3.11868
      vertex 15 -50 6.12303e-015
    endloop
  endfacet
  facet normal 0 -1 3.44505e-016
    outer loop
      vertex 15 -50 6.12303e-015
      vertex -14.6722 -50 3.11868
      vertex -15 -50 6.12303e-015
    endloop
  endfacet
  facet normal 0 -1 3.44505e-016
    outer loop
      vertex 14.6722 -50 3.11868
      vertex -14.6722 -50 3.11868
      vertex 15 -50 1.72253e-014
    endloop
  endfacet
  facet normal 0 -1 3.44505e-016
    outer loop
      vertex 13.7032 -50 6.10105
      vertex -14.6722 -50 3.11868
      vertex 14.6722 -50 3.11868
    endloop
  endfacet
  facet normal 0 -1 3.44505e-016
    outer loop
      vertex 12.1353 -50 8.81678
      vertex -14.6722 -50 3.11868
      vertex 13.7032 -50 6.10105
    endloop
  endfacet
  facet normal 0 -1 3.44505e-016
    outer loop
      vertex 10.037 -50 11.1472
      vertex -14.6722 -50 3.11868
      vertex 12.1353 -50 8.81678
    endloop
  endfacet
  facet normal 0 -1 3.44505e-016
    outer loop
      vertex 7.5 -50 12.9904
      vertex -14.6722 -50 3.11868
      vertex 10.037 -50 11.1472
    endloop
  endfacet
  facet normal 0 -1 3.44505e-016
    outer loop
      vertex 4.63525 -50 14.2658
      vertex -14.6722 -50 3.11868
      vertex 7.5 -50 12.9904
    endloop
  endfacet
  facet normal 0 -1 3.44505e-016
    outer loop
      vertex 1.56793 -50 14.9178
      vertex -14.6722 -50 3.11868
      vertex 4.63525 -50 14.2658
    endloop
  endfacet
  facet normal 0 -1 3.44505e-016
    outer loop
      vertex -1.56793 -50 14.9178
      vertex -14.6722 -50 3.11868
      vertex 1.56793 -50 14.9178
    endloop
  endfacet
  facet normal 0 -1 3.44505e-016
    outer loop
      vertex -4.63525 -50 14.2658
      vertex -14.6722 -50 3.11868
      vertex -1.56793 -50 14.9178
    endloop
  endfacet
  facet normal 0 -1 3.44505e-016
    outer loop
      vertex -7.5 -50 12.9904
      vertex -14.6722 -50 3.11868
      vertex -4.63525 -50 14.2658
    endloop
  endfacet
  facet normal 0 -1 3.44505e-016
    outer loop
      vertex -10.037 -50 11.1472
      vertex -14.6722 -50 3.11868
      vertex -7.5 -50 12.9904
    endloop
  endfacet
  facet normal 0 -1 3.44505e-016
    outer loop
      vertex -12.1353 -50 8.81678
      vertex -14.6722 -50 3.11868
      vertex -10.037 -50 11.1472
    endloop
  endfacet
  facet normal 0 -1 3.44505e-016
    outer loop
      vertex -13.7032 -50 6.10105
      vertex -14.6722 -50 3.11868
      vertex -12.1353 -50 8.81678
    endloop
  endfacet
  facet normal 0.994522 -3.60106e-017 -0.104528
    outer loop
      vertex 15 -50 1.72253e-014
      vertex 15 -50 6.12303e-015
      vertex 15 0 0
    endloop
  endfacet
  facet normal 0.994522 3.60106e-017 0.104528
    outer loop
      vertex 15 24.1651 -2.95928e-015
      vertex 14.6722 27.5442 3.11867
      vertex 14.6722 -50 3.11868
    endloop
  endfacet
  facet normal 0.994522 3.60106e-017 0.104528
    outer loop
      vertex 15 0 0
      vertex 15 24.1651 -2.95928e-015
      vertex 15 -50 1.72253e-014
    endloop
  endfacet
  facet normal 0.994522 3.60106e-017 0.104528
    outer loop
      vertex 15 -50 1.72253e-014
      vertex 15 24.1651 -2.95928e-015
      vertex 14.6722 -50 3.11868
    endloop
  endfacet
  facet normal 0 -0.678229 0.734851
    outer loop
      vertex 14.6722 27.5442 3.11867
      vertex 15 24.1651 -2.95928e-015
      vertex 24 35 10
    endloop
  endfacet
  facet normal 0 -0.678229 0.734851
    outer loop
      vertex 24 35 10
      vertex 11.0699 35 10
      vertex 12.1353 33.718 8.81678
    endloop
  endfacet
  facet normal 0 -0.678229 0.734851
    outer loop
      vertex 13.7032 30.7755 6.10105
      vertex 24 35 10
      vertex 12.1353 33.718 8.81678
    endloop
  endfacet
  facet normal 0 -0.678229 0.734851
    outer loop
      vertex 13.7032 30.7755 6.10105
      vertex 14.6722 27.5442 3.11867
      vertex 24 35 10
    endloop
  endfacet
  facet normal 0 -0.678229 0.734851
    outer loop
      vertex 15 24.1651 -2.95928e-015
      vertex 24 24.1651 -2.95928e-015
      vertex 24 35 10
    endloop
  endfacet
  facet normal 0.022245 -0.678061 0.734669
    outer loop
      vertex 70 28.3087 2.43145
      vertex 24 35 10
      vertex 24 24.1651 -2.95928e-015
    endloop
  endfacet
  facet normal 0.022245 -0.678061 0.734669
    outer loop
      vertex 47.8044 24.9461 -3.05491e-015
      vertex 70 28.3087 2.43145
      vertex 24 24.1651 -2.95928e-015
    endloop
  endfacet
  facet normal 0.0392543 -0.742572 0.668615
    outer loop
      vertex 70 28.3087 2.43145
      vertex 47.8044 24.9461 -3.05491e-015
      vertex 58.4147 25.507 -3.1236e-015
    endloop
  endfacet
  facet normal 0.0392543 -0.742572 0.668615
    outer loop
      vertex 70 26.9098 0.877853
      vertex 70 28.3087 2.43145
      vertex 58.4147 25.507 -3.1236e-015
    endloop
  endfacet
  facet normal 0.0668298 -0.864089 0.498882
    outer loop
      vertex 70 26.9098 0.877853
      vertex 58.4147 25.507 -3.1236e-015
      vertex 70 26.403 -3.23333e-015
    endloop
  endfacet
  facet normal 1 1.77321e-016 -6.10881e-032
    outer loop
      vertex 70 26.403 -3.23333e-015
      vertex 70 43.597 -5.33892e-015
      vertex 70 43.0902 0.877853
    endloop
  endfacet
  facet normal 1 1.77321e-016 -6.10881e-032
    outer loop
      vertex 70 40 3.66025
      vertex 70 26.403 -3.23333e-015
      vertex 70 41.6913 2.43145
    endloop
  endfacet
  facet normal 1 1.77321e-016 -6.10881e-032
    outer loop
      vertex 70 41.6913 2.43145
      vertex 70 26.403 -3.23333e-015
      vertex 70 43.0902 0.877853
    endloop
  endfacet
  facet normal 1 1.77321e-016 -6.10881e-032
    outer loop
      vertex 70 38.0902 4.51056
      vertex 70 26.403 -3.23333e-015
      vertex 70 40 3.66025
    endloop
  endfacet
  facet normal 1 1.77321e-016 -6.10881e-032
    outer loop
      vertex 70 36.0453 4.94522
      vertex 70 26.403 -3.23333e-015
      vertex 70 38.0902 4.51056
    endloop
  endfacet
  facet normal 1 1.77321e-016 -6.10881e-032
    outer loop
      vertex 70 33.9547 4.94522
      vertex 70 26.403 -3.23333e-015
      vertex 70 36.0453 4.94522
    endloop
  endfacet
  facet normal 1 1.77321e-016 -6.10881e-032
    outer loop
      vertex 70 31.9098 4.51056
      vertex 70 26.403 -3.23333e-015
      vertex 70 33.9547 4.94522
    endloop
  endfacet
  facet normal 1 1.77321e-016 -6.10881e-032
    outer loop
      vertex 70 30 3.66025
      vertex 70 26.403 -3.23333e-015
      vertex 70 31.9098 4.51056
    endloop
  endfacet
  facet normal 1 1.77321e-016 -6.10881e-032
    outer loop
      vertex 70 28.3087 2.43145
      vertex 70 26.403 -3.23333e-015
      vertex 70 30 3.66025
    endloop
  endfacet
  facet normal 1 1.77321e-016 -6.10881e-032
    outer loop
      vertex 70 26.9098 0.877853
      vertex 70 26.403 -3.23333e-015
      vertex 70 28.3087 2.43145
    endloop
  endfacet
  facet normal 0.133893 0.858228 0.495498
    outer loop
      vertex 24 45 10
      vertex 70 43.0902 0.877853
      vertex 66.0759 44.2092 -5.41389e-015
    endloop
  endfacet
  facet normal 0.133893 0.858228 0.495498
    outer loop
      vertex 66.0759 44.2092 -5.41389e-015
      vertex 70 43.0902 0.877853
      vertex 70 43.597 -5.33892e-015
    endloop
  endfacet
  facet normal 0.090939 0.947116 0.307736
    outer loop
      vertex 59.6013 44.8309 -5.49002e-015
      vertex 24 45 10
      vertex 66.0759 44.2092 -5.41389e-015
    endloop
  endfacet
  facet normal 0.0705019 0.969532 0.234598
    outer loop
      vertex 59.6013 44.8309 -5.49002e-015
      vertex 24 47.4197 -5.80705e-015
      vertex 24 45 10
    endloop
  endfacet
  facet normal 0 0.971951 0.235184
    outer loop
      vertex -24 47.4197 -5.80705e-015
      vertex -24 45 10
      vertex -22.012 47.4197 -5.80705e-015
    endloop
  endfacet
  facet normal 0 0.971951 0.235184
    outer loop
      vertex -18.5 45.4801 8.0159
      vertex -24 45 10
      vertex -11.0699 45 10
    endloop
  endfacet
  facet normal 0 0.971951 0.235184
    outer loop
      vertex 22.012 47.4197 -5.80705e-015
      vertex 24 45 10
      vertex 24 47.4197 -5.80705e-015
    endloop
  endfacet
  facet normal 0 0.971951 0.235184
    outer loop
      vertex 21.7476 47.1778 0.999764
      vertex 24 45 10
      vertex 22.012 47.4197 -5.80705e-015
    endloop
  endfacet
  facet normal 0 0.971951 0.235184
    outer loop
      vertex 20.375 46.8413 2.39042
      vertex 24 45 10
      vertex 21.7476 47.1778 0.999764
    endloop
  endfacet
  facet normal 0 0.971951 0.235184
    outer loop
      vertex 18.5 46.7181 2.89944
      vertex 24 45 10
      vertex 20.375 46.8413 2.39042
    endloop
  endfacet
  facet normal 0 0.971951 0.235184
    outer loop
      vertex 18.5 45.4801 8.0159
      vertex 24 45 10
      vertex 18.5 46.7181 2.89944
    endloop
  endfacet
  facet normal 0 0.971951 0.235184
    outer loop
      vertex -21.7476 47.1778 0.999764
      vertex -24 45 10
      vertex -18.5 45.4801 8.0159
    endloop
  endfacet
  facet normal 0 0.971951 0.235184
    outer loop
      vertex -21.7476 47.1778 0.999764
      vertex -18.5 45.4801 8.0159
      vertex -20.375 46.8413 2.39042
    endloop
  endfacet
  facet normal 0 0.971951 0.235184
    outer loop
      vertex -22.012 47.4197 -5.80705e-015
      vertex -24 45 10
      vertex -21.7476 47.1778 0.999764
    endloop
  endfacet
  facet normal 0 0.971951 0.235184
    outer loop
      vertex -18.5 45.4801 8.0159
      vertex -11.0699 45 10
      vertex 11.0699 45 10
    endloop
  endfacet
  facet normal 0 0.971951 0.235184
    outer loop
      vertex -18.5 45.4801 8.0159
      vertex 11.0699 45 10
      vertex 24 45 10
    endloop
  endfacet
  facet normal 0 0.971951 0.235184
    outer loop
      vertex -18.5 45.4801 8.0159
      vertex 24 45 10
      vertex 18.5 45.4801 8.0159
    endloop
  endfacet
  facet normal 0 0.971951 0.235184
    outer loop
      vertex -18.5 46.7181 2.89944
      vertex -20.375 46.8413 2.39042
      vertex -18.5 45.4801 8.0159
    endloop
  endfacet
  facet normal -0.965926 0.12941 -0.224144
    outer loop
      vertex 22.012 47.4197 -5.80705e-015
      vertex 21.7476 45.4462 -5.56536e-015
      vertex 21.7476 47.1778 0.999764
    endloop
  endfacet
  facet normal -0.707107 0.353553 -0.612372
    outer loop
      vertex 21.7476 45.4462 -5.56536e-015
      vertex 20.375 42.701 -5.22919e-015
      vertex 21.7476 47.1778 0.999764
    endloop
  endfacet
  facet normal -0.707107 0.353553 -0.612372
    outer loop
      vertex 21.7476 47.1778 0.999764
      vertex 20.375 42.701 -5.22919e-015
      vertex 20.375 46.8413 2.39042
    endloop
  endfacet
  facet normal -0.258819 0.482963 -0.836516
    outer loop
      vertex 20.375 42.701 -5.22919e-015
      vertex 18.5 41.6962 -5.10614e-015
      vertex 20.375 46.8413 2.39042
    endloop
  endfacet
  facet normal -0.258819 0.482963 -0.836516
    outer loop
      vertex 20.375 46.8413 2.39042
      vertex 18.5 41.6962 -5.10614e-015
      vertex 18.5 46.7181 2.89944
    endloop
  endfacet
  facet normal -1 -1.22461e-016 5.10871e-032
    outer loop
      vertex 18.5 39.9585 -4.89335e-015
      vertex 18.5 37.8679 3.62102
      vertex 18.5 41.6962 -5.10614e-015
    endloop
  endfacet
  facet normal -1 -1.22461e-016 5.10871e-032
    outer loop
      vertex 18.5 41.6962 -5.10614e-015
      vertex 18.5 37.8679 3.62102
      vertex 18.5 45.4801 8.0159
    endloop
  endfacet
  facet normal -1 -1.22461e-016 5.10871e-032
    outer loop
      vertex 18.5 41.6962 -5.10614e-015
      vertex 18.5 45.4801 8.0159
      vertex 18.5 46.7181 2.89944
    endloop
  endfacet
  facet normal -1.06054e-016 0.866025 0.5
    outer loop
      vertex 18.5 37.8679 3.62102
      vertex 18.5 39.9585 -4.89335e-015
      vertex 14.75 37.8679 3.62102
    endloop
  endfacet
  facet normal -1.06054e-016 0.866025 0.5
    outer loop
      vertex 14.75 37.8679 3.62102
      vertex 18.5 39.9585 -4.89335e-015
      vertex 14.75 39.9585 -4.89335e-015
    endloop
  endfacet
  facet normal -1 -1.22461e-016 5.10871e-032
    outer loop
      vertex 14.75 31.6326 0.0210236
      vertex 14.75 37.8679 3.62102
      vertex 14.75 31.6447 -3.87523e-015
    endloop
  endfacet
  facet normal -1 -1.22461e-016 5.10871e-032
    outer loop
      vertex 14.75 31.6447 -3.87523e-015
      vertex 14.75 37.8679 3.62102
      vertex 14.75 39.9585 -4.89335e-015
    endloop
  endfacet
  facet normal -1.06054e-016 0.866025 0.5
    outer loop
      vertex 14.75 31.6326 0.0210236
      vertex 14.75 31.6447 -3.87523e-015
      vertex -14.75 31.6326 0.0210236
    endloop
  endfacet
  facet normal -1.06054e-016 0.866025 0.5
    outer loop
      vertex -14.75 31.6326 0.0210236
      vertex 14.75 31.6447 -3.87523e-015
      vertex -14.75 31.6447 -3.87523e-015
    endloop
  endfacet
  facet normal 1 1.22461e-016 -5.10871e-032
    outer loop
      vertex -14.75 37.8679 3.62102
      vertex -14.75 31.6326 0.0210236
      vertex -14.75 31.6447 -3.87523e-015
    endloop
  endfacet
  facet normal 1 1.22461e-016 -5.10871e-032
    outer loop
      vertex -14.75 39.9585 -4.89335e-015
      vertex -14.75 37.8679 3.62102
      vertex -14.75 31.6447 -3.87523e-015
    endloop
  endfacet
  facet normal -1.06054e-016 0.866025 0.5
    outer loop
      vertex -14.75 37.8679 3.62102
      vertex -14.75 39.9585 -4.89335e-015
      vertex -18.5 37.8679 3.62102
    endloop
  endfacet
  facet normal -1.06054e-016 0.866025 0.5
    outer loop
      vertex -18.5 37.8679 3.62102
      vertex -14.75 39.9585 -4.89335e-015
      vertex -18.5 39.9585 -4.89335e-015
    endloop
  endfacet
  facet normal 1 1.22461e-016 -5.10871e-032
    outer loop
      vertex -18.5 45.4801 8.0159
      vertex -18.5 37.8679 3.62102
      vertex -18.5 39.9585 -4.89335e-015
    endloop
  endfacet
  facet normal 1 1.22461e-016 -5.10871e-032
    outer loop
      vertex -18.5 46.7181 2.89944
      vertex -18.5 45.4801 8.0159
      vertex -18.5 41.6962 -5.10614e-015
    endloop
  endfacet
  facet normal 1 1.22461e-016 -5.10871e-032
    outer loop
      vertex -18.5 41.6962 -5.10614e-015
      vertex -18.5 45.4801 8.0159
      vertex -18.5 39.9585 -4.89335e-015
    endloop
  endfacet
  facet normal 0.258819 0.482963 -0.836516
    outer loop
      vertex -18.5 41.6962 -5.10614e-015
      vertex -20.375 42.701 -5.22919e-015
      vertex -18.5 46.7181 2.89944
    endloop
  endfacet
  facet normal 0.258819 0.482963 -0.836516
    outer loop
      vertex -18.5 46.7181 2.89944
      vertex -20.375 42.701 -5.22919e-015
      vertex -20.375 46.8413 2.39042
    endloop
  endfacet
  facet normal 0.707107 0.353553 -0.612372
    outer loop
      vertex -20.375 46.8413 2.39042
      vertex -20.375 42.701 -5.22919e-015
      vertex -21.7476 45.4462 -5.56536e-015
    endloop
  endfacet
  facet normal 0.707107 0.353553 -0.612372
    outer loop
      vertex -21.7476 47.1778 0.999764
      vertex -20.375 46.8413 2.39042
      vertex -21.7476 45.4462 -5.56536e-015
    endloop
  endfacet
  facet normal 0.965926 0.12941 -0.224144
    outer loop
      vertex -21.7476 47.1778 0.999764
      vertex -21.7476 45.4462 -5.56536e-015
      vertex -22.012 47.4197 -5.80705e-015
    endloop
  endfacet
  facet normal -0.0705019 0.969532 0.234598
    outer loop
      vertex -24 47.4197 -5.80705e-015
      vertex -59.6013 44.8309 -5.49002e-015
      vertex -24 45 10
    endloop
  endfacet
  facet normal 0 3.44505e-016 1
    outer loop
      vertex -11.0699 45 10
      vertex -24 45 10
      vertex -24 35 10
    endloop
  endfacet
  facet normal 0 3.44505e-016 1
    outer loop
      vertex -11.0699 35 10
      vertex -11.0699 45 10
      vertex -24 35 10
    endloop
  endfacet
  facet normal -0.743145 2.30519e-016 0.669131
    outer loop
      vertex -12.1353 33.718 8.81678
      vertex -12.1353 -50 8.81678
      vertex -11.0699 35 10
    endloop
  endfacet
  facet normal -0.743145 2.30519e-016 0.669131
    outer loop
      vertex -11.0699 35 10
      vertex -12.1353 -50 8.81678
      vertex -10.037 -50 11.1472
    endloop
  endfacet
  facet normal -0.743145 2.30519e-016 0.669131
    outer loop
      vertex -11.0699 35 10
      vertex -10.037 -50 11.1472
      vertex -10.037 45 11.1472
    endloop
  endfacet
  facet normal -0.743145 2.30519e-016 0.669131
    outer loop
      vertex -11.0699 35 10
      vertex -10.037 45 11.1472
      vertex -11.0699 45 10
    endloop
  endfacet
  facet normal -0.866025 1.72253e-016 0.5
    outer loop
      vertex -13.7032 30.7755 6.10105
      vertex -13.7032 -50 6.10105
      vertex -12.1353 33.718 8.81678
    endloop
  endfacet
  facet normal -0.866025 1.72253e-016 0.5
    outer loop
      vertex -12.1353 33.718 8.81678
      vertex -13.7032 -50 6.10105
      vertex -12.1353 -50 8.81678
    endloop
  endfacet
  facet normal -0.951057 1.06458e-016 0.309017
    outer loop
      vertex -14.6722 27.5442 3.11867
      vertex -14.6722 -50 3.11868
      vertex -13.7032 30.7755 6.10105
    endloop
  endfacet
  facet normal -0.951057 1.06458e-016 0.309017
    outer loop
      vertex -13.7032 30.7755 6.10105
      vertex -14.6722 -50 3.11868
      vertex -13.7032 -50 6.10105
    endloop
  endfacet
  facet normal -0.587785 2.78711e-016 0.809017
    outer loop
      vertex -7.5 45 12.9904
      vertex -10.037 45 11.1472
      vertex -10.037 -50 11.1472
    endloop
  endfacet
  facet normal -0.587785 2.78711e-016 0.809017
    outer loop
      vertex -7.5 -50 12.9904
      vertex -7.5 45 12.9904
      vertex -10.037 -50 11.1472
    endloop
  endfacet
  facet normal -0.406737 3.14721e-016 0.913545
    outer loop
      vertex -4.63525 45 14.2658
      vertex -7.5 45 12.9904
      vertex -7.5 -50 12.9904
    endloop
  endfacet
  facet normal -0.406737 3.14721e-016 0.913545
    outer loop
      vertex -4.63525 -50 14.2658
      vertex -4.63525 45 14.2658
      vertex -7.5 -50 12.9904
    endloop
  endfacet
  facet normal -0.207911 3.36977e-016 0.978148
    outer loop
      vertex -1.56793 45 14.9178
      vertex -4.63525 45 14.2658
      vertex -4.63525 -50 14.2658
    endloop
  endfacet
  facet normal -0.207911 3.36977e-016 0.978148
    outer loop
      vertex -1.56793 -50 14.9178
      vertex -1.56793 45 14.9178
      vertex -4.63525 -50 14.2658
    endloop
  endfacet
  facet normal 0 3.44505e-016 1
    outer loop
      vertex 1.56793 45 14.9178
      vertex -1.56793 45 14.9178
      vertex -1.56793 -50 14.9178
    endloop
  endfacet
  facet normal 0 3.44505e-016 1
    outer loop
      vertex 1.56793 -50 14.9178
      vertex 1.56793 45 14.9178
      vertex -1.56793 -50 14.9178
    endloop
  endfacet
  facet normal 0.207911 3.36977e-016 0.978148
    outer loop
      vertex 4.63525 45 14.2658
      vertex 1.56793 45 14.9178
      vertex 1.56793 -50 14.9178
    endloop
  endfacet
  facet normal 0.207911 3.36977e-016 0.978148
    outer loop
      vertex 4.63525 -50 14.2658
      vertex 4.63525 45 14.2658
      vertex 1.56793 -50 14.9178
    endloop
  endfacet
  facet normal 0.406737 3.14721e-016 0.913545
    outer loop
      vertex 7.5 45 12.9904
      vertex 4.63525 45 14.2658
      vertex 4.63525 -50 14.2658
    endloop
  endfacet
  facet normal 0.406737 3.14721e-016 0.913545
    outer loop
      vertex 7.5 -50 12.9904
      vertex 7.5 45 12.9904
      vertex 4.63525 -50 14.2658
    endloop
  endfacet
  facet normal 0.587785 2.78711e-016 0.809017
    outer loop
      vertex 10.037 45 11.1472
      vertex 7.5 45 12.9904
      vertex 7.5 -50 12.9904
    endloop
  endfacet
  facet normal 0.587785 2.78711e-016 0.809017
    outer loop
      vertex 10.037 -50 11.1472
      vertex 10.037 45 11.1472
      vertex 7.5 -50 12.9904
    endloop
  endfacet
  facet normal 0.743145 2.30519e-016 0.669131
    outer loop
      vertex 11.0699 45 10
      vertex 10.037 45 11.1472
      vertex 10.037 -50 11.1472
    endloop
  endfacet
  facet normal 0.743145 2.30519e-016 0.669131
    outer loop
      vertex 11.0699 35 10
      vertex 11.0699 45 10
      vertex 10.037 -50 11.1472
    endloop
  endfacet
  facet normal 0.743145 2.30519e-016 0.669131
    outer loop
      vertex 12.1353 -50 8.81678
      vertex 11.0699 35 10
      vertex 10.037 -50 11.1472
    endloop
  endfacet
  facet normal 0.743145 2.30519e-016 0.669131
    outer loop
      vertex 12.1353 33.718 8.81678
      vertex 11.0699 35 10
      vertex 12.1353 -50 8.81678
    endloop
  endfacet
  facet normal 0.866025 1.72253e-016 0.5
    outer loop
      vertex 13.7032 30.7755 6.10105
      vertex 12.1353 33.718 8.81678
      vertex 12.1353 -50 8.81678
    endloop
  endfacet
  facet normal 0.866025 1.72253e-016 0.5
    outer loop
      vertex 13.7032 -50 6.10105
      vertex 13.7032 30.7755 6.10105
      vertex 12.1353 -50 8.81678
    endloop
  endfacet
  facet normal 0.951057 1.06458e-016 0.309017
    outer loop
      vertex 14.6722 27.5442 3.11867
      vertex 13.7032 30.7755 6.10105
      vertex 13.7032 -50 6.10105
    endloop
  endfacet
  facet normal 0.951057 1.06458e-016 0.309017
    outer loop
      vertex 14.6722 -50 3.11868
      vertex 14.6722 27.5442 3.11867
      vertex 13.7032 -50 6.10105
    endloop
  endfacet
  facet normal 0.0475556 -0.58712 0.808102
    outer loop
      vertex 70 30 3.66025
      vertex 24 35 10
      vertex 70 28.3087 2.43145
    endloop
  endfacet
  facet normal 0 3.44505e-016 1
    outer loop
      vertex 24 45 10
      vertex 11.0699 45 10
      vertex 11.0699 35 10
    endloop
  endfacet
  facet normal 0 3.44505e-016 1
    outer loop
      vertex 24 35 10
      vertex 24 45 10
      vertex 11.0699 35 10
    endloop
  endfacet
  facet normal 0.109229 3.42444e-016 0.994017
    outer loop
      vertex 70 33.9547 4.94522
      vertex 24 45 10
      vertex 24 35 10
    endloop
  endfacet
  facet normal 0.102222 -0.206823 0.973024
    outer loop
      vertex 70 33.9547 4.94522
      vertex 24 35 10
      vertex 70 31.9098 4.51056
    endloop
  endfacet
  facet normal 0.0814236 -0.405386 0.910512
    outer loop
      vertex 70 31.9098 4.51056
      vertex 24 35 10
      vertex 70 30 3.66025
    endloop
  endfacet
  facet normal 0.109229 3.61813e-016 0.994017
    outer loop
      vertex 70 36.0453 4.94522
      vertex 24 45 10
      vertex 70 33.9547 4.94522
    endloop
  endfacet
  facet normal 0.146366 0.205673 0.967613
    outer loop
      vertex 70 38.0902 4.51056
      vertex 24 45 10
      vertex 70 36.0453 4.94522
    endloop
  endfacet
  facet normal 0.167706 0.400976 0.900607
    outer loop
      vertex 70 40 3.66025
      vertex 24 45 10
      vertex 70 38.0902 4.51056
    endloop
  endfacet
  facet normal 0.172752 0.578948 0.796854
    outer loop
      vertex 70 41.6913 2.43145
      vertex 24 45 10
      vertex 70 40 3.66025
    endloop
  endfacet
  facet normal 0.161403 0.733401 0.660358
    outer loop
      vertex 70 43.0902 0.877853
      vertex 24 45 10
      vertex 70 41.6913 2.43145
    endloop
  endfacet
  facet normal -6.12303e-017 0.5 -0.866025
    outer loop
      vertex 18.5 37.8679 3.62102
      vertex 14.75 37.8679 3.62102
      vertex 18.5 45.4801 8.0159
    endloop
  endfacet
  facet normal -6.12303e-017 0.5 -0.866025
    outer loop
      vertex -14.75 31.6326 0.0210236
      vertex 14.75 37.8679 3.62102
      vertex 14.75 31.6326 0.0210236
    endloop
  endfacet
  facet normal -6.12303e-017 0.5 -0.866025
    outer loop
      vertex 18.5 45.4801 8.0159
      vertex 14.75 37.8679 3.62102
      vertex -14.75 31.6326 0.0210236
    endloop
  endfacet
  facet normal -6.12303e-017 0.5 -0.866025
    outer loop
      vertex 18.5 45.4801 8.0159
      vertex -14.75 31.6326 0.0210236
      vertex -14.75 37.8679 3.62102
    endloop
  endfacet
  facet normal -6.12303e-017 0.5 -0.866025
    outer loop
      vertex 18.5 45.4801 8.0159
      vertex -14.75 37.8679 3.62102
      vertex -18.5 37.8679 3.62102
    endloop
  endfacet
  facet normal -6.12303e-017 0.5 -0.866025
    outer loop
      vertex 18.5 45.4801 8.0159
      vertex -18.5 37.8679 3.62102
      vertex -18.5 45.4801 8.0159
    endloop
  endfacet
  facet normal 0 1 -3.44505e-016
    outer loop
      vertex -11.0699 45 10
      vertex -10.037 45 11.1472
      vertex 11.0699 45 10
    endloop
  endfacet
  facet normal 0 1 -3.44505e-016
    outer loop
      vertex 11.0699 45 10
      vertex -10.037 45 11.1472
      vertex -7.5 45 12.9904
    endloop
  endfacet
  facet normal 0 1 -3.44505e-016
    outer loop
      vertex 11.0699 45 10
      vertex -7.5 45 12.9904
      vertex -4.63525 45 14.2658
    endloop
  endfacet
  facet normal 0 1 -3.44505e-016
    outer loop
      vertex 11.0699 45 10
      vertex -4.63525 45 14.2658
      vertex -1.56793 45 14.9178
    endloop
  endfacet
  facet normal 0 1 -3.44505e-016
    outer loop
      vertex 11.0699 45 10
      vertex -1.56793 45 14.9178
      vertex 1.56793 45 14.9178
    endloop
  endfacet
  facet normal 0 1 -3.44505e-016
    outer loop
      vertex 11.0699 45 10
      vertex 1.56793 45 14.9178
      vertex 4.63525 45 14.2658
    endloop
  endfacet
  facet normal 0 1 -3.44505e-016
    outer loop
      vertex 11.0699 45 10
      vertex 4.63525 45 14.2658
      vertex 7.5 45 12.9904
    endloop
  endfacet
  facet normal 0 1 -3.44505e-016
    outer loop
      vertex 11.0699 45 10
      vertex 7.5 45 12.9904
      vertex 10.037 45 11.1472
    endloop
  endfacet
endsolid OpenSCAD_Model
