solid OpenSCAD_Model
  facet normal -1 0 0
    outer loop
      vertex -45 -60 0
      vertex -45 -60 11.5
      vertex -45 60 0
    endloop
  endfacet
  facet normal -1 0 0
    outer loop
      vertex -45 60 0
      vertex -45 -60 11.5
      vertex -45 60 11.5
    endloop
  endfacet
  facet normal 0 -1 0
    outer loop
      vertex -45 -60 11.5
      vertex -45 -60 0
      vertex 45 -60 0
    endloop
  endfacet
  facet normal 0 -1 0
    outer loop
      vertex 45 -60 11.5
      vertex -45 -60 11.5
      vertex 45 -60 0
    endloop
  endfacet
  facet normal 0 0 -1
    outer loop
      vertex -45 -60 0
      vertex -45 60 0
      vertex 45 -60 0
    endloop
  endfacet
  facet normal 0 0 -1
    outer loop
      vertex 45 -60 0
      vertex -45 60 0
      vertex 45 60 0
    endloop
  endfacet
  facet normal 0 1 0
    outer loop
      vertex -45 60 0
      vertex -45 60 11.5
      vertex 45 60 0
    endloop
  endfacet
  facet normal 0 1 0
    outer loop
      vertex 45 60 0
      vertex -45 60 11.5
      vertex 45 60 11.5
    endloop
  endfacet
  facet normal 0 0 1
    outer loop
      vertex -42.5 -57.5 11.5
      vertex -45 -60 11.5
      vertex 45 -60 11.5
    endloop
  endfacet
  facet normal 0 0 1
    outer loop
      vertex 42.5 -57.5 11.5
      vertex -42.5 -57.5 11.5
      vertex 45 -60 11.5
    endloop
  endfacet
  facet normal 0 0 1
    outer loop
      vertex -45 60 11.5
      vertex -45 -60 11.5
      vertex -42.5 -57.5 11.5
    endloop
  endfacet
  facet normal 0 0 1
    outer loop
      vertex 45 60 11.5
      vertex -45 60 11.5
      vertex -42.5 57.5 11.5
    endloop
  endfacet
  facet normal 0 0 1
    outer loop
      vertex 45 60 11.5
      vertex 42.5 57.5 11.5
      vertex 45 -60 11.5
    endloop
  endfacet
  facet normal 0 0 1
    outer loop
      vertex 45 60 11.5
      vertex -42.5 57.5 11.5
      vertex 42.5 57.5 11.5
    endloop
  endfacet
  facet normal 0 0 1
    outer loop
      vertex 42.5 57.5 11.5
      vertex 42.5 -57.5 11.5
      vertex 45 -60 11.5
    endloop
  endfacet
  facet normal 0 0 1
    outer loop
      vertex -42.5 -57.5 11.5
      vertex -42.5 57.5 11.5
      vertex -45 60 11.5
    endloop
  endfacet
  facet normal 1 0 0
    outer loop
      vertex 45 -60 11.5
      vertex 45 -60 0
      vertex 45 60 0
    endloop
  endfacet
  facet normal 1 0 0
    outer loop
      vertex 45 60 11.5
      vertex 45 -60 11.5
      vertex 45 60 0
    endloop
  endfacet
  facet normal 1 0 0
    outer loop
      vertex -42.5 -57.5 11.5
      vertex -42.5 -57.5 1.5
      vertex -42.5 57.5 1.5
    endloop
  endfacet
  facet normal 1 0 0
    outer loop
      vertex -42.5 57.5 11.5
      vertex -42.5 -57.5 11.5
      vertex -42.5 57.5 1.5
    endloop
  endfacet
  facet normal 0 1 0
    outer loop
      vertex -42.5 -57.5 1.5
      vertex -42.5 -57.5 11.5
      vertex 42.5 -57.5 1.5
    endloop
  endfacet
  facet normal 0 1 0
    outer loop
      vertex 42.5 -57.5 1.5
      vertex -42.5 -57.5 11.5
      vertex 42.5 -57.5 11.5
    endloop
  endfacet
  facet normal -1 0 0
    outer loop
      vertex 42.5 -57.5 1.5
      vertex 42.5 -57.5 11.5
      vertex 42.5 57.5 1.5
    endloop
  endfacet
  facet normal -1 0 0
    outer loop
      vertex 42.5 57.5 1.5
      vertex 42.5 -57.5 11.5
      vertex 42.5 57.5 11.5
    endloop
  endfacet
  facet normal 0 -1 0
    outer loop
      vertex -42.5 57.5 11.5
      vertex -42.5 57.5 1.5
      vertex 42.5 57.5 1.5
    endloop
  endfacet
  facet normal 0 -1 0
    outer loop
      vertex 42.5 57.5 11.5
      vertex -42.5 57.5 11.5
      vertex 42.5 57.5 1.5
    endloop
  endfacet
  facet normal 0 0 1
    outer loop
      vertex -42.5 57.5 1.5
      vertex -42.5 -57.5 1.5
      vertex 42.5 -57.5 1.5
    endloop
  endfacet
  facet normal 0 0 1
    outer loop
      vertex 42.5 57.5 1.5
      vertex -42.5 57.5 1.5
      vertex 42.5 -57.5 1.5
    endloop
  endfacet
endsolid OpenSCAD_Model
