solid OpenSCAD_Model
  facet normal -1 0 0
    outer loop
      vertex -75 48.5 19
      vertex -75 51.5 19
      vertex -75 48.5 3.5
    endloop
  endfacet
  facet normal -1 0 0
    outer loop
      vertex -75 51.5 0.5
      vertex -75 -63.5 0.5
      vertex -75 48.5 3.5
    endloop
  endfacet
  facet normal -1 0 0
    outer loop
      vertex -75 51.5 0.5
      vertex -75 48.5 3.5
      vertex -75 51.5 19
    endloop
  endfacet
  facet normal -1 0 0
    outer loop
      vertex -75 48.5 3.5
      vertex -75 -63.5 0.5
      vertex -75 -63.5 3.5
    endloop
  endfacet
  facet normal 0 -2.22045e-016 -1
    outer loop
      vertex -75 51.5 0.5
      vertex 75 51.5 0.5
      vertex -75 -63.5 0.5
    endloop
  endfacet
  facet normal 0 -2.22045e-016 -1
    outer loop
      vertex -75 -63.5 0.5
      vertex 75 51.5 0.5
      vertex 75 -63.5 0.5
    endloop
  endfacet
  facet normal 0 1 -2.22045e-016
    outer loop
      vertex -75 51.5 0.5
      vertex -75 51.5 19
      vertex 75 51.5 0.5
    endloop
  endfacet
  facet normal 0 1 -2.22045e-016
    outer loop
      vertex 75 51.5 0.5
      vertex -75 51.5 19
      vertex 75 51.5 19
    endloop
  endfacet
  facet normal 0 2.22045e-016 1
    outer loop
      vertex 75 51.5 19
      vertex -75 51.5 19
      vertex -75 48.5 19
    endloop
  endfacet
  facet normal 0 2.22045e-016 1
    outer loop
      vertex 75 48.5 19
      vertex 75 51.5 19
      vertex -75 48.5 19
    endloop
  endfacet
  facet normal 0 -1 2.22045e-016
    outer loop
      vertex -75 48.5 19
      vertex -75 48.5 3.5
      vertex 75 48.5 3.5
    endloop
  endfacet
  facet normal 0 -1 2.22045e-016
    outer loop
      vertex 75 48.5 19
      vertex -75 48.5 19
      vertex 75 48.5 3.5
    endloop
  endfacet
  facet normal 0 2.22045e-016 1
    outer loop
      vertex 75 48.5 3.5
      vertex -75 48.5 3.5
      vertex -75 -63.5 3.5
    endloop
  endfacet
  facet normal 0 2.22045e-016 1
    outer loop
      vertex 75 -63.5 3.5
      vertex 75 48.5 3.5
      vertex -75 -63.5 3.5
    endloop
  endfacet
  facet normal 0 -1 2.22045e-016
    outer loop
      vertex -75 -63.5 3.5
      vertex -75 -63.5 0.5
      vertex 75 -63.5 0.5
    endloop
  endfacet
  facet normal 0 -1 2.22045e-016
    outer loop
      vertex 75 -63.5 3.5
      vertex -75 -63.5 3.5
      vertex 75 -63.5 0.5
    endloop
  endfacet
  facet normal 1 0 0
    outer loop
      vertex 75 48.5 3.5
      vertex 75 51.5 0.5
      vertex 75 51.5 19
    endloop
  endfacet
  facet normal 1 0 0
    outer loop
      vertex 75 48.5 3.5
      vertex 75 -63.5 3.5
      vertex 75 -63.5 0.5
    endloop
  endfacet
  facet normal 1 0 0
    outer loop
      vertex 75 -63.5 0.5
      vertex 75 51.5 0.5
      vertex 75 48.5 3.5
    endloop
  endfacet
  facet normal 1 0 0
    outer loop
      vertex 75 48.5 19
      vertex 75 48.5 3.5
      vertex 75 51.5 19
    endloop
  endfacet
endsolid OpenSCAD_Model
