solid OpenSCAD_Model
  facet normal -1 0 0
    outer loop
      vertex -80 -60 0
      vertex -80 -60 3
      vertex -80 60 0
    endloop
  endfacet
  facet normal -1 0 0
    outer loop
      vertex -80 60 0
      vertex -80 -60 3
      vertex -80 60 3
    endloop
  endfacet
  facet normal -0.994522 -0.104528 0
    outer loop
      vertex -80 -60 0
      vertex -79.7815 -62.0791 0
      vertex -80 -60 3
    endloop
  endfacet
  facet normal -0.994522 -0.104528 0
    outer loop
      vertex -80 -60 3
      vertex -79.7815 -62.0791 0
      vertex -79.7815 -62.0791 3
    endloop
  endfacet
  facet normal 0 0 -1
    outer loop
      vertex -80 -60 0
      vertex -80 60 0
      vertex -79.7815 -62.0791 0
    endloop
  endfacet
  facet normal 0 0 -1
    outer loop
      vertex -79.7815 -62.0791 0
      vertex -80 60 0
      vertex -79.7815 62.0791 0
    endloop
  endfacet
  facet normal 0 0 -1
    outer loop
      vertex -79.7815 -62.0791 0
      vertex -79.7815 62.0791 0
      vertex -79.1355 64.0674 0
    endloop
  endfacet
  facet normal 0 0 -1
    outer loop
      vertex -79.7815 -62.0791 0
      vertex -79.1355 64.0674 0
      vertex -78.0902 65.8779 0
    endloop
  endfacet
  facet normal 0 0 -1
    outer loop
      vertex -79.7815 -62.0791 0
      vertex -78.0902 65.8779 0
      vertex -76.6913 67.4314 0
    endloop
  endfacet
  facet normal 0 0 -1
    outer loop
      vertex -79.7815 -62.0791 0
      vertex -76.6913 67.4314 0
      vertex -75 68.6603 0
    endloop
  endfacet
  facet normal 0 0 -1
    outer loop
      vertex -79.7815 -62.0791 0
      vertex -75 68.6603 0
      vertex -73.0902 69.5106 0
    endloop
  endfacet
  facet normal 0 0 -1
    outer loop
      vertex -79.7815 -62.0791 0
      vertex -73.0902 69.5106 0
      vertex -71.0453 69.9452 0
    endloop
  endfacet
  facet normal 0 0 -1
    outer loop
      vertex -29 29 0
      vertex -71.0453 69.9452 0
      vertex 71.0453 69.9452 0
    endloop
  endfacet
  facet normal 0 0 -1
    outer loop
      vertex 29 29 0
      vertex 76.6913 67.4314 0
      vertex 78.0902 65.8779 0
    endloop
  endfacet
  facet normal 0 0 -1
    outer loop
      vertex 29 29 0
      vertex 78.0902 65.8779 0
      vertex 79.1355 64.0674 0
    endloop
  endfacet
  facet normal 0 0 -1
    outer loop
      vertex 29 29 0
      vertex 75 68.6603 0
      vertex 76.6913 67.4314 0
    endloop
  endfacet
  facet normal 0 0 -1
    outer loop
      vertex 29 -29 0
      vertex 80 60 0
      vertex 80 -60 0
    endloop
  endfacet
  facet normal 0 0 -1
    outer loop
      vertex -79.7815 -62.0791 0
      vertex 80 -60 0
      vertex 79.7815 -62.0791 0
    endloop
  endfacet
  facet normal 0 0 -1
    outer loop
      vertex -79.7815 -62.0791 0
      vertex 79.7815 -62.0791 0
      vertex 79.1355 -64.0674 0
    endloop
  endfacet
  facet normal 0 0 -1
    outer loop
      vertex -79.7815 -62.0791 0
      vertex 79.1355 -64.0674 0
      vertex 78.0902 -65.8779 0
    endloop
  endfacet
  facet normal 0 0 -1
    outer loop
      vertex -79.7815 -62.0791 0
      vertex 78.0902 -65.8779 0
      vertex 76.6913 -67.4314 0
    endloop
  endfacet
  facet normal 0 0 -1
    outer loop
      vertex -79.7815 -62.0791 0
      vertex 76.6913 -67.4314 0
      vertex 75 -68.6603 0
    endloop
  endfacet
  facet normal 0 0 -1
    outer loop
      vertex -79.7815 -62.0791 0
      vertex 75 -68.6603 0
      vertex 73.0902 -69.5106 0
    endloop
  endfacet
  facet normal 0 0 -1
    outer loop
      vertex -79.7815 -62.0791 0
      vertex 73.0902 -69.5106 0
      vertex 71.0453 -69.9452 0
    endloop
  endfacet
  facet normal 0 0 -1
    outer loop
      vertex -79.7815 -62.0791 0
      vertex 71.0453 -69.9452 0
      vertex -71.0453 -69.9452 0
    endloop
  endfacet
  facet normal 0 0 -1
    outer loop
      vertex -79.7815 -62.0791 0
      vertex -71.0453 -69.9452 0
      vertex -73.0902 -69.5106 0
    endloop
  endfacet
  facet normal 0 0 -1
    outer loop
      vertex -79.7815 -62.0791 0
      vertex -73.0902 -69.5106 0
      vertex -75 -68.6603 0
    endloop
  endfacet
  facet normal 0 0 -1
    outer loop
      vertex -79.7815 -62.0791 0
      vertex -75 -68.6603 0
      vertex -76.6913 -67.4314 0
    endloop
  endfacet
  facet normal 0 0 -1
    outer loop
      vertex -79.7815 -62.0791 0
      vertex -76.6913 -67.4314 0
      vertex -78.0902 -65.8779 0
    endloop
  endfacet
  facet normal 0 0 -1
    outer loop
      vertex -79.7815 -62.0791 0
      vertex -78.0902 -65.8779 0
      vertex -79.1355 -64.0674 0
    endloop
  endfacet
  facet normal 0 0 -1
    outer loop
      vertex -79.7815 -62.0791 0
      vertex -71.0453 69.9452 0
      vertex -29 29 0
    endloop
  endfacet
  facet normal 0 0 -1
    outer loop
      vertex -29 -29 0
      vertex -79.7815 -62.0791 0
      vertex -29 29 0
    endloop
  endfacet
  facet normal 0 0 -1
    outer loop
      vertex 29 29 0
      vertex 80 60 0
      vertex 29 -29 0
    endloop
  endfacet
  facet normal 0 0 -1
    outer loop
      vertex -79.7815 -62.0791 0
      vertex -29 -29 0
      vertex 80 -60 0
    endloop
  endfacet
  facet normal 0 0 -1
    outer loop
      vertex -29 -29 0
      vertex 29 -29 0
      vertex 80 -60 0
    endloop
  endfacet
  facet normal 0 0 -1
    outer loop
      vertex 29 29 0
      vertex 79.1355 64.0674 0
      vertex 79.7815 62.0791 0
    endloop
  endfacet
  facet normal 0 0 -1
    outer loop
      vertex -29 29 0
      vertex 71.0453 69.9452 0
      vertex 73.0902 69.5106 0
    endloop
  endfacet
  facet normal 0 0 -1
    outer loop
      vertex -29 29 0
      vertex 73.0902 69.5106 0
      vertex 75 68.6603 0
    endloop
  endfacet
  facet normal 0 0 -1
    outer loop
      vertex -29 29 0
      vertex 75 68.6603 0
      vertex 29 29 0
    endloop
  endfacet
  facet normal 0 0 -1
    outer loop
      vertex 29 29 0
      vertex 79.7815 62.0791 0
      vertex 80 60 0
    endloop
  endfacet
  facet normal -0.994522 0.104528 0
    outer loop
      vertex -80 60 0
      vertex -80 60 3
      vertex -79.7815 62.0791 0
    endloop
  endfacet
  facet normal -0.994522 0.104528 0
    outer loop
      vertex -79.7815 62.0791 0
      vertex -80 60 3
      vertex -79.7815 62.0791 3
    endloop
  endfacet
  facet normal 0 0 1
    outer loop
      vertex -80 60 3
      vertex -80 -60 3
      vertex -79.7815 -62.0791 3
    endloop
  endfacet
  facet normal 0 0 1
    outer loop
      vertex -78.0902 -65.8779 3
      vertex -80 60 3
      vertex -79.1355 -64.0674 3
    endloop
  endfacet
  facet normal 0 0 1
    outer loop
      vertex -79.1355 -64.0674 3
      vertex -80 60 3
      vertex -79.7815 -62.0791 3
    endloop
  endfacet
  facet normal 0 0 1
    outer loop
      vertex -76.6913 -67.4314 3
      vertex -80 60 3
      vertex -78.0902 -65.8779 3
    endloop
  endfacet
  facet normal 0 0 1
    outer loop
      vertex -75 -68.6603 3
      vertex -80 60 3
      vertex -76.6913 -67.4314 3
    endloop
  endfacet
  facet normal 0 0 1
    outer loop
      vertex -73.0902 -69.5106 3
      vertex -80 60 3
      vertex -75 -68.6603 3
    endloop
  endfacet
  facet normal 0 0 1
    outer loop
      vertex -71.0453 -69.9452 3
      vertex -80 60 3
      vertex -73.0902 -69.5106 3
    endloop
  endfacet
  facet normal 0 0 1
    outer loop
      vertex -31 -31 3
      vertex -80 60 3
      vertex -71.0453 -69.9452 3
    endloop
  endfacet
  facet normal 0 0 1
    outer loop
      vertex 31 31 3
      vertex 76.6913 -67.4314 3
      vertex 78.0902 -65.8779 3
    endloop
  endfacet
  facet normal 0 0 1
    outer loop
      vertex 31 31 3
      vertex 78.0902 -65.8779 3
      vertex 79.1355 -64.0674 3
    endloop
  endfacet
  facet normal 0 0 1
    outer loop
      vertex 31 31 3
      vertex 79.1355 -64.0674 3
      vertex 79.7815 -62.0791 3
    endloop
  endfacet
  facet normal 0 0 1
    outer loop
      vertex 31 31 3
      vertex 79.7815 -62.0791 3
      vertex 80 -60 3
    endloop
  endfacet
  facet normal 0 0 1
    outer loop
      vertex 79.7815 62.0791 3
      vertex -80 60 3
      vertex 80 60 3
    endloop
  endfacet
  facet normal 0 0 1
    outer loop
      vertex 79.1355 64.0674 3
      vertex -80 60 3
      vertex 79.7815 62.0791 3
    endloop
  endfacet
  facet normal 0 0 1
    outer loop
      vertex 78.0902 65.8779 3
      vertex -80 60 3
      vertex 79.1355 64.0674 3
    endloop
  endfacet
  facet normal 0 0 1
    outer loop
      vertex 76.6913 67.4314 3
      vertex -80 60 3
      vertex 78.0902 65.8779 3
    endloop
  endfacet
  facet normal 0 0 1
    outer loop
      vertex 75 68.6603 3
      vertex -80 60 3
      vertex 76.6913 67.4314 3
    endloop
  endfacet
  facet normal 0 0 1
    outer loop
      vertex 73.0902 69.5106 3
      vertex -80 60 3
      vertex 75 68.6603 3
    endloop
  endfacet
  facet normal 0 0 1
    outer loop
      vertex 71.0453 69.9452 3
      vertex -80 60 3
      vertex 73.0902 69.5106 3
    endloop
  endfacet
  facet normal 0 0 1
    outer loop
      vertex -71.0453 69.9452 3
      vertex -80 60 3
      vertex 71.0453 69.9452 3
    endloop
  endfacet
  facet normal 0 0 1
    outer loop
      vertex -73.0902 69.5106 3
      vertex -80 60 3
      vertex -71.0453 69.9452 3
    endloop
  endfacet
  facet normal 0 0 1
    outer loop
      vertex -75 68.6603 3
      vertex -80 60 3
      vertex -73.0902 69.5106 3
    endloop
  endfacet
  facet normal 0 0 1
    outer loop
      vertex -76.6913 67.4314 3
      vertex -80 60 3
      vertex -75 68.6603 3
    endloop
  endfacet
  facet normal 0 0 1
    outer loop
      vertex -78.0902 65.8779 3
      vertex -80 60 3
      vertex -76.6913 67.4314 3
    endloop
  endfacet
  facet normal 0 0 1
    outer loop
      vertex -79.1355 64.0674 3
      vertex -80 60 3
      vertex -78.0902 65.8779 3
    endloop
  endfacet
  facet normal 0 0 1
    outer loop
      vertex -79.7815 62.0791 3
      vertex -80 60 3
      vertex -79.1355 64.0674 3
    endloop
  endfacet
  facet normal 0 0 1
    outer loop
      vertex 71.0453 -69.9452 3
      vertex -31 -31 3
      vertex -71.0453 -69.9452 3
    endloop
  endfacet
  facet normal 0 0 1
    outer loop
      vertex 80 60 3
      vertex -80 60 3
      vertex -31 31 3
    endloop
  endfacet
  facet normal 0 0 1
    outer loop
      vertex 80 60 3
      vertex 31 31 3
      vertex 80 -60 3
    endloop
  endfacet
  facet normal 0 0 1
    outer loop
      vertex 80 60 3
      vertex -31 31 3
      vertex 31 31 3
    endloop
  endfacet
  facet normal 0 0 1
    outer loop
      vertex 76.6913 -67.4314 3
      vertex 31 -31 3
      vertex 75 -68.6603 3
    endloop
  endfacet
  facet normal 0 0 1
    outer loop
      vertex 31 31 3
      vertex 31 -31 3
      vertex 76.6913 -67.4314 3
    endloop
  endfacet
  facet normal 0 0 1
    outer loop
      vertex 31 -31 3
      vertex 73.0902 -69.5106 3
      vertex 75 -68.6603 3
    endloop
  endfacet
  facet normal 0 0 1
    outer loop
      vertex 31 -31 3
      vertex 71.0453 -69.9452 3
      vertex 73.0902 -69.5106 3
    endloop
  endfacet
  facet normal 0 0 1
    outer loop
      vertex 31 -31 3
      vertex -31 -31 3
      vertex 71.0453 -69.9452 3
    endloop
  endfacet
  facet normal 0 0 1
    outer loop
      vertex -31 -31 3
      vertex -31 31 3
      vertex -80 60 3
    endloop
  endfacet
  facet normal -0.951057 -0.309017 0
    outer loop
      vertex -79.7815 -62.0791 0
      vertex -79.1355 -64.0674 0
      vertex -79.7815 -62.0791 3
    endloop
  endfacet
  facet normal -0.951057 -0.309017 0
    outer loop
      vertex -79.7815 -62.0791 3
      vertex -79.1355 -64.0674 0
      vertex -79.1355 -64.0674 3
    endloop
  endfacet
  facet normal -0.866025 -0.5 0
    outer loop
      vertex -79.1355 -64.0674 0
      vertex -78.0902 -65.8779 0
      vertex -79.1355 -64.0674 3
    endloop
  endfacet
  facet normal -0.866025 -0.5 0
    outer loop
      vertex -79.1355 -64.0674 3
      vertex -78.0902 -65.8779 0
      vertex -78.0902 -65.8779 3
    endloop
  endfacet
  facet normal -0.743145 -0.669131 0
    outer loop
      vertex -78.0902 -65.8779 0
      vertex -76.6913 -67.4314 0
      vertex -78.0902 -65.8779 3
    endloop
  endfacet
  facet normal -0.743145 -0.669131 0
    outer loop
      vertex -78.0902 -65.8779 3
      vertex -76.6913 -67.4314 0
      vertex -76.6913 -67.4314 3
    endloop
  endfacet
  facet normal -0.587785 -0.809017 0
    outer loop
      vertex -76.6913 -67.4314 3
      vertex -76.6913 -67.4314 0
      vertex -75 -68.6603 0
    endloop
  endfacet
  facet normal -0.587785 -0.809017 0
    outer loop
      vertex -75 -68.6603 3
      vertex -76.6913 -67.4314 3
      vertex -75 -68.6603 0
    endloop
  endfacet
  facet normal -0.406737 -0.913545 0
    outer loop
      vertex -75 -68.6603 3
      vertex -75 -68.6603 0
      vertex -73.0902 -69.5106 0
    endloop
  endfacet
  facet normal -0.406737 -0.913545 0
    outer loop
      vertex -73.0902 -69.5106 3
      vertex -75 -68.6603 3
      vertex -73.0902 -69.5106 0
    endloop
  endfacet
  facet normal -0.207912 -0.978148 0
    outer loop
      vertex -73.0902 -69.5106 3
      vertex -73.0902 -69.5106 0
      vertex -71.0453 -69.9452 0
    endloop
  endfacet
  facet normal -0.207912 -0.978148 0
    outer loop
      vertex -71.0453 -69.9452 3
      vertex -73.0902 -69.5106 3
      vertex -71.0453 -69.9452 0
    endloop
  endfacet
  facet normal 0 -1 0
    outer loop
      vertex -71.0453 -69.9452 3
      vertex -71.0453 -69.9452 0
      vertex 71.0453 -69.9452 0
    endloop
  endfacet
  facet normal 0 -1 0
    outer loop
      vertex 71.0453 -69.9452 3
      vertex -71.0453 -69.9452 3
      vertex 71.0453 -69.9452 0
    endloop
  endfacet
  facet normal 0.207912 -0.978148 0
    outer loop
      vertex 71.0453 -69.9452 3
      vertex 71.0453 -69.9452 0
      vertex 73.0902 -69.5106 0
    endloop
  endfacet
  facet normal 0.207912 -0.978148 0
    outer loop
      vertex 73.0902 -69.5106 3
      vertex 71.0453 -69.9452 3
      vertex 73.0902 -69.5106 0
    endloop
  endfacet
  facet normal 0.406737 -0.913545 0
    outer loop
      vertex 73.0902 -69.5106 3
      vertex 73.0902 -69.5106 0
      vertex 75 -68.6603 0
    endloop
  endfacet
  facet normal 0.406737 -0.913545 0
    outer loop
      vertex 75 -68.6603 3
      vertex 73.0902 -69.5106 3
      vertex 75 -68.6603 0
    endloop
  endfacet
  facet normal 0.587785 -0.809017 0
    outer loop
      vertex 75 -68.6603 3
      vertex 75 -68.6603 0
      vertex 76.6913 -67.4314 0
    endloop
  endfacet
  facet normal 0.587785 -0.809017 0
    outer loop
      vertex 76.6913 -67.4314 3
      vertex 75 -68.6603 3
      vertex 76.6913 -67.4314 0
    endloop
  endfacet
  facet normal 0.743145 -0.669131 0
    outer loop
      vertex 76.6913 -67.4314 3
      vertex 76.6913 -67.4314 0
      vertex 78.0902 -65.8779 0
    endloop
  endfacet
  facet normal 0.743145 -0.669131 0
    outer loop
      vertex 78.0902 -65.8779 3
      vertex 76.6913 -67.4314 3
      vertex 78.0902 -65.8779 0
    endloop
  endfacet
  facet normal 0.866025 -0.5 0
    outer loop
      vertex 78.0902 -65.8779 3
      vertex 78.0902 -65.8779 0
      vertex 79.1355 -64.0674 0
    endloop
  endfacet
  facet normal 0.866025 -0.5 0
    outer loop
      vertex 79.1355 -64.0674 3
      vertex 78.0902 -65.8779 3
      vertex 79.1355 -64.0674 0
    endloop
  endfacet
  facet normal 0.951057 -0.309017 0
    outer loop
      vertex 79.1355 -64.0674 3
      vertex 79.1355 -64.0674 0
      vertex 79.7815 -62.0791 0
    endloop
  endfacet
  facet normal 0.951057 -0.309017 0
    outer loop
      vertex 79.7815 -62.0791 3
      vertex 79.1355 -64.0674 3
      vertex 79.7815 -62.0791 0
    endloop
  endfacet
  facet normal 0.994522 -0.104528 0
    outer loop
      vertex 79.7815 -62.0791 3
      vertex 79.7815 -62.0791 0
      vertex 80 -60 0
    endloop
  endfacet
  facet normal 0.994522 -0.104528 0
    outer loop
      vertex 80 -60 3
      vertex 79.7815 -62.0791 3
      vertex 80 -60 0
    endloop
  endfacet
  facet normal 1 0 0
    outer loop
      vertex 80 -60 3
      vertex 80 -60 0
      vertex 80 60 0
    endloop
  endfacet
  facet normal 1 0 0
    outer loop
      vertex 80 60 3
      vertex 80 -60 3
      vertex 80 60 0
    endloop
  endfacet
  facet normal 0.994522 0.104528 0
    outer loop
      vertex 80 60 0
      vertex 79.7815 62.0791 0
      vertex 79.7815 62.0791 3
    endloop
  endfacet
  facet normal 0.994522 0.104528 0
    outer loop
      vertex 80 60 3
      vertex 80 60 0
      vertex 79.7815 62.0791 3
    endloop
  endfacet
  facet normal 0.951057 0.309017 0
    outer loop
      vertex 79.7815 62.0791 0
      vertex 79.1355 64.0674 0
      vertex 79.1355 64.0674 3
    endloop
  endfacet
  facet normal 0.951057 0.309017 0
    outer loop
      vertex 79.7815 62.0791 3
      vertex 79.7815 62.0791 0
      vertex 79.1355 64.0674 3
    endloop
  endfacet
  facet normal 0.866025 0.5 0
    outer loop
      vertex 79.1355 64.0674 0
      vertex 78.0902 65.8779 0
      vertex 78.0902 65.8779 3
    endloop
  endfacet
  facet normal 0.866025 0.5 0
    outer loop
      vertex 79.1355 64.0674 3
      vertex 79.1355 64.0674 0
      vertex 78.0902 65.8779 3
    endloop
  endfacet
  facet normal 0.743145 0.669131 0
    outer loop
      vertex 78.0902 65.8779 0
      vertex 76.6913 67.4314 0
      vertex 76.6913 67.4314 3
    endloop
  endfacet
  facet normal 0.743145 0.669131 0
    outer loop
      vertex 78.0902 65.8779 3
      vertex 78.0902 65.8779 0
      vertex 76.6913 67.4314 3
    endloop
  endfacet
  facet normal 0.587785 0.809017 0
    outer loop
      vertex 75 68.6603 0
      vertex 75 68.6603 3
      vertex 76.6913 67.4314 0
    endloop
  endfacet
  facet normal 0.587785 0.809017 0
    outer loop
      vertex 76.6913 67.4314 0
      vertex 75 68.6603 3
      vertex 76.6913 67.4314 3
    endloop
  endfacet
  facet normal 0.406737 0.913545 0
    outer loop
      vertex 73.0902 69.5106 0
      vertex 73.0902 69.5106 3
      vertex 75 68.6603 0
    endloop
  endfacet
  facet normal 0.406737 0.913545 0
    outer loop
      vertex 75 68.6603 0
      vertex 73.0902 69.5106 3
      vertex 75 68.6603 3
    endloop
  endfacet
  facet normal 0.207912 0.978148 0
    outer loop
      vertex 71.0453 69.9452 0
      vertex 71.0453 69.9452 3
      vertex 73.0902 69.5106 0
    endloop
  endfacet
  facet normal 0.207912 0.978148 0
    outer loop
      vertex 73.0902 69.5106 0
      vertex 71.0453 69.9452 3
      vertex 73.0902 69.5106 3
    endloop
  endfacet
  facet normal 0 1 0
    outer loop
      vertex -71.0453 69.9452 0
      vertex -71.0453 69.9452 3
      vertex 71.0453 69.9452 0
    endloop
  endfacet
  facet normal 0 1 0
    outer loop
      vertex 71.0453 69.9452 0
      vertex -71.0453 69.9452 3
      vertex 71.0453 69.9452 3
    endloop
  endfacet
  facet normal -0.207912 0.978148 0
    outer loop
      vertex -73.0902 69.5106 0
      vertex -73.0902 69.5106 3
      vertex -71.0453 69.9452 0
    endloop
  endfacet
  facet normal -0.207912 0.978148 0
    outer loop
      vertex -71.0453 69.9452 0
      vertex -73.0902 69.5106 3
      vertex -71.0453 69.9452 3
    endloop
  endfacet
  facet normal -0.406737 0.913545 0
    outer loop
      vertex -75 68.6603 0
      vertex -75 68.6603 3
      vertex -73.0902 69.5106 0
    endloop
  endfacet
  facet normal -0.406737 0.913545 0
    outer loop
      vertex -73.0902 69.5106 0
      vertex -75 68.6603 3
      vertex -73.0902 69.5106 3
    endloop
  endfacet
  facet normal -0.587785 0.809017 0
    outer loop
      vertex -76.6913 67.4314 0
      vertex -76.6913 67.4314 3
      vertex -75 68.6603 0
    endloop
  endfacet
  facet normal -0.587785 0.809017 0
    outer loop
      vertex -75 68.6603 0
      vertex -76.6913 67.4314 3
      vertex -75 68.6603 3
    endloop
  endfacet
  facet normal -0.743145 0.669131 0
    outer loop
      vertex -78.0902 65.8779 0
      vertex -78.0902 65.8779 3
      vertex -76.6913 67.4314 0
    endloop
  endfacet
  facet normal -0.743145 0.669131 0
    outer loop
      vertex -76.6913 67.4314 0
      vertex -78.0902 65.8779 3
      vertex -76.6913 67.4314 3
    endloop
  endfacet
  facet normal -0.866025 0.5 0
    outer loop
      vertex -79.1355 64.0674 0
      vertex -79.1355 64.0674 3
      vertex -78.0902 65.8779 0
    endloop
  endfacet
  facet normal -0.866025 0.5 0
    outer loop
      vertex -78.0902 65.8779 0
      vertex -79.1355 64.0674 3
      vertex -78.0902 65.8779 3
    endloop
  endfacet
  facet normal -0.951057 0.309017 0
    outer loop
      vertex -79.7815 62.0791 0
      vertex -79.7815 62.0791 3
      vertex -79.1355 64.0674 0
    endloop
  endfacet
  facet normal -0.951057 0.309017 0
    outer loop
      vertex -79.1355 64.0674 0
      vertex -79.7815 62.0791 3
      vertex -79.1355 64.0674 3
    endloop
  endfacet
  facet normal 1 0 0
    outer loop
      vertex -29 -0.881678 8.71353
      vertex -29 29 13
      vertex -29 -29 13
    endloop
  endfacet
  facet normal 1 0 0
    outer loop
      vertex -29 0.881678 8.71353
      vertex -29 29 13
      vertex -29 -0.881678 8.71353
    endloop
  endfacet
  facet normal 1 0 0
    outer loop
      vertex -29 29 0
      vertex -29 29 13
      vertex -29 0.881678 8.71353
    endloop
  endfacet
  facet normal 1 0 0
    outer loop
      vertex -29 0.881678 8.71353
      vertex -29 1.42658 7.03648
      vertex -29 29 0
    endloop
  endfacet
  facet normal 1 0 0
    outer loop
      vertex -29 0 6
      vertex -29 -1.42658 7.03648
      vertex -29 -29 13
    endloop
  endfacet
  facet normal 1 0 0
    outer loop
      vertex -29 -29 0
      vertex -29 0 6
      vertex -29 -29 13
    endloop
  endfacet
  facet normal 1 0 0
    outer loop
      vertex -29 -29 0
      vertex -29 29 0
      vertex -29 0 6
    endloop
  endfacet
  facet normal 1 0 0
    outer loop
      vertex -29 -1.42658 7.03648
      vertex -29 -0.881678 8.71353
      vertex -29 -29 13
    endloop
  endfacet
  facet normal 1 0 0
    outer loop
      vertex -29 1.42658 7.03648
      vertex -29 0 6
      vertex -29 29 0
    endloop
  endfacet
  facet normal 0 -1 0
    outer loop
      vertex 0.463525 29 8.92659
      vertex 29 29 13
      vertex -29 29 13
    endloop
  endfacet
  facet normal 0 -1 0
    outer loop
      vertex 0.463525 29 8.92659
      vertex 1.5 29 7.5
      vertex 29 29 0
    endloop
  endfacet
  facet normal 0 -1 0
    outer loop
      vertex 1.5 29 7.5
      vertex 0.463525 29 6.07342
      vertex 29 29 0
    endloop
  endfacet
  facet normal 0 -1 0
    outer loop
      vertex -1.21352 29 8.38168
      vertex 0.463525 29 8.92659
      vertex -29 29 13
    endloop
  endfacet
  facet normal 0 -1 0
    outer loop
      vertex 0.463525 29 8.92659
      vertex 29 29 0
      vertex 29 29 13
    endloop
  endfacet
  facet normal 0 -1 0
    outer loop
      vertex -29 29 0
      vertex 0.463525 29 6.07342
      vertex -29 29 13
    endloop
  endfacet
  facet normal 0 -1 0
    outer loop
      vertex -29 29 0
      vertex 29 29 0
      vertex 0.463525 29 6.07342
    endloop
  endfacet
  facet normal 0 -1 0
    outer loop
      vertex 0.463525 29 6.07342
      vertex -1.21352 29 6.61832
      vertex -29 29 13
    endloop
  endfacet
  facet normal 0 -1 0
    outer loop
      vertex -1.21352 29 6.61832
      vertex -1.21352 29 8.38168
      vertex -29 29 13
    endloop
  endfacet
  facet normal -1 0 0
    outer loop
      vertex 29 0 6
      vertex 29 29 0
      vertex 29 -29 0
    endloop
  endfacet
  facet normal -1 0 0
    outer loop
      vertex 29 0.881678 8.71353
      vertex 29 29 13
      vertex 29 1.42658 7.03648
    endloop
  endfacet
  facet normal -1 0 0
    outer loop
      vertex 29 -0.881678 8.71353
      vertex 29 -1.42658 7.03648
      vertex 29 -29 13
    endloop
  endfacet
  facet normal -1 0 0
    outer loop
      vertex 29 1.42658 7.03648
      vertex 29 29 0
      vertex 29 0 6
    endloop
  endfacet
  facet normal -1 0 0
    outer loop
      vertex 29 -29 13
      vertex 29 0 6
      vertex 29 -29 0
    endloop
  endfacet
  facet normal -1 0 0
    outer loop
      vertex 29 29 13
      vertex 29 29 0
      vertex 29 1.42658 7.03648
    endloop
  endfacet
  facet normal -1 0 0
    outer loop
      vertex 29 29 13
      vertex 29 0.881678 8.71353
      vertex 29 -29 13
    endloop
  endfacet
  facet normal -1 0 0
    outer loop
      vertex 29 0.881678 8.71353
      vertex 29 -0.881678 8.71353
      vertex 29 -29 13
    endloop
  endfacet
  facet normal -1 0 0
    outer loop
      vertex 29 0 6
      vertex 29 -29 13
      vertex 29 -1.42658 7.03648
    endloop
  endfacet
  facet normal 0 1 0
    outer loop
      vertex 0.463525 -29 6.07342
      vertex 29 -29 0
      vertex -29 -29 0
    endloop
  endfacet
  facet normal 0 1 0
    outer loop
      vertex 1.5 -29 7.5
      vertex 29 -29 0
      vertex 0.463525 -29 6.07342
    endloop
  endfacet
  facet normal 0 1 0
    outer loop
      vertex -29 -29 13
      vertex -1.21352 -29 6.61832
      vertex -29 -29 0
    endloop
  endfacet
  facet normal 0 1 0
    outer loop
      vertex -1.21352 -29 6.61832
      vertex 0.463525 -29 6.07342
      vertex -29 -29 0
    endloop
  endfacet
  facet normal 0 1 0
    outer loop
      vertex 29 -29 13
      vertex 29 -29 0
      vertex 1.5 -29 7.5
    endloop
  endfacet
  facet normal 0 1 0
    outer loop
      vertex 29 -29 13
      vertex 1.5 -29 7.5
      vertex 0.463525 -29 8.92659
    endloop
  endfacet
  facet normal 0 1 0
    outer loop
      vertex 29 -29 13
      vertex 0.463525 -29 8.92659
      vertex -29 -29 13
    endloop
  endfacet
  facet normal 0 1 0
    outer loop
      vertex 0.463525 -29 8.92659
      vertex -1.21352 -29 8.38168
      vertex -29 -29 13
    endloop
  endfacet
  facet normal 0 1 0
    outer loop
      vertex -1.21352 -29 6.61832
      vertex -29 -29 13
      vertex -1.21352 -29 8.38168
    endloop
  endfacet
  facet normal -1 0 0
    outer loop
      vertex -31 -0.881678 8.71353
      vertex -31 -31 13
      vertex -31 31 13
    endloop
  endfacet
  facet normal -1 0 0
    outer loop
      vertex -31 0.881678 8.71353
      vertex -31 -0.881678 8.71353
      vertex -31 31 13
    endloop
  endfacet
  facet normal -1 0 0
    outer loop
      vertex -31 -31 3
      vertex -31 -31 13
      vertex -31 -1.42658 7.03648
    endloop
  endfacet
  facet normal -1 0 0
    outer loop
      vertex -31 -31 3
      vertex -31 -1.42658 7.03648
      vertex -31 0 6
    endloop
  endfacet
  facet normal -1 0 0
    outer loop
      vertex -31 -31 3
      vertex -31 0 6
      vertex -31 31 3
    endloop
  endfacet
  facet normal -1 0 0
    outer loop
      vertex -31 1.42658 7.03648
      vertex -31 31 3
      vertex -31 0 6
    endloop
  endfacet
  facet normal -1 0 0
    outer loop
      vertex -31 0.881678 8.71353
      vertex -31 31 3
      vertex -31 1.42658 7.03648
    endloop
  endfacet
  facet normal -1 0 0
    outer loop
      vertex -31 31 3
      vertex -31 0.881678 8.71353
      vertex -31 31 13
    endloop
  endfacet
  facet normal -1 0 0
    outer loop
      vertex -31 -1.42658 7.03648
      vertex -31 -31 13
      vertex -31 -0.881678 8.71353
    endloop
  endfacet
  facet normal 0 -1 0
    outer loop
      vertex 0.463525 -31 6.07342
      vertex -31 -31 3
      vertex 31 -31 3
    endloop
  endfacet
  facet normal 0 -1 0
    outer loop
      vertex -31 -31 13
      vertex -31 -31 3
      vertex -1.21352 -31 6.61832
    endloop
  endfacet
  facet normal 0 -1 0
    outer loop
      vertex 1.5 -31 7.5
      vertex 0.463525 -31 6.07342
      vertex 31 -31 3
    endloop
  endfacet
  facet normal 0 -1 0
    outer loop
      vertex 0.463525 -31 8.92659
      vertex -31 -31 13
      vertex -1.21352 -31 8.38168
    endloop
  endfacet
  facet normal 0 -1 0
    outer loop
      vertex 31 -31 13
      vertex -31 -31 13
      vertex 0.463525 -31 8.92659
    endloop
  endfacet
  facet normal 0 -1 0
    outer loop
      vertex 0.463525 -31 8.92659
      vertex 31 -31 3
      vertex 31 -31 13
    endloop
  endfacet
  facet normal 0 -1 0
    outer loop
      vertex 0.463525 -31 8.92659
      vertex 1.5 -31 7.5
      vertex 31 -31 3
    endloop
  endfacet
  facet normal 0 -1 0
    outer loop
      vertex -1.21352 -31 6.61832
      vertex -31 -31 3
      vertex 0.463525 -31 6.07342
    endloop
  endfacet
  facet normal 0 -1 0
    outer loop
      vertex -1.21352 -31 6.61832
      vertex -1.21352 -31 8.38168
      vertex -31 -31 13
    endloop
  endfacet
  facet normal 1 0 0
    outer loop
      vertex 31 0 6
      vertex 31 -31 3
      vertex 31 31 3
    endloop
  endfacet
  facet normal 1 0 0
    outer loop
      vertex 31 -31 13
      vertex 31 -31 3
      vertex 31 -1.42658 7.03648
    endloop
  endfacet
  facet normal 1 0 0
    outer loop
      vertex 31 1.42658 7.03648
      vertex 31 0 6
      vertex 31 31 3
    endloop
  endfacet
  facet normal 1 0 0
    outer loop
      vertex 31 31 13
      vertex 31 -31 13
      vertex 31 -0.881678 8.71353
    endloop
  endfacet
  facet normal 1 0 0
    outer loop
      vertex 31 31 13
      vertex 31 0.881678 8.71353
      vertex 31 31 3
    endloop
  endfacet
  facet normal 1 0 0
    outer loop
      vertex 31 31 13
      vertex 31 -0.881678 8.71353
      vertex 31 0.881678 8.71353
    endloop
  endfacet
  facet normal 1 0 0
    outer loop
      vertex 31 0.881678 8.71353
      vertex 31 1.42658 7.03648
      vertex 31 31 3
    endloop
  endfacet
  facet normal 1 0 0
    outer loop
      vertex 31 -1.42658 7.03648
      vertex 31 -31 3
      vertex 31 0 6
    endloop
  endfacet
  facet normal 1 0 0
    outer loop
      vertex 31 -1.42658 7.03648
      vertex 31 -0.881678 8.71353
      vertex 31 -31 13
    endloop
  endfacet
  facet normal 0 1 0
    outer loop
      vertex 0.463525 31 8.92659
      vertex -31 31 13
      vertex 31 31 13
    endloop
  endfacet
  facet normal 0 1 0
    outer loop
      vertex -31 31 3
      vertex -31 31 13
      vertex -1.21352 31 6.61832
    endloop
  endfacet
  facet normal 0 1 0
    outer loop
      vertex 0.463525 31 8.92659
      vertex 31 31 3
      vertex 1.5 31 7.5
    endloop
  endfacet
  facet normal 0 1 0
    outer loop
      vertex -31 31 3
      vertex -1.21352 31 6.61832
      vertex 0.463525 31 6.07342
    endloop
  endfacet
  facet normal 0 1 0
    outer loop
      vertex -31 31 3
      vertex 0.463525 31 6.07342
      vertex 31 31 3
    endloop
  endfacet
  facet normal 0 1 0
    outer loop
      vertex 1.5 31 7.5
      vertex 31 31 3
      vertex 0.463525 31 6.07342
    endloop
  endfacet
  facet normal 0 1 0
    outer loop
      vertex 0.463525 31 8.92659
      vertex 31 31 13
      vertex 31 31 3
    endloop
  endfacet
  facet normal 0 1 0
    outer loop
      vertex -1.21352 31 8.38168
      vertex -31 31 13
      vertex 0.463525 31 8.92659
    endloop
  endfacet
  facet normal 0 1 0
    outer loop
      vertex -1.21352 31 6.61832
      vertex -31 31 13
      vertex -1.21352 31 8.38168
    endloop
  endfacet
  facet normal 0 0 1
    outer loop
      vertex -29 -29 13
      vertex -31 -31 13
      vertex 31 -31 13
    endloop
  endfacet
  facet normal 0 0 1
    outer loop
      vertex -29 29 13
      vertex -31 31 13
      vertex -29 -29 13
    endloop
  endfacet
  facet normal 0 0 1
    outer loop
      vertex 29 -29 13
      vertex -29 -29 13
      vertex 31 -31 13
    endloop
  endfacet
  facet normal 0 0 1
    outer loop
      vertex -31 31 13
      vertex -31 -31 13
      vertex -29 -29 13
    endloop
  endfacet
  facet normal 0 0 1
    outer loop
      vertex 31 31 13
      vertex -31 31 13
      vertex -29 29 13
    endloop
  endfacet
  facet normal 0 0 1
    outer loop
      vertex 31 31 13
      vertex 29 29 13
      vertex 31 -31 13
    endloop
  endfacet
  facet normal 0 0 1
    outer loop
      vertex 31 31 13
      vertex -29 29 13
      vertex 29 29 13
    endloop
  endfacet
  facet normal 0 0 1
    outer loop
      vertex 29 29 13
      vertex 29 -29 13
      vertex 31 -31 13
    endloop
  endfacet
  facet normal 6.86156e-017 0.951056 -0.309017
    outer loop
      vertex -29 -0.881678 8.71353
      vertex -29 -1.42658 7.03648
      vertex -31 -0.881678 8.71353
    endloop
  endfacet
  facet normal 6.86156e-017 0.951056 -0.309017
    outer loop
      vertex -31 -0.881678 8.71353
      vertex -29 -1.42658 7.03648
      vertex -31 -1.42658 7.03648
    endloop
  endfacet
  facet normal 2.22045e-016 0 -1
    outer loop
      vertex -29 0.881678 8.71353
      vertex -29 -0.881678 8.71353
      vertex -31 0.881678 8.71353
    endloop
  endfacet
  facet normal 2.22045e-016 0 -1
    outer loop
      vertex -31 0.881678 8.71353
      vertex -29 -0.881678 8.71353
      vertex -31 -0.881678 8.71353
    endloop
  endfacet
  facet normal -1.79638e-016 0.587785 0.809017
    outer loop
      vertex -29 -1.42658 7.03648
      vertex -29 0 6
      vertex -31 0 6
    endloop
  endfacet
  facet normal -1.79638e-016 0.587785 0.809017
    outer loop
      vertex -31 -1.42658 7.03648
      vertex -29 -1.42658 7.03648
      vertex -31 0 6
    endloop
  endfacet
  facet normal -1.79638e-016 -0.587785 0.809017
    outer loop
      vertex -29 0 6
      vertex -29 1.42658 7.03648
      vertex -31 1.42658 7.03648
    endloop
  endfacet
  facet normal -1.79638e-016 -0.587785 0.809017
    outer loop
      vertex -31 0 6
      vertex -29 0 6
      vertex -31 1.42658 7.03648
    endloop
  endfacet
  facet normal 6.86156e-017 -0.951056 -0.309017
    outer loop
      vertex -31 1.42658 7.03648
      vertex -29 1.42658 7.03648
      vertex -29 0.881678 8.71353
    endloop
  endfacet
  facet normal 6.86156e-017 -0.951056 -0.309017
    outer loop
      vertex -31 0.881678 8.71353
      vertex -31 1.42658 7.03648
      vertex -29 0.881678 8.71353
    endloop
  endfacet
  facet normal 1 0 0
    outer loop
      vertex -1.21352 31 6.61832
      vertex -1.21352 31 8.38168
      vertex -1.21352 29 8.38168
    endloop
  endfacet
  facet normal 1 0 0
    outer loop
      vertex -1.21352 29 6.61832
      vertex -1.21352 31 6.61832
      vertex -1.21352 29 8.38168
    endloop
  endfacet
  facet normal 0.309017 -2.11177e-016 -0.951056
    outer loop
      vertex 0.463525 31 8.92659
      vertex 0.463525 29 8.92659
      vertex -1.21352 31 8.38168
    endloop
  endfacet
  facet normal 0.309017 -2.11177e-016 -0.951056
    outer loop
      vertex -1.21352 31 8.38168
      vertex 0.463525 29 8.92659
      vertex -1.21352 29 8.38168
    endloop
  endfacet
  facet normal 0.309017 2.11177e-016 0.951056
    outer loop
      vertex 0.463525 29 6.07342
      vertex 0.463525 31 6.07342
      vertex -1.21352 31 6.61832
    endloop
  endfacet
  facet normal 0.309017 2.11177e-016 0.951056
    outer loop
      vertex -1.21352 29 6.61832
      vertex 0.463525 29 6.07342
      vertex -1.21352 31 6.61832
    endloop
  endfacet
  facet normal -0.809017 1.30515e-016 0.587785
    outer loop
      vertex 1.5 31 7.5
      vertex 0.463525 31 6.07342
      vertex 1.5 29 7.5
    endloop
  endfacet
  facet normal -0.809017 1.30515e-016 0.587785
    outer loop
      vertex 1.5 29 7.5
      vertex 0.463525 31 6.07342
      vertex 0.463525 29 6.07342
    endloop
  endfacet
  facet normal -0.809017 -1.30515e-016 -0.587785
    outer loop
      vertex 1.5 31 7.5
      vertex 1.5 29 7.5
      vertex 0.463525 31 8.92659
    endloop
  endfacet
  facet normal -0.809017 -1.30515e-016 -0.587785
    outer loop
      vertex 0.463525 31 8.92659
      vertex 1.5 29 7.5
      vertex 0.463525 29 8.92659
    endloop
  endfacet
  facet normal -1.79638e-016 0.587785 0.809017
    outer loop
      vertex 31 -1.42658 7.03648
      vertex 31 0 6
      vertex 29 0 6
    endloop
  endfacet
  facet normal -1.79638e-016 0.587785 0.809017
    outer loop
      vertex 29 -1.42658 7.03648
      vertex 31 -1.42658 7.03648
      vertex 29 0 6
    endloop
  endfacet
  facet normal 6.86156e-017 0.951056 -0.309017
    outer loop
      vertex 31 -0.881678 8.71353
      vertex 31 -1.42658 7.03648
      vertex 29 -0.881678 8.71353
    endloop
  endfacet
  facet normal 6.86156e-017 0.951056 -0.309017
    outer loop
      vertex 29 -0.881678 8.71353
      vertex 31 -1.42658 7.03648
      vertex 29 -1.42658 7.03648
    endloop
  endfacet
  facet normal 2.22045e-016 0 -1
    outer loop
      vertex 31 0.881678 8.71353
      vertex 31 -0.881678 8.71353
      vertex 29 0.881678 8.71353
    endloop
  endfacet
  facet normal 2.22045e-016 0 -1
    outer loop
      vertex 29 0.881678 8.71353
      vertex 31 -0.881678 8.71353
      vertex 29 -0.881678 8.71353
    endloop
  endfacet
  facet normal 6.86156e-017 -0.951056 -0.309017
    outer loop
      vertex 29 1.42658 7.03648
      vertex 31 1.42658 7.03648
      vertex 31 0.881678 8.71353
    endloop
  endfacet
  facet normal 6.86156e-017 -0.951056 -0.309017
    outer loop
      vertex 29 0.881678 8.71353
      vertex 29 1.42658 7.03648
      vertex 31 0.881678 8.71353
    endloop
  endfacet
  facet normal -1.79638e-016 -0.587785 0.809017
    outer loop
      vertex 31 0 6
      vertex 31 1.42658 7.03648
      vertex 29 1.42658 7.03648
    endloop
  endfacet
  facet normal -1.79638e-016 -0.587785 0.809017
    outer loop
      vertex 29 0 6
      vertex 31 0 6
      vertex 29 1.42658 7.03648
    endloop
  endfacet
  facet normal 1 0 0
    outer loop
      vertex -1.21352 -29 6.61832
      vertex -1.21352 -29 8.38168
      vertex -1.21352 -31 8.38168
    endloop
  endfacet
  facet normal 1 0 0
    outer loop
      vertex -1.21352 -31 6.61832
      vertex -1.21352 -29 6.61832
      vertex -1.21352 -31 8.38168
    endloop
  endfacet
  facet normal 0.309017 2.11177e-016 0.951056
    outer loop
      vertex 0.463525 -31 6.07342
      vertex 0.463525 -29 6.07342
      vertex -1.21352 -29 6.61832
    endloop
  endfacet
  facet normal 0.309017 2.11177e-016 0.951056
    outer loop
      vertex -1.21352 -31 6.61832
      vertex 0.463525 -31 6.07342
      vertex -1.21352 -29 6.61832
    endloop
  endfacet
  facet normal 0.309017 -2.11177e-016 -0.951056
    outer loop
      vertex 0.463525 -29 8.92659
      vertex 0.463525 -31 8.92659
      vertex -1.21352 -29 8.38168
    endloop
  endfacet
  facet normal 0.309017 -2.11177e-016 -0.951056
    outer loop
      vertex -1.21352 -29 8.38168
      vertex 0.463525 -31 8.92659
      vertex -1.21352 -31 8.38168
    endloop
  endfacet
  facet normal -0.809017 -1.30515e-016 -0.587785
    outer loop
      vertex 1.5 -29 7.5
      vertex 1.5 -31 7.5
      vertex 0.463525 -29 8.92659
    endloop
  endfacet
  facet normal -0.809017 -1.30515e-016 -0.587785
    outer loop
      vertex 0.463525 -29 8.92659
      vertex 1.5 -31 7.5
      vertex 0.463525 -31 8.92659
    endloop
  endfacet
  facet normal -0.809017 1.30515e-016 0.587785
    outer loop
      vertex 1.5 -29 7.5
      vertex 0.463525 -29 6.07342
      vertex 1.5 -31 7.5
    endloop
  endfacet
  facet normal -0.809017 1.30515e-016 0.587785
    outer loop
      vertex 1.5 -31 7.5
      vertex 0.463525 -29 6.07342
      vertex 0.463525 -31 6.07342
    endloop
  endfacet
endsolid OpenSCAD_Model
