G04 MADE WITH FRITZING*
G04 WWW.FRITZING.ORG*
G04 DOUBLE SIDED*
G04 HOLES PLATED*
G04 CONTOUR ON CENTER OF CONTOUR VECTOR*
%ASAXBY*%
%FSLAX23Y23*%
%MOIN*%
%OFA0B0*%
%SFA1.0B1.0*%
%ADD10C,0.075833*%
%ADD11C,0.075000*%
%ADD12C,0.059000*%
%ADD13C,0.054000*%
%ADD14C,0.070000*%
%ADD15C,0.082000*%
%ADD16C,0.039370*%
%ADD17R,0.075000X0.075000*%
%ADD18R,0.059000X0.059000*%
%ADD19R,0.054000X0.054000*%
%ADD20R,0.082000X0.082000*%
%ADD21C,0.024000*%
%LNCOPPER0*%
G90*
G70*
G54D10*
X2002Y1964D03*
X2002Y1864D03*
X2002Y1757D03*
X2002Y1657D03*
X2002Y1557D03*
X2002Y1457D03*
X2002Y1357D03*
X2002Y1257D03*
X2002Y1157D03*
X2002Y1057D03*
X2002Y887D03*
X2002Y787D03*
X2002Y687D03*
X2002Y587D03*
X2002Y487D03*
X2002Y387D03*
X2002Y287D03*
X2002Y187D03*
X102Y1587D03*
X102Y1487D03*
X102Y1387D03*
X102Y1287D03*
X102Y1187D03*
X102Y1087D03*
X102Y987D03*
X102Y887D03*
X102Y687D03*
X102Y587D03*
X102Y487D03*
X102Y387D03*
X102Y287D03*
X102Y187D03*
G54D11*
X1502Y1287D03*
X1802Y1287D03*
X1502Y1187D03*
X1802Y1187D03*
X1502Y1087D03*
X1802Y1087D03*
X1502Y987D03*
X1802Y987D03*
X1502Y887D03*
X1802Y887D03*
X1502Y787D03*
X1802Y787D03*
X1502Y687D03*
X1802Y687D03*
X1502Y587D03*
X1802Y587D03*
X1502Y487D03*
X1802Y487D03*
X1502Y387D03*
X1802Y387D03*
G54D12*
X1802Y187D03*
X1702Y187D03*
X1602Y187D03*
X502Y87D03*
X602Y87D03*
X702Y87D03*
X802Y87D03*
X902Y87D03*
X1002Y87D03*
X1102Y87D03*
X1202Y87D03*
X502Y187D03*
X602Y187D03*
X702Y187D03*
X802Y187D03*
X902Y187D03*
X1002Y187D03*
X1102Y187D03*
X1202Y187D03*
G54D11*
X802Y1487D03*
X1102Y1487D03*
X802Y1387D03*
X1102Y1387D03*
X802Y1287D03*
X1102Y1287D03*
X802Y1187D03*
X1102Y1187D03*
X802Y1087D03*
X1102Y1087D03*
X802Y987D03*
X1102Y987D03*
X802Y887D03*
X1102Y887D03*
X802Y787D03*
X1102Y787D03*
X802Y687D03*
X1102Y687D03*
X802Y587D03*
X1102Y587D03*
X802Y487D03*
X1102Y487D03*
X802Y387D03*
X1102Y387D03*
G54D12*
X1302Y1087D03*
X1302Y987D03*
X1302Y887D03*
X1302Y787D03*
X1302Y687D03*
X1302Y587D03*
X1302Y487D03*
X602Y1087D03*
X602Y987D03*
X602Y887D03*
X602Y787D03*
X602Y687D03*
X602Y587D03*
X602Y487D03*
G54D13*
X1502Y1487D03*
X1202Y1487D03*
G54D14*
X602Y1887D03*
X602Y1687D03*
G54D11*
X302Y1087D03*
X402Y1087D03*
X302Y1337D03*
X202Y1337D03*
X802Y1787D03*
X702Y1787D03*
G54D12*
X302Y1587D03*
X402Y1587D03*
X1002Y1787D03*
X1102Y1787D03*
X1702Y1787D03*
X1802Y1787D03*
G54D15*
X1302Y1787D03*
X1402Y1787D03*
X1502Y1787D03*
X202Y1787D03*
X302Y1787D03*
X402Y1787D03*
G54D12*
X402Y687D03*
X402Y587D03*
X402Y487D03*
X402Y387D03*
X302Y687D03*
X302Y587D03*
X302Y487D03*
X302Y387D03*
X202Y687D03*
X202Y587D03*
X202Y487D03*
X202Y387D03*
G54D16*
X303Y287D03*
X303Y1087D03*
G54D17*
X1502Y1287D03*
G54D18*
X1802Y187D03*
X502Y87D03*
X502Y187D03*
G54D17*
X802Y1487D03*
G54D18*
X1302Y1087D03*
X602Y1087D03*
G54D19*
X1502Y1487D03*
G54D17*
X302Y1087D03*
X302Y1337D03*
X802Y1787D03*
G54D18*
X302Y1587D03*
X1002Y1787D03*
X1702Y1787D03*
G54D20*
X1302Y1787D03*
X202Y1787D03*
G54D18*
X402Y687D03*
X302Y687D03*
X202Y687D03*
G54D21*
X779Y876D02*
X622Y797D01*
D02*
X779Y976D02*
X622Y897D01*
D02*
X1077Y887D02*
X1002Y887D01*
D02*
X1202Y1588D02*
X1202Y1508D01*
D02*
X1002Y1585D02*
X1202Y1588D01*
D02*
X1002Y887D02*
X1002Y1585D01*
D02*
X1084Y804D02*
X1100Y788D01*
D02*
X1100Y788D02*
X1103Y785D01*
D02*
X1202Y937D02*
X1202Y1087D01*
D02*
X1151Y836D02*
X1202Y937D01*
D02*
X1202Y1087D02*
X1303Y1087D01*
D02*
X1103Y785D02*
X1151Y836D01*
D02*
X1303Y1087D02*
X1300Y1087D01*
D02*
X1300Y1087D02*
X1279Y1087D01*
D02*
X784Y469D02*
X700Y385D01*
D02*
X700Y385D02*
X503Y388D01*
D02*
X503Y388D02*
X503Y985D01*
D02*
X503Y985D02*
X500Y988D01*
D02*
X500Y988D02*
X579Y987D01*
D02*
X1119Y569D02*
X1103Y585D01*
D02*
X1103Y585D02*
X1100Y585D01*
D02*
X1100Y585D02*
X1103Y585D01*
D02*
X1103Y585D02*
X1103Y588D01*
D02*
X1103Y588D02*
X1202Y588D01*
D02*
X1202Y588D02*
X1202Y687D01*
D02*
X1202Y687D02*
X1202Y836D01*
D02*
X1202Y836D02*
X1252Y937D01*
D02*
X1252Y937D02*
X1285Y970D01*
D02*
X777Y1187D02*
X552Y1187D01*
D02*
X302Y1187D02*
X303Y1106D01*
D02*
X552Y1187D02*
X302Y1187D01*
D02*
X802Y1187D02*
X802Y1212D01*
D02*
X901Y1187D02*
X802Y1187D01*
D02*
X901Y685D02*
X901Y1187D01*
D02*
X802Y685D02*
X901Y685D01*
D02*
X802Y662D02*
X802Y685D01*
D02*
X602Y210D02*
X602Y285D01*
D02*
X602Y285D02*
X1602Y287D01*
D02*
X1602Y287D02*
X1602Y1287D01*
D02*
X1602Y1287D02*
X1527Y1287D01*
D02*
X1782Y1202D02*
X1801Y1187D01*
D02*
X1602Y1287D02*
X1501Y1287D01*
D02*
X1801Y1187D02*
X1602Y1287D01*
D02*
X1501Y1287D02*
X1477Y1287D01*
D02*
X1402Y1287D02*
X1402Y887D01*
D02*
X1402Y887D02*
X1402Y788D01*
D02*
X1103Y1287D02*
X1402Y1287D01*
D02*
X1402Y788D02*
X1325Y787D01*
D02*
X1103Y1388D02*
X1103Y1287D01*
D02*
X1103Y1385D02*
X1103Y1388D01*
D02*
X1119Y1369D02*
X1103Y1385D01*
D02*
X1802Y1657D02*
X1802Y1764D01*
D02*
X1977Y1657D02*
X1802Y1657D01*
D02*
X1802Y187D02*
X1902Y187D01*
D02*
X1902Y187D02*
X1902Y1486D01*
D02*
X1782Y175D02*
X1802Y187D01*
D02*
X1902Y1486D02*
X1701Y1488D01*
D02*
X1701Y1488D02*
X1701Y1687D01*
D02*
X1701Y1687D02*
X1701Y1688D01*
D02*
X1701Y1688D02*
X1702Y1764D01*
D02*
X903Y287D02*
X602Y287D01*
D02*
X602Y287D02*
X322Y287D01*
D02*
X902Y285D02*
X903Y287D01*
D02*
X1603Y285D02*
X902Y285D01*
D02*
X902Y285D02*
X902Y688D01*
D02*
X1602Y387D02*
X1603Y285D01*
D02*
X902Y688D02*
X827Y687D01*
D02*
X1527Y387D02*
X1602Y387D01*
D02*
X1603Y387D02*
X1502Y387D01*
D02*
X1602Y210D02*
X1603Y387D01*
D02*
X1408Y1876D02*
X1404Y1813D01*
D02*
X1200Y1885D02*
X1408Y1876D01*
D02*
X1408Y1876D02*
X802Y1887D01*
D02*
X1802Y1887D02*
X1200Y1885D01*
D02*
X802Y1887D02*
X802Y1812D01*
D02*
X1404Y1813D02*
X1408Y1876D01*
D02*
X1802Y1810D02*
X1802Y1887D01*
D02*
X1402Y1887D02*
X1102Y1887D01*
D02*
X1102Y1887D02*
X1102Y1810D01*
D02*
X1402Y1813D02*
X1402Y1887D01*
D02*
X602Y1887D02*
X303Y1887D01*
D02*
X303Y1887D02*
X302Y1813D01*
D02*
X802Y1887D02*
X802Y1812D01*
D02*
X625Y1887D02*
X802Y1887D01*
D02*
X1528Y1787D02*
X1679Y1787D01*
D02*
X602Y1686D02*
X602Y1663D01*
D02*
X602Y1688D02*
X602Y1686D01*
D02*
X604Y1684D02*
X602Y1688D01*
D02*
X284Y1087D02*
X127Y1087D01*
D02*
X303Y306D02*
X303Y1068D01*
D02*
X302Y664D02*
X302Y610D01*
D02*
X302Y564D02*
X302Y510D01*
D02*
X302Y464D02*
X302Y410D01*
D02*
X202Y1237D02*
X124Y1198D01*
D02*
X552Y1237D02*
X202Y1237D01*
D02*
X552Y1687D02*
X552Y1237D01*
D02*
X604Y1684D02*
X552Y1687D01*
D02*
X618Y1670D02*
X604Y1684D01*
D02*
X202Y1760D02*
X202Y1362D01*
D02*
X402Y710D02*
X402Y1062D01*
G04 End of Copper0*
M02*