M48
M72,TZ
T10C0.034167
T11C0.035000
T12C0.037000
T13C0.030000
T14C0.042000
T15C0.015748
%
T10
X0.101690Y0.186670
X0.101690Y0.286660
X0.101690Y0.386660
X0.101690Y0.486670
X0.101690Y0.586670
X0.101690Y0.686670
X0.101690Y0.886660
X0.101690Y0.986670
X0.101690Y1.086670
X0.101690Y1.186670
X0.101690Y1.286656
X0.101690Y1.386656
X0.101690Y1.486670
X0.101690Y1.586670
X2.001690Y0.186670
X2.001690Y0.286660
X2.001690Y0.386660
X2.001690Y0.486670
X2.001690Y0.586670
X2.001690Y0.686670
X2.001690Y0.786660
X2.001690Y0.886660
X2.001690Y1.056670
X2.001690Y1.156670
X2.001690Y1.256670
X2.001690Y1.356656
X2.001690Y1.456656
X2.001690Y1.556670
X2.001690Y1.656670
X2.001690Y1.756670
X2.001690Y1.863670
X2.001690Y1.963670
T11
X0.701689Y1.786671
X0.801689Y1.786671
X0.201689Y1.336671
X0.301689Y1.336671
X0.401689Y1.086670
X0.301689Y1.086670
X1.101690Y0.386670
X0.801689Y0.386670
X1.101690Y0.486670
X0.801689Y0.486670
X1.101690Y0.586670
X0.801689Y0.586670
X1.101690Y0.686670
X0.801689Y0.686670
X1.101690Y0.786670
X0.801689Y0.786670
X1.101690Y0.886670
X0.801689Y0.886670
X1.101690Y0.986670
X0.801689Y0.986670
X1.101690Y1.086670
X0.801689Y1.086670
X1.101690Y1.186670
X0.801689Y1.186670
X1.101690Y1.286671
X0.801689Y1.286671
X1.101690Y1.386671
X0.801689Y1.386671
X1.101690Y1.486671
X0.801689Y1.486671
X1.801690Y0.386670
X1.501690Y0.386670
X1.801690Y0.486670
X1.501690Y0.486670
X1.801690Y0.586670
X1.501690Y0.586670
X1.801690Y0.686670
X1.501690Y0.686670
X1.801690Y0.786670
X1.501690Y0.786670
X1.801690Y0.886670
X1.501690Y0.886670
X1.801690Y0.986670
X1.501690Y0.986670
X1.801690Y1.086670
X1.501690Y1.086670
X1.801690Y1.186670
X1.501690Y1.186670
X1.801690Y1.286671
X1.501690Y1.286671
T12
X0.201689Y0.386670
X0.201689Y0.486670
X0.201689Y0.586670
X0.201689Y0.686670
X0.301689Y0.386670
X0.301689Y0.486670
X0.301689Y0.586670
X0.301689Y0.686670
X0.401689Y0.386670
X0.401689Y0.486670
X0.401689Y0.586670
X0.401689Y0.686670
X1.801690Y1.786671
X1.701690Y1.786671
X1.101690Y1.786671
X1.001690Y1.786671
X0.401689Y1.586671
X0.301689Y1.586671
X0.601689Y0.486670
X0.601689Y0.586670
X0.601689Y0.686670
X0.601689Y0.786670
X0.601689Y0.886670
X0.601689Y0.986670
X0.601689Y1.086670
X1.301690Y0.486670
X1.301690Y0.586670
X1.301690Y0.686670
X1.301690Y0.786670
X1.301690Y0.886670
X1.301690Y0.986670
X1.301690Y1.086670
X1.201690Y0.186670
X1.101690Y0.186670
X1.001690Y0.186670
X0.901689Y0.186670
X0.801689Y0.186670
X0.701689Y0.186670
X0.601689Y0.186670
X0.501689Y0.186670
X1.201690Y0.086670
X1.101690Y0.086670
X1.001690Y0.086670
X0.901689Y0.086670
X0.801689Y0.086670
X0.701689Y0.086670
X0.601689Y0.086670
X0.501689Y0.086670
X1.601690Y0.186670
X1.701690Y0.186670
X1.801690Y0.186670
T13
X0.601689Y1.686671
X0.601689Y1.886671
X1.201690Y1.486671
X1.501690Y1.486671
T14
X0.401689Y1.786671
X0.301689Y1.786671
X0.201689Y1.786671
X1.501690Y1.786671
X1.401690Y1.786671
X1.301690Y1.786671
T15
X0.302918Y1.086670
X0.302918Y0.286670
T00
M30
