G04 MADE WITH FRITZING*
G04 WWW.FRITZING.ORG*
G04 DOUBLE SIDED*
G04 HOLES PLATED*
G04 CONTOUR ON CENTER OF CONTOUR VECTOR*
%ASAXBY*%
%FSLAX23Y23*%
%MOIN*%
%OFA0B0*%
%SFA1.0B1.0*%
%ADD10C,0.075833*%
%ADD11C,0.075000*%
%ADD12C,0.059000*%
%ADD13C,0.054000*%
%ADD14C,0.070000*%
%ADD15C,0.082000*%
%ADD16C,0.039370*%
%ADD17R,0.075000X0.075000*%
%ADD18R,0.059000X0.059000*%
%ADD19R,0.054000X0.054000*%
%ADD20R,0.082000X0.082000*%
%ADD21C,0.024000*%
%LNCOPPER1*%
G90*
G70*
G54D10*
X2002Y1964D03*
X2002Y1864D03*
X2002Y1757D03*
X2002Y1657D03*
X2002Y1557D03*
X2002Y1457D03*
X2002Y1357D03*
X2002Y1257D03*
X2002Y1157D03*
X2002Y1057D03*
X2002Y887D03*
X2002Y787D03*
X2002Y687D03*
X2002Y587D03*
X2002Y487D03*
X2002Y387D03*
X2002Y287D03*
X2002Y187D03*
X102Y1587D03*
X102Y1487D03*
X102Y1387D03*
X102Y1287D03*
X102Y1187D03*
X102Y1087D03*
X102Y987D03*
X102Y887D03*
X102Y687D03*
X102Y587D03*
X102Y487D03*
X102Y387D03*
X102Y287D03*
X102Y187D03*
G54D11*
X1502Y1287D03*
X1802Y1287D03*
X1502Y1187D03*
X1802Y1187D03*
X1502Y1087D03*
X1802Y1087D03*
X1502Y987D03*
X1802Y987D03*
X1502Y887D03*
X1802Y887D03*
X1502Y787D03*
X1802Y787D03*
X1502Y687D03*
X1802Y687D03*
X1502Y587D03*
X1802Y587D03*
X1502Y487D03*
X1802Y487D03*
X1502Y387D03*
X1802Y387D03*
G54D12*
X1802Y187D03*
X1702Y187D03*
X1602Y187D03*
X502Y87D03*
X602Y87D03*
X702Y87D03*
X802Y87D03*
X902Y87D03*
X1002Y87D03*
X1102Y87D03*
X1202Y87D03*
X502Y187D03*
X602Y187D03*
X702Y187D03*
X802Y187D03*
X902Y187D03*
X1002Y187D03*
X1102Y187D03*
X1202Y187D03*
G54D11*
X802Y1487D03*
X1102Y1487D03*
X802Y1387D03*
X1102Y1387D03*
X802Y1287D03*
X1102Y1287D03*
X802Y1187D03*
X1102Y1187D03*
X802Y1087D03*
X1102Y1087D03*
X802Y987D03*
X1102Y987D03*
X802Y887D03*
X1102Y887D03*
X802Y787D03*
X1102Y787D03*
X802Y687D03*
X1102Y687D03*
X802Y587D03*
X1102Y587D03*
X802Y487D03*
X1102Y487D03*
X802Y387D03*
X1102Y387D03*
G54D12*
X1302Y1087D03*
X1302Y987D03*
X1302Y887D03*
X1302Y787D03*
X1302Y687D03*
X1302Y587D03*
X1302Y487D03*
X602Y1087D03*
X602Y987D03*
X602Y887D03*
X602Y787D03*
X602Y687D03*
X602Y587D03*
X602Y487D03*
G54D13*
X1502Y1487D03*
X1202Y1487D03*
G54D14*
X602Y1887D03*
X602Y1687D03*
G54D11*
X302Y1087D03*
X402Y1087D03*
X302Y1337D03*
X202Y1337D03*
X802Y1787D03*
X702Y1787D03*
G54D12*
X302Y1587D03*
X402Y1587D03*
X1002Y1787D03*
X1102Y1787D03*
X1702Y1787D03*
X1802Y1787D03*
G54D15*
X1302Y1787D03*
X1402Y1787D03*
X1502Y1787D03*
X202Y1787D03*
X302Y1787D03*
X402Y1787D03*
G54D12*
X402Y687D03*
X402Y587D03*
X402Y487D03*
X402Y387D03*
X302Y687D03*
X302Y587D03*
X302Y487D03*
X302Y387D03*
X202Y687D03*
X202Y587D03*
X202Y487D03*
X202Y387D03*
G54D16*
X303Y287D03*
X303Y1087D03*
G54D17*
X1502Y1287D03*
G54D18*
X1802Y187D03*
X502Y87D03*
X502Y187D03*
G54D17*
X802Y1487D03*
G54D18*
X1302Y1087D03*
X602Y1087D03*
G54D19*
X1502Y1487D03*
G54D17*
X302Y1087D03*
X302Y1337D03*
X802Y1787D03*
G54D18*
X302Y1587D03*
X1002Y1787D03*
X1702Y1787D03*
G54D20*
X1302Y1787D03*
X202Y1787D03*
G54D18*
X402Y687D03*
X302Y687D03*
X202Y687D03*
G54D21*
X1127Y687D02*
X1103Y687D01*
D02*
X1103Y687D02*
X1281Y597D01*
D02*
X1127Y487D02*
X1103Y487D01*
D02*
X1103Y487D02*
X1303Y487D01*
D02*
X1303Y487D02*
X1325Y487D01*
D02*
X777Y1387D02*
X602Y1385D01*
D02*
X602Y1385D02*
X602Y1110D01*
D02*
X1402Y887D02*
X1303Y887D01*
D02*
X1402Y1185D02*
X1402Y887D01*
D02*
X1303Y887D02*
X1325Y887D01*
D02*
X1127Y1187D02*
X1402Y1185D01*
D02*
X1127Y1087D02*
X1103Y1087D01*
D02*
X1103Y1087D02*
X1202Y988D01*
D02*
X1202Y988D02*
X1202Y687D01*
D02*
X1202Y687D02*
X1279Y687D01*
D02*
X777Y1287D02*
X703Y1287D01*
D02*
X703Y1287D02*
X703Y687D01*
D02*
X703Y687D02*
X625Y687D01*
D02*
X719Y1769D02*
X703Y1785D01*
D02*
X703Y1785D02*
X703Y1687D01*
D02*
X703Y1687D02*
X625Y1687D01*
D02*
X1502Y1508D02*
X1503Y1585D01*
D02*
X1503Y1585D02*
X703Y1585D01*
D02*
X703Y1585D02*
X703Y1687D01*
D02*
X703Y1687D02*
X625Y1687D01*
D02*
X303Y287D02*
X303Y287D01*
D02*
X1302Y1686D02*
X1001Y1688D01*
D02*
X1001Y1688D02*
X1001Y1764D01*
D02*
X1302Y1760D02*
X1302Y1686D01*
D02*
X1077Y987D02*
X901Y987D01*
D02*
X901Y987D02*
X903Y985D01*
D02*
X903Y985D02*
X900Y1588D01*
D02*
X900Y1588D02*
X1500Y1588D01*
D02*
X1500Y1588D02*
X1503Y1487D01*
D02*
X1503Y1487D02*
X1523Y1487D01*
D02*
X1503Y1585D02*
X1502Y1487D01*
D02*
X1503Y1487D02*
X1503Y1585D01*
D02*
X1801Y1287D02*
X1503Y1487D01*
D02*
X1777Y1287D02*
X1801Y1287D01*
D02*
X1703Y185D02*
X1702Y1087D01*
D02*
X1718Y170D02*
X1703Y185D01*
D02*
X1702Y1087D02*
X1527Y1087D01*
D02*
X1502Y1187D02*
X1502Y1087D01*
D02*
X1480Y1175D02*
X1502Y1187D01*
D02*
X179Y487D02*
X127Y487D01*
D02*
X179Y587D02*
X127Y587D01*
D02*
X179Y687D02*
X127Y687D01*
D02*
X179Y387D02*
X127Y387D01*
D02*
X1826Y1083D02*
X1977Y1060D01*
D02*
X1824Y976D02*
X1979Y898D01*
D02*
X402Y510D02*
X403Y688D01*
D02*
X403Y688D02*
X402Y1487D01*
D02*
X402Y1487D02*
X402Y1760D01*
D02*
X302Y1760D02*
X302Y1610D01*
D02*
X402Y1610D02*
X402Y1760D01*
D02*
X402Y464D02*
X402Y410D01*
D02*
X402Y564D02*
X402Y510D01*
D02*
X402Y664D02*
X402Y610D01*
D02*
X1102Y1362D02*
X1102Y1312D01*
D02*
X202Y1337D02*
X202Y887D01*
D02*
X202Y1787D02*
X202Y1337D01*
D02*
X202Y887D02*
X127Y887D01*
D02*
X303Y1106D02*
X302Y1312D01*
D02*
X302Y1564D02*
X303Y1106D01*
G04 End of Copper1*
M02*